<?xml version="1.0" standalone="no"?>
<!DOCTYPE svg PUBLIC "-//W3C//DTD SVG 1.1//EN" "http://www.w3.org/Graphics/SVG/1.1/DTD/svg11.dtd" >
<svg xmlns="http://www.w3.org/2000/svg" xmlns:xlink="http://www.w3.org/1999/xlink" version="1.1">
<metadata>
Created by FontForge 20190801 at Fri Feb  6 11:30:07 2015
 By Jimmy Wärting
Copyright (c) 2015 Monotype ITC Inc.  All rights reserved.
</metadata>
<defs>
<font id="ITCNewVeljovicPro-CnRegular" horiz-adv-x="297" >
  <font-face 
    font-family="ITC New Veljovic Pro"
    font-weight="400"
    font-stretch="condensed"
    units-per-em="1000"
    panose-1="2 0 5 6 6 5 10 9 2 4"
    ascent="747"
    descent="-253"
    x-height="452"
    cap-height="626"
    bbox="-139 -261 1188 955"
    underline-thickness="50"
    underline-position="-125"
    stemh="33"
    stemv="83"
    unicode-range="U+000D-FB06"
  />
<missing-glyph horiz-adv-x="444" 
d="M0 -4v672h444v-672h-444zM40 631v-598h364v598h-364zM179 261v75c34 20 87 40 87 115c0 54 -29 80 -64 80c-39 0 -69 -26 -82 -82h-20v84c30 13 74 30 123 30c87 0 116 -54 116 -102c0 -78 -70 -98 -102 -125c-23 -20 -30 -50 -38 -75h-20zM193 101c-25 0 -46 20 -46 49
c0 28 21 49 46 49c26 0 48 -21 48 -49c0 -29 -22 -49 -48 -49z" />
    <glyph glyph-name="napostrophe" unicode="&#x22;n" horiz-adv-x="549" 
d="M31 411l154 55v-101h2c22 34 80 101 161 101c83 0 114 -55 114 -145v-280l71 -24v-17h-214v17l60 24v274c0 50 -11 92 -68 92c-24 0 -61 -11 -94 -46c-18 -18 -32 -43 -32 -73v-247l60 -24v-17h-212v17l69 24v350l-71 2v18zM1 508l-18 11c19 28 32 50 32 87
c0 29 -17 46 -37 64l41 34c16 -6 57 -35 57 -72c0 -36 -31 -81 -75 -124z" />
    <glyph glyph-name="f_b" unicode="fb" horiz-adv-x="803" 
d="M32 0v17l71 24v351h-71v19l71 28v30c0 121 45 229 193 229c21 0 57 -6 88 -18l81 30v-354h2c23 48 67 110 146 110c95 0 152 -83 152 -215c0 -152 -77 -265 -206 -265c-48 0 -96 22 -126 52l-37 -48h-13v604c-15 39 -58 72 -99 72c-78 0 -98 -64 -98 -166v-65h121v-43
h-121v-351l88 -24v-17h-242zM582 407c-61 0 -97 -50 -110 -117c-5 -15 -9 -60 -9 -100c0 -33 2 -73 8 -94c11 -56 53 -75 88 -75c73 0 116 81 116 214c0 91 -30 172 -93 172z" />
    <glyph glyph-name="f_f" unicode="ff" horiz-adv-x="593" 
d="M32 411l71 28v19c0 125 64 225 199 225c32 0 72 -7 108 -23l-9 -74c24 65 75 112 163 112c32 0 69 -7 102 -23l-7 -103h-21c-11 48 -37 94 -87 94c-66 0 -85 -68 -85 -166v-64h121v-44h-121v-351l88 -24v-17h-238v17l67 24v351h-197v-351l81 -24v-17h-235v17l71 24v351
h-71v19zM186 434h197v35c0 36 5 72 15 103h-18c-10 48 -48 79 -88 79c-68 0 -106 -57 -106 -174v-43z" />
    <glyph glyph-name="f_f_b" unicode="ffb" horiz-adv-x="1082" 
d="M319 0v17l64 24v351h-198v-351l78 -24v-17h-232v17l72 24v349h-71v18l71 30v18c0 121 60 227 201 227c27 0 77 -8 110 -22l-6 -61c27 59 78 98 167 98c21 0 58 -6 88 -18l81 30v-354h2c23 48 68 110 147 110c95 0 151 -83 151 -215c0 -152 -77 -265 -206 -265
c-48 0 -94 22 -126 52l-36 -48h-14v618c-14 31 -56 58 -96 58c-77 0 -101 -64 -101 -166v-65h121v-43h-121v-351l89 -24v-17h-235zM861 407c-60 0 -97 -50 -110 -117c-4 -15 -8 -60 -8 -100c0 -33 1 -73 7 -94c11 -56 53 -75 88 -75c73 0 117 81 117 214
c0 91 -30 172 -94 172zM185 487v-52h198v34c0 38 5 76 16 110h-13c-12 55 -54 72 -92 72c-74 0 -109 -65 -109 -164z" />
    <glyph glyph-name="f_f_h" unicode="ffh" horiz-adv-x="1107" 
d="M37 411l66 28v14c0 129 58 230 195 230c31 0 72 -7 106 -23l-6 -74c24 65 83 112 170 112c36 0 68 -7 97 -18l78 30v-354h2c24 32 80 110 169 110c75 0 106 -50 106 -140v-285l74 -24v-17h-217v17l60 24v256c0 61 -7 108 -61 108c-28 0 -64 -14 -94 -45
c-26 -28 -39 -49 -39 -85v-234l60 -24v-17h-214v17l71 24v573c-21 35 -56 52 -95 52c-72 0 -102 -56 -102 -163v-67h115v-44h-115v-351l78 -24v-17h-220v17l59 24v351h-195v-351l73 -24v-17h-221v17l66 24v351h-66v19zM185 434h195v23c0 33 5 84 14 115h-17
c-14 49 -40 79 -88 79c-68 0 -104 -60 -104 -180v-37z" />
    <glyph glyph-name="f_f_i" unicode="ffi" horiz-adv-x="836" 
d="M32 411l71 28v19c0 125 65 225 201 225c31 0 76 -7 110 -23l-6 -74c28 68 99 112 189 112c37 0 100 -10 134 -26l-15 -109h-20c-15 56 -47 102 -111 102c-78 0 -119 -63 -119 -185v-46h181l100 32v-425l77 -24v-17h-226v17l66 24v351h-198v-351l75 -24v-17h-224v17l66 24
v351h-197v-351l73 -24v-17h-227v17l71 24v351h-71v19zM186 434h197v25c0 46 8 77 19 113h-16c-11 48 -49 79 -92 79c-68 0 -108 -57 -108 -176v-41z" />
    <glyph glyph-name="f_f_j" unicode="ffj" horiz-adv-x="827" 
d="M32 411l71 28v19c0 138 63 225 199 225c32 0 78 -7 113 -23l-8 -74c28 65 97 112 190 112c42 0 99 -11 133 -26l-14 -109h-20c-13 54 -46 102 -111 102c-79 0 -119 -62 -119 -185v-44h179l102 30v-451c0 -142 -52 -231 -165 -231c-41 0 -76 13 -93 24l2 107h18
c11 -54 37 -102 80 -102c50 0 75 58 75 176v403h-198v-351l85 -24v-17h-235v17l67 24v351h-197v-351l81 -24v-17h-235v17l71 24v351h-71v19zM186 436h197v22c0 47 6 77 20 114h-17c-10 48 -50 79 -93 79c-69 0 -107 -46 -107 -178v-37z" />
    <glyph glyph-name="f_f_k" unicode="ffk" horiz-adv-x="1078" 
d="M37 411l66 28v14c0 129 58 230 195 230c31 0 72 -7 106 -23l-6 -74c24 65 83 112 170 112c32 0 68 -5 98 -17l75 29v-481l166 182l-62 24v17h189v-17l-74 -24l-129 -127l189 -243l56 -24v-17h-202v17l50 22l-148 189l-35 -32v-155l63 -24v-17h-214v17l69 24v575
c-14 27 -50 50 -91 50c-82 0 -105 -58 -105 -150v-80h115v-44h-115v-351l78 -24v-17h-219v17l58 24v351h-195v-351l72 -24v-17h-220v17l66 24v351h-66v19zM185 436h195v20c0 39 5 85 14 116h-17c-14 49 -40 79 -88 79c-70 0 -104 -60 -104 -180v-35z" />
    <glyph glyph-name="f_f_l" unicode="ffl" horiz-adv-x="835" 
d="M32 410l71 28v19c0 127 66 228 203 228c31 0 76 -7 109 -23l-6 -74c27 62 78 110 170 110c33 0 65 -10 91 -21l77 33v-669l70 -24v-17h-219v17l66 24v584c-20 27 -61 40 -86 40c-82 0 -112 -62 -112 -203v-25h140v-46h-140v-350l72 -24v-17h-222v17l67 24v350h-197v-350
l70 -24v-17h-224v17l71 24v350h-71v19zM186 437h197c0 43 5 91 19 135h-15c-11 48 -44 80 -96 80c-63 0 -105 -55 -105 -183v-32z" />
    <glyph glyph-name="f_h" unicode="fh" horiz-adv-x="836" 
d="M32 411l71 28v30c0 121 55 229 191 229c35 0 66 -7 93 -18l85 30v-345h2c22 33 80 101 164 101c77 0 112 -50 112 -140v-285l71 -24v-17h-215v17l60 24v258c0 60 -7 108 -64 108c-29 0 -62 -9 -92 -40c-29 -29 -38 -48 -38 -82v-244l59 -24v-17h-217v17l75 24v558
c-20 40 -65 66 -106 66c-66 0 -97 -62 -97 -165v-65h121v-43h-121v-351l83 -24v-17h-237v17l71 24v351h-71v19z" />
    <glyph glyph-name="f_i" unicode="fi" horiz-adv-x="554" 
d="M103 392h-71v19l71 26c0 129 43 261 219 261c48 0 97 -14 128 -26l-13 -109h-21c-19 63 -53 102 -113 102c-86 0 -117 -68 -117 -196v-34h181l99 31v-425l68 -24v-17h-218v17l67 24v351h-197v-351l76 -24v-17h-230v17l71 24v351z" />
    <glyph glyph-name="f_j" unicode="fj" horiz-adv-x="545" 
d="M32 411l71 28v23c0 128 74 236 214 236c36 0 88 -8 125 -23l-10 -103h-20c-14 51 -49 93 -103 93c-74 0 -123 -55 -123 -193v-37h172l107 31v-451c0 -142 -51 -231 -165 -231c-41 0 -75 13 -91 24l1 108h18c11 -54 36 -103 79 -103c51 0 76 58 76 176v403h-197v-351
l87 -24v-17h-241v17l71 24v351h-71v19z" />
    <glyph glyph-name="f_k" unicode="fk" horiz-adv-x="806" 
d="M32 411l71 28v30c0 132 63 229 192 229c29 0 60 -7 93 -19l83 31v-481l165 182l-61 24v17h188v-17l-72 -24l-130 -127l188 -243l57 -24v-17h-202v17l50 22l-149 189l-34 -32v-155l63 -24v-17h-218v17l72 24v555c-10 31 -53 70 -100 70c-66 0 -102 -50 -102 -188v-43h121
v-43h-121v-351l84 -24v-17h-238v17l71 24v351h-71v19z" />
    <glyph glyph-name="f_l" unicode="fl" horiz-adv-x="555" 
d="M104 392h-72v19l72 26c0 102 18 261 196 261c33 0 65 -10 91 -21l76 33v-669l70 -24v-17h-218v17l65 24v584c-25 25 -56 40 -87 40c-85 0 -111 -69 -111 -203v-27h120v-43h-120v-351l74 -24v-17h-228v17l72 24v351z" />
    <glyph glyph-name="longs_b" unicode="&#x17f;b" horiz-adv-x="791" 
d="M28 0v17l71 24v348l-46 27v16l46 8v32c0 119 48 226 188 226c31 0 63 -5 93 -17l76 29v-361h1c24 48 71 117 147 117c95 0 148 -83 148 -215c0 -152 -76 -265 -205 -265c-48 0 -94 21 -125 52l-35 -48h-14v622c-14 29 -49 54 -88 54c-82 0 -104 -69 -104 -166v-459
l82 -24v-17h-235zM573 403c-61 0 -98 -50 -111 -116c-3 -14 -6 -60 -6 -97c0 -32 0 -76 5 -96c13 -55 52 -73 86 -73c73 0 116 84 116 214c0 89 -29 168 -90 168z" />
    <glyph glyph-name="longs_h" unicode="&#x17f;h" horiz-adv-x="825" 
d="M53 432l46 8v29c0 121 54 229 190 229c35 0 61 -5 94 -18l78 30v-354h2c22 32 79 110 168 110c76 0 106 -50 106 -140v-285l74 -24v-17h-216v17l60 24v256c0 61 -8 108 -61 108c-30 0 -65 -14 -94 -45c-27 -28 -39 -49 -39 -85v-234l59 -24v-17h-215v17l73 24v573
c-19 33 -59 51 -99 51c-67 0 -98 -62 -98 -165v-459l78 -24v-17h-231v17l71 24v348l-46 27v16z" />
    <glyph glyph-name="longs_i" unicode="&#x17f;i" horiz-adv-x="547" 
d="M53 432l46 8v27c0 141 72 231 204 231c45 0 88 -8 130 -24l-8 -108h-23c-14 66 -55 98 -106 98c-69 0 -115 -47 -115 -175v-448l69 -24v-17h-218v17l67 24v348l-46 27v16zM316 0v17l60 24v348l-67 4v18l150 55v-425l66 -24v-17h-209z" />
    <glyph glyph-name="longs_k" unicode="&#x17f;k" horiz-adv-x="794" 
d="M53 432l46 8v29c0 132 67 229 194 229c30 0 60 -5 90 -17l76 29v-481l165 182l-62 24v17h189v-17l-73 -24l-130 -127l189 -243l58 -24v-17h-204v17l51 22l-148 189l-35 -32v-155l63 -24v-17h-214v17l68 24v575c-13 27 -44 50 -89 50c-66 0 -106 -48 -106 -182v-443
l80 -24v-17h-233v17l71 24v348l-46 27v16z" />
    <glyph glyph-name="longs_l" unicode="&#x17f;l" horiz-adv-x="547" 
d="M99 389l-46 27v16l46 8c0 101 17 258 195 258c33 0 65 -8 90 -21l75 33v-669l72 -24v-17h-214v17l59 24v580c-18 26 -57 44 -87 44c-83 0 -108 -69 -108 -203v-421l68 -24v-17h-217v17l67 24v348z" />
    <glyph glyph-name="longs_longs" unicode="&#x17f;&#x17f;" horiz-adv-x="587" 
d="M311 0v17l65 24v348l-45 27v16l45 8v22c0 35 4 72 12 105c-14 55 -47 82 -102 82c-60 0 -105 -45 -105 -156v-452l72 -24v-17h-225v17l71 24v348l-46 27v16l46 8v22c0 116 59 221 199 221c31 0 79 -9 112 -24l-2 -40h4c22 42 69 79 135 79c32 0 71 -7 102 -24l-10 -108
h-23c-15 71 -39 98 -81 98c-54 0 -76 -56 -76 -168v-455l88 -24v-17h-236z" />
    <glyph glyph-name="longs_longs_i" unicode="&#x17f;&#x17f;i" horiz-adv-x="825" 
d="M595 0v17l60 24v348l-67 4v18l149 55v-425l66 -24v-17h-208zM311 0v17l65 24v348l-45 27v16l45 8v22c0 35 4 72 12 105c-14 55 -47 82 -102 82c-60 0 -105 -45 -105 -161v-447l72 -24v-17h-225v17l71 24v348l-46 27v16l46 8v19c0 121 59 224 199 224c31 0 79 -9 112 -24
l-2 -44h4c32 48 97 83 168 83c45 0 89 -8 130 -24l-9 -108h-23c-14 66 -54 98 -104 98c-67 0 -115 -47 -115 -175v-448l70 -24v-17h-218z" />
    <glyph glyph-name="longs_longs_l" unicode="&#x17f;&#x17f;l" horiz-adv-x="826" 
d="M595 0v17l60 24v565c-18 42 -57 58 -92 58c-68 0 -104 -56 -104 -168v-455l72 -24v-17h-220v17l65 24v348l-45 27v16l45 8v22c0 35 4 72 12 105c-14 55 -47 82 -102 82c-60 0 -105 -45 -105 -156v-452l72 -24v-17h-225v17l71 24v348l-46 27v16l46 8v22
c0 116 59 221 199 221c31 0 79 -9 112 -24l-2 -44h4c26 44 86 83 152 83c37 0 68 -5 108 -23l65 35v-669l69 -24v-17h-211z" />
    <glyph glyph-name=".notdef" horiz-adv-x="444" 
d="M0 -4v672h444v-672h-444zM40 631v-598h364v598h-364zM179 261v75c34 20 87 40 87 115c0 54 -29 80 -64 80c-39 0 -69 -26 -82 -82h-20v84c30 13 74 30 123 30c87 0 116 -54 116 -102c0 -78 -70 -98 -102 -125c-23 -20 -30 -50 -38 -75h-20zM193 101c-25 0 -46 20 -46 49
c0 28 21 49 46 49c26 0 48 -21 48 -49c0 -29 -22 -49 -48 -49z" />
    <glyph glyph-name="CR" unicode="&#xd;" horiz-adv-x="179" 
 />
    <glyph glyph-name="space" unicode=" " horiz-adv-x="179" 
 />
    <glyph glyph-name="exclam" unicode="!" horiz-adv-x="320" 
d="M171 177h-21c-13 82 -37 299 -37 351v41c0 23 7 57 47 57c41 0 47 -34 47 -57v-41c0 -54 -24 -269 -36 -351zM161 -14c-31 0 -56 26 -56 58c0 31 25 57 56 57c30 0 55 -26 55 -57c0 -32 -25 -58 -55 -58z" />
    <glyph glyph-name="quotedbl" unicode="&#x22;" horiz-adv-x="338" 
d="M46 651h89l-31 -225h-28zM204 651h88l-30 -225h-28z" />
    <glyph glyph-name="numbersign" unicode="#" horiz-adv-x="486" 
d="M207 616h61l-41 -143h98l42 143h60l-41 -143h87l-9 -30h-86l-43 -150h87l-10 -32h-86l-40 -141h-61l40 141h-99l-39 -141h-61l40 141h-87l8 32h87l43 150h-87l9 30h87zM217 443l-42 -150h99l42 150h-99z" />
    <glyph glyph-name="dollar" unicode="$" horiz-adv-x="486" 
d="M224 707h42l-3 -87c65 -3 95 -12 134 -28l-1 -115h-17c-20 68 -44 106 -116 109v-223c81 -41 170 -75 170 -192c0 -114 -85 -174 -181 -180l4 -99h-43l3 98c-71 3 -120 20 -158 43v153h19c15 -93 45 -157 139 -161v255c-76 34 -149 73 -149 179c0 100 81 156 160 160z
M227 584c-51 -4 -95 -34 -95 -97c0 -54 42 -85 95 -112v209zM252 267v-241c65 3 111 47 111 116c0 62 -53 95 -111 125z" />
    <glyph glyph-name="percent" unicode="%" horiz-adv-x="754" 
d="M536 620h42l-356 -620h-43zM210 620c83 0 126 -61 126 -176c0 -105 -46 -182 -132 -182c-89 0 -130 59 -130 175c0 104 45 183 136 183zM204 595c-44 0 -62 -62 -62 -154c0 -93 19 -154 65 -154c43 0 62 50 62 151c0 108 -21 157 -65 157zM553 349c84 0 127 -61 127 -176
c0 -105 -46 -182 -133 -182c-89 0 -129 59 -129 175c0 104 45 183 135 183zM547 324c-43 0 -61 -61 -61 -154s19 -154 65 -154c42 0 61 50 61 151c0 108 -20 157 -65 157z" />
    <glyph glyph-name="ampersand" unicode="&#x26;" horiz-adv-x="636" 
d="M406 602v-102h-20c-13 58 -44 95 -96 95c-58 0 -88 -44 -88 -102c0 -77 55 -103 107 -109v-26c-100 0 -163 -61 -163 -168c0 -114 73 -169 162 -169c103 0 163 62 163 134c0 48 -24 73 -63 73c-38 0 -61 -18 -89 -45l-13 8c41 75 51 92 93 119l100 66c58 38 77 61 90 98
h18c-9 -38 -15 -58 -26 -85c-18 -40 -40 -60 -79 -81l-93 -51v-6c37 -1 80 -7 112 -15c15 -14 28 -37 28 -69c0 -103 -100 -181 -258 -181c-148 0 -248 67 -248 200c0 113 100 179 203 189v5c-52 8 -128 40 -128 115c0 82 75 128 176 128c48 0 86 -10 112 -21z" />
    <glyph glyph-name="quotesingle" unicode="'" horiz-adv-x="181" 
d="M46 651h89l-31 -225h-28z" />
    <glyph glyph-name="parenleft" unicode="(" horiz-adv-x="315" 
d="M60 221c0 250 94 386 216 420v-23c-110 -48 -147 -219 -147 -397c0 -180 36 -351 146 -399v-23c-122 34 -215 172 -215 422z" />
    <glyph glyph-name="parenright" unicode=")" horiz-adv-x="315" 
d="M255 221c0 -250 -93 -388 -215 -422v23c110 48 146 219 146 399c0 178 -37 349 -147 397v23c122 -34 216 -170 216 -420z" />
    <glyph glyph-name="asterisk" unicode="*" horiz-adv-x="441" 
d="M248 635l-20 -139l103 88c12 -13 23 -34 28 -51l-123 -51l123 -51c-5 -17 -16 -38 -28 -51l-103 87l20 -138c-16 -4 -39 -4 -55 0l19 138l-102 -87c-12 13 -24 34 -28 51l122 51l-122 51c4 17 16 38 28 51l102 -88l-19 139c16 4 39 4 55 0z" />
    <glyph glyph-name="plus" unicode="+" horiz-adv-x="618" 
d="M280 466h57v-204h207v-54h-207v-203h-57v203h-206v54h206v204z" />
    <glyph glyph-name="comma" unicode="," horiz-adv-x="251" 
d="M77 -162l-20 9c42 58 60 105 60 154c0 23 -31 51 -48 69l59 32c18 -8 67 -44 67 -81c0 -48 -58 -126 -118 -183z" />
    <glyph glyph-name="hyphen" unicode="-" horiz-adv-x="323" 
d="M42 207v68h240v-68h-240z" />
    <glyph glyph-name="period" unicode="." horiz-adv-x="250" 
d="M68 45c0 32 25 57 57 57c31 0 56 -25 56 -57c0 -31 -25 -56 -56 -56c-32 0 -57 25 -57 56z" />
    <glyph glyph-name="slash" unicode="/" horiz-adv-x="374" 
d="M30 -20l260 660h54l-260 -660h-54z" />
    <glyph glyph-name="zero" unicode="0" horiz-adv-x="486" 
d="M235 -14c-131 0 -192 114 -192 314c0 201 74 319 211 319c128 0 188 -111 188 -299c0 -220 -83 -334 -207 -334zM135 306c0 -186 29 -289 107 -289c82 0 109 103 109 303c0 168 -24 268 -106 268c-89 0 -110 -117 -110 -282z" />
    <glyph glyph-name="one" unicode="1" horiz-adv-x="486" 
d="M121 0v17l85 24v507l-119 3v18l205 55v-583l90 -24v-17h-261z" />
    <glyph glyph-name="two" unicode="2" horiz-adv-x="486" 
d="M43 0v17c78 94 266 297 266 449c0 77 -42 122 -100 122c-63 0 -103 -44 -124 -116h-20v110c33 16 103 37 169 37c102 0 170 -47 170 -146c0 -152 -187 -284 -273 -395v-1h254l26 70h17v-147h-385z" />
    <glyph glyph-name="three" unicode="3" horiz-adv-x="486" 
d="M82 487v99c36 15 89 33 161 33c97 0 158 -45 158 -119c0 -85 -69 -132 -127 -154v-3c63 -6 150 -46 150 -160c0 -121 -85 -197 -212 -197c-74 0 -116 18 -154 40v103h21c20 -57 58 -111 131 -111c65 0 121 53 121 149c0 84 -48 136 -125 136c-12 0 -29 -2 -40 -4l-7 22
c61 13 147 46 147 154c0 70 -33 113 -96 113c-65 0 -93 -54 -106 -101h-22z" />
    <glyph glyph-name="four" unicode="4" horiz-adv-x="486" 
d="M201 0v17l80 24v140h-247v24l273 405h57v-379h78v-50h-78v-140l70 -24v-17h-233zM280 523l-180 -292h181v292h-1z" />
    <glyph glyph-name="five" unicode="5" horiz-adv-x="486" 
d="M161 533l-39 -176c34 17 78 31 123 31c120 0 183 -75 183 -182c0 -131 -94 -220 -218 -220c-69 0 -115 19 -144 43v97h21c14 -52 49 -108 125 -108c67 0 122 59 122 157c0 96 -48 145 -128 145c-48 0 -81 -20 -103 -34l-13 7l39 317h253v-77h-221z" />
    <glyph glyph-name="six" unicode="6" horiz-adv-x="486" 
d="M407 501h-22c-11 38 -32 83 -101 83c-111 0 -140 -153 -140 -253v-34h2c18 47 62 104 134 104c91 0 154 -75 154 -183c0 -141 -81 -232 -189 -232c-129 0 -194 109 -194 286c0 215 90 347 249 347c30 0 80 -9 107 -23v-95zM148 191c0 -97 34 -174 102 -174
c58 0 93 73 93 174c0 92 -39 152 -95 152s-100 -58 -100 -152z" />
    <glyph glyph-name="seven" unicode="7" horiz-adv-x="486" 
d="M178 -15l-68 15l276 531h-281l-29 -57h-17v136h400v-6z" />
    <glyph glyph-name="eight" unicode="8" horiz-adv-x="486" 
d="M233 -14c-110 0 -184 63 -184 175s76 161 141 174v2c-64 14 -121 56 -121 129c0 90 69 153 183 153c100 0 166 -52 166 -131c0 -81 -58 -132 -124 -151v-2c69 -9 143 -49 143 -160c0 -97 -72 -189 -204 -189zM161 474c0 -80 31 -122 82 -122c50 0 84 42 84 128
c0 72 -29 108 -83 108c-56 0 -83 -45 -83 -114zM141 171c0 -96 36 -153 102 -153c65 0 100 57 100 153c0 91 -29 146 -100 146c-67 0 -102 -55 -102 -146z" />
    <glyph glyph-name="nine" unicode="9" horiz-adv-x="486" 
d="M72 112h20c14 -51 44 -93 109 -93c116 0 140 168 140 261c0 10 -1 29 -1 41h-2c-19 -51 -73 -106 -141 -106c-90 0 -148 76 -148 187c0 117 71 217 198 217c129 0 187 -104 187 -274c0 -211 -79 -359 -244 -359c-41 0 -83 10 -118 33v93zM139 427c0 -101 39 -153 94 -153
s106 66 106 146c0 78 -25 168 -106 168c-62 0 -94 -67 -94 -161z" />
    <glyph glyph-name="colon" unicode=":" horiz-adv-x="250" 
d="M69 44c0 30 24 55 56 55c31 0 55 -25 55 -55c0 -32 -24 -56 -55 -56c-32 0 -56 24 -56 56zM69 359c0 31 24 55 56 55c31 0 55 -24 55 -55s-24 -56 -55 -56c-32 0 -56 25 -56 56z" />
    <glyph glyph-name="semicolon" unicode=";" horiz-adv-x="250" 
d="M126 303c-31 0 -56 25 -56 56s25 56 56 56c30 0 56 -25 56 -56s-26 -56 -56 -56zM72 -162l-20 9c42 58 60 105 60 154c0 23 -30 51 -47 69l58 32c18 -8 67 -44 67 -81c0 -48 -58 -126 -118 -183z" />
    <glyph glyph-name="less" unicode="&#x3c;" horiz-adv-x="618" 
d="M534 449v-64l-375 -151l375 -150v-63l-450 188v51z" />
    <glyph glyph-name="equal" unicode="=" horiz-adv-x="618" 
d="M74 282v55h470v-55h-470zM74 125v54h470v-54h-470z" />
    <glyph glyph-name="greater" unicode="&#x3e;" horiz-adv-x="618" 
d="M83 449l450 -189v-51l-450 -188v63l375 150l-375 151v64z" />
    <glyph glyph-name="question" unicode="?" horiz-adv-x="427" 
d="M156 181v115c45 26 132 82 132 186c0 65 -30 114 -85 114c-74 0 -100 -72 -112 -120h-22v114c39 17 94 36 160 36c90 0 148 -54 148 -134c0 -107 -97 -135 -140 -178c-42 -37 -49 -99 -60 -133h-21zM172 -14c-32 0 -57 26 -57 57s25 57 57 57c31 0 56 -26 56 -57
s-25 -57 -56 -57z" />
    <glyph glyph-name="at" unicode="@" horiz-adv-x="745" 
d="M568 446c-31 -96 -55 -235 -55 -286c0 -19 2 -32 4 -44c72 1 140 93 140 232c0 152 -94 219 -226 219c-212 0 -304 -185 -304 -354c0 -210 141 -278 252 -278c99 0 160 31 198 63l11 -24c-52 -42 -133 -77 -225 -77c-134 0 -311 75 -311 316c0 190 126 392 378 392
c159 0 265 -94 265 -252c0 -181 -100 -278 -235 -296c-9 24 -12 54 -12 82c0 42 7 68 14 102l-4 2c-21 -59 -90 -187 -171 -187c-39 0 -66 34 -66 94c0 128 89 307 219 307c34 0 58 -20 68 -30l54 25zM489 390c-5 23 -25 38 -47 38c-94 0 -150 -206 -150 -273
c0 -33 8 -48 27 -48c68 0 162 224 170 283z" />
    <glyph glyph-name="A" unicode="A" horiz-adv-x="625" 
d="M74 41l235 598h21l222 -598l61 -24v-17h-240v17l80 24l-58 161h-213l-55 -161l72 -24v-17h-186v17zM285 493l-88 -243h182l-93 243h-1z" />
    <glyph glyph-name="B" unicode="B" horiz-adv-x="563" 
d="M38 0v17l82 24v544l-82 24v17h253c106 0 198 -34 198 -138c0 -78 -64 -129 -121 -146v-7c71 -10 150 -53 150 -148c0 -108 -91 -187 -258 -187h-222zM215 589v-245c118 0 174 36 174 137c0 84 -50 114 -122 114c-13 0 -40 -1 -52 -6zM215 312v-271c15 -6 40 -8 57 -8
c96 0 146 54 146 149c0 105 -80 131 -178 132c-8 0 -18 -1 -25 -2z" />
    <glyph glyph-name="C" unicode="C" horiz-adv-x="579" 
d="M535 160l-13 -130c-42 -20 -104 -44 -192 -44c-198 0 -287 152 -287 320c0 193 122 334 304 334c70 0 138 -16 170 -32v-120h-22c-20 71 -65 118 -150 117c-124 0 -196 -117 -196 -300c0 -160 72 -284 186 -284c112 0 152 58 178 139h22z" />
    <glyph glyph-name="D" unicode="D" horiz-adv-x="662" 
d="M38 0v17l82 24v544l-83 24v17h259c177 0 323 -63 323 -293c0 -223 -140 -333 -336 -333h-245zM215 589v-548c24 -4 48 -8 71 -8c156 0 229 113 229 295c0 165 -60 267 -221 267c-19 0 -60 -4 -79 -6z" />
    <glyph glyph-name="E" unicode="E" horiz-adv-x="552" 
d="M38 0v17l82 24v544l-83 24v17h436v-136h-22c-27 80 -39 97 -106 97h-130v-240l147 4l23 75h19v-192h-19l-23 74l-147 4v-269h146c79 0 94 1 123 117h22v-160h-468z" />
    <glyph glyph-name="F" unicode="F" horiz-adv-x="511" 
d="M37 626h445v-136h-22c-23 77 -37 97 -106 97h-139v-256l147 4l24 78h19v-199h-20l-23 77l-147 4v-254l91 -24v-17h-269v17l83 24v544l-83 24v17z" />
    <glyph glyph-name="G" unicode="G" horiz-adv-x="637" 
d="M550 245v-166c0 -16 3 -23 8 -32c-47 -28 -131 -61 -225 -61c-190 0 -290 148 -290 323c0 186 116 331 317 331c78 0 136 -14 185 -35v-115h-22c-28 84 -80 117 -167 117c-117 0 -208 -104 -208 -290c0 -162 68 -296 198 -296c53 0 92 16 112 34v190l-76 24v17h227v-17z
" />
    <glyph glyph-name="H" unicode="H" horiz-adv-x="726" 
d="M38 0v17l82 24v544l-82 24v17h258v-17l-81 -24v-236h296v236l-81 24v17h257v-17l-81 -24v-544l81 -25v-16h-257v17l81 24v266h-296v-266l81 -24v-17h-258z" />
    <glyph glyph-name="I" unicode="I" horiz-adv-x="335" 
d="M37 0v17l83 24v544l-83 24v17h262v-17l-84 -24v-544l84 -24v-17h-262z" />
    <glyph glyph-name="J" unicode="J" horiz-adv-x="437" 
d="M331 585v-388c0 -119 -50 -211 -176 -211c-48 0 -105 13 -132 27v125h22c15 -70 50 -121 105 -121c62 0 86 56 86 158v410l-91 24v17h261v-17z" />
    <glyph glyph-name="K" unicode="K" horiz-adv-x="650" 
d="M37 626h246v-17l-68 -24v-266l244 266l-63 24v17h193v-17l-61 -24l-215 -205l266 -339l63 -24v-17h-236v17l60 24l-216 274l-35 -36v-238l67 -24v-17h-245v17l83 24v544l-83 24v17z" />
    <glyph glyph-name="L" unicode="L" horiz-adv-x="533" 
d="M37 0v17l83 24v544l-83 24v17h261v-17l-83 -24v-542h144c78 0 104 29 122 117h22v-160h-466z" />
    <glyph glyph-name="M" unicode="M" horiz-adv-x="823" 
d="M33 0v17l68 24l30 539l-83 29v17h170l194 -459h1l197 459h165v-17l-79 -24l19 -544l69 -24v-17h-250v17l87 24l-12 485h-4l-215 -523h-11l-213 516h-4l-5 -478l88 -24v-17h-212z" />
    <glyph glyph-name="N" unicode="N" horiz-adv-x="688" 
d="M30 626h163l348 -469l2 2l-10 426l-86 24v17h205v-17l-62 -24l-16 -598h-24l-395 541l-2 -2l11 -485l87 -24v-17h-216v17l74 24l10 537l-89 31v17z" />
    <glyph glyph-name="O" unicode="O" horiz-adv-x="674" 
d="M327 -14c-176 0 -285 140 -285 324c0 178 118 330 305 330c173 0 286 -129 286 -314c0 -201 -134 -340 -306 -340zM342 605c-127 0 -195 -125 -195 -290c0 -175 69 -294 188 -294c131 0 192 123 192 292c0 173 -58 292 -185 292z" />
    <glyph glyph-name="P" unicode="P" horiz-adv-x="554" 
d="M37 626h267c130 0 215 -46 215 -164c0 -122 -95 -196 -211 -196c-19 0 -67 5 -93 10v-235l92 -24v-17h-270v17l83 24v544l-83 24v17zM215 587v-286c12 -2 29 -3 50 -3c86 0 153 47 153 157c0 81 -41 140 -139 140c-17 0 -43 -2 -64 -8z" />
    <glyph glyph-name="Q" unicode="Q" horiz-adv-x="673" 
d="M346 640c174 0 286 -129 286 -314c0 -168 -93 -292 -223 -328c106 -93 218 -125 300 -125c35 0 56 2 70 6v-19c-18 -9 -103 -31 -154 -31c-63 0 -133 17 -209 66c-34 22 -73 58 -106 92c-166 8 -268 144 -268 323c0 178 118 330 304 330zM342 605
c-127 0 -195 -125 -195 -290c0 -175 68 -295 189 -295c131 0 190 124 190 293c0 173 -57 292 -184 292z" />
    <glyph glyph-name="R" unicode="R" horiz-adv-x="612" 
d="M37 0v17l83 24v544l-83 24v17h256c145 0 210 -60 210 -150c0 -83 -68 -141 -120 -162l119 -197c47 -78 89 -97 115 -100v-17c-8 0 -32 -3 -70 -3c-65 0 -106 26 -144 99l-103 191l-85 8v-254l69 -24v-17h-247zM215 589v-270c120 3 188 31 188 154c0 92 -56 124 -131 124
c-14 0 -40 -2 -57 -8z" />
    <glyph glyph-name="S" unicode="S" horiz-adv-x="447" 
d="M375 506h-22c-18 78 -55 100 -113 100c-67 0 -104 -42 -104 -106c0 -58 31 -88 117 -131c112 -55 152 -109 152 -190c0 -106 -75 -193 -203 -193c-69 0 -109 17 -153 39v129h22c20 -103 58 -133 137 -133c61 0 112 41 112 115c0 60 -29 103 -122 149
c-90 43 -136 93 -136 184c0 93 63 171 185 171c52 0 96 -12 128 -27v-107z" />
    <glyph glyph-name="T" unicode="T" horiz-adv-x="562" 
d="M20 626h522v-136h-24c-23 85 -30 97 -96 97h-94v-546l93 -24v-17h-281v17l93 24v546h-94c-66 0 -73 -12 -96 -97h-23v136z" />
    <glyph glyph-name="U" unicode="U" horiz-adv-x="675" 
d="M29 626h255v-17l-79 -24v-318c0 -180 60 -230 161 -230c102 0 169 68 168 246l-1 302l-81 24v17h198v-17l-65 -24l-8 -327c-5 -171 -84 -272 -240 -272c-142 0 -225 67 -225 249v350l-83 24v17z" />
    <glyph glyph-name="V" unicode="V" horiz-adv-x="599" 
d="M13 626h239v-17l-72 -24l145 -433h2l143 433l-74 24v17h194v-17l-58 -24l-232 -599h-16l-202 599l-69 24v17z" />
    <glyph glyph-name="W" unicode="W" horiz-adv-x="810" 
d="M12 626h235v-17l-75 -24l91 -413h4l159 453h14l157 -452h4l88 412l-79 24v17h193v-17l-57 -24l-161 -599h-17l-157 467h-1l-172 -467h-16l-146 599l-64 24v17z" />
    <glyph glyph-name="X" unicode="X" horiz-adv-x="609" 
d="M29 626h244v-17l-61 -24l114 -197l117 197l-59 24v17h186v-17l-63 -24l-163 -228l191 -316l65 -24v-17h-251v17l76 24l-143 246l-142 -246l70 -24v-17h-194v17l61 24l186 277l-159 267l-75 24v17z" />
    <glyph glyph-name="Y" unicode="Y" horiz-adv-x="566" 
d="M13 626h223v-17l-66 -24l148 -267l131 267l-75 24v17h179v-17l-46 -24l-177 -308v-236l82 -24v-17h-258v17l84 24v232l-169 312l-56 24v17z" />
    <glyph glyph-name="Z" unicode="Z" horiz-adv-x="567" 
d="M66 626h445v-19l-359 -566h225c86 0 103 16 128 119h21v-160h-498v17l366 573l-166 -2c-102 -1 -114 -16 -141 -98h-21v136z" />
    <glyph glyph-name="bracketleft" unicode="[" horiz-adv-x="270" 
d="M78 -205v847h153v-17l-92 -24v-765l92 -24v-17h-153z" />
    <glyph glyph-name="backslash" unicode="\" horiz-adv-x="374" 
d="M83 641l264 -661h-56l-265 661h57z" />
    <glyph glyph-name="bracketright" unicode="]" horiz-adv-x="270" 
d="M39 642h153v-847h-153v17l92 24v765l-92 24v17z" />
    <glyph glyph-name="asciicircum" unicode="^" horiz-adv-x="608" 
d="M280 613h51l168 -381h-63l-131 306l-132 -306h-64z" />
    <glyph glyph-name="underscore" unicode="_" horiz-adv-x="492" 
d="M0 -125v50h492v-50h-492z" />
    <glyph glyph-name="grave" unicode="`" horiz-adv-x="355" 
d="M241 510l-101 132l63 29l53 -154z" />
    <glyph glyph-name="a" unicode="a" horiz-adv-x="458" 
d="M83 433c41 16 103 33 167 33c110 0 124 -61 124 -143v-272l73 -3v-17l-156 -45l2 78h-2c-27 -47 -77 -78 -133 -78c-75 0 -122 48 -122 121c0 115 116 147 255 163v55c0 67 -17 106 -73 106c-54 0 -92 -28 -112 -99h-23v101zM291 240c-107 -13 -169 -40 -169 -121
c0 -50 30 -77 75 -77c29 0 50 9 69 28c14 16 25 41 25 80v90z" />
    <glyph glyph-name="b" unicode="b" horiz-adv-x="501" 
d="M12 656l150 54v-355h1c26 52 69 111 148 111c94 0 151 -83 151 -215c0 -152 -77 -265 -205 -265c-49 0 -96 21 -129 51l-33 -49h-15v649l-68 2v17zM278 407c-60 0 -96 -54 -109 -117c-4 -15 -7 -63 -7 -100c0 -32 0 -74 5 -95c12 -55 54 -74 89 -74c74 0 117 83 117 214
c0 89 -30 172 -95 172z" />
    <glyph glyph-name="c" unicode="c" horiz-adv-x="434" 
d="M408 120l-24 -98c-29 -20 -82 -36 -138 -36c-130 0 -208 88 -208 240c0 130 76 240 219 240c61 0 103 -16 124 -27v-100h-26c-20 61 -45 94 -99 94c-82 0 -125 -81 -125 -199c0 -124 50 -212 131 -212c53 0 95 27 125 98h21z" />
    <glyph glyph-name="d" unicode="d" horiz-adv-x="500" 
d="M258 656l159 54v-658l74 -3v-17l-156 -46v88h-1c-25 -47 -76 -88 -140 -88c-97 0 -156 89 -156 223c0 147 80 257 204 257c41 0 74 -12 93 -26v197l-77 2v17zM128 225c0 -108 33 -180 104 -180c37 0 83 17 96 90c6 26 8 88 8 134c0 33 1 87 -7 111c-10 33 -40 53 -78 53
c-79 0 -123 -82 -123 -208z" />
    <glyph glyph-name="e" unicode="e" horiz-adv-x="452" 
d="M410 120l-28 -100c-31 -19 -77 -34 -140 -34c-127 0 -202 85 -202 233c0 137 77 247 205 247c132 0 163 -124 163 -213h-274c-1 -10 -1 -25 -1 -34c0 -120 54 -199 131 -199c52 0 92 27 123 100h23zM136 288h183c-1 65 -17 146 -83 146c-57 0 -89 -56 -100 -146z" />
    <glyph glyph-name="f" unicode="f" horiz-adv-x="312" 
d="M33 0v17l70 24v349h-71v18l71 30v31c0 121 45 229 180 229c32 0 70 -8 103 -22l-9 -97h-20c-12 56 -39 87 -86 87c-65 0 -86 -65 -86 -164v-61h121v-51h-121v-349l87 -24v-17h-239z" />
    <glyph glyph-name="g" unicode="g" horiz-adv-x="470" 
d="M234 466c32 0 65 -9 86 -18c22 -10 37 -17 40 -17c39 0 76 5 100 11v-53h-90c15 -20 23 -46 23 -73c0 -123 -108 -158 -185 -158l-69 -58c4 -18 20 -35 60 -35c38 0 94 1 127 1c68 0 112 -36 112 -102c0 -104 -95 -180 -230 -180c-144 0 -180 81 -181 147
c29 27 70 53 105 73v4c-16 8 -37 25 -48 42c-7 10 -15 29 -15 53c17 4 65 23 104 60c-41 10 -117 42 -117 143c0 92 68 160 178 160zM139 310c0 -68 26 -121 87 -121c62 0 84 65 84 121c0 62 -14 125 -83 125c-61 0 -88 -56 -88 -125zM166 -1c-42 -22 -65 -55 -65 -86
c0 -60 52 -95 118 -95c87 0 152 47 152 113c0 45 -27 63 -87 63c-55 0 -94 1 -118 5z" />
    <glyph glyph-name="h" unicode="h" horiz-adv-x="547" 
d="M31 0v17l69 24v596l-70 2v17l153 54v-346h2c20 33 80 102 161 102c78 0 115 -50 115 -140v-285l70 -24v-17h-215v17l62 24v257c0 61 -10 109 -68 109c-22 0 -59 -9 -95 -46c-19 -19 -32 -41 -32 -76v-244l62 -24v-17h-214z" />
    <glyph glyph-name="i" unicode="i" horiz-adv-x="273" 
d="M33 0v17l69 24v350l-72 2v18l155 55v-425l70 -24v-17h-222zM91 613c0 28 23 52 51 52s52 -24 52 -52s-24 -51 -52 -51s-51 23 -51 51z" />
    <glyph glyph-name="j" unicode="j" horiz-adv-x="268" 
d="M188 466v-446c0 -151 -47 -236 -160 -236c-41 0 -76 13 -89 24v92h20c10 -44 33 -87 76 -87c51 0 70 53 70 168v410l-74 2v18zM89 613c0 28 23 52 51 52s51 -24 51 -52s-23 -51 -51 -51s-51 23 -51 51z" />
    <glyph glyph-name="k" unicode="k" horiz-adv-x="509" 
d="M29 656l153 54v-476l164 177l-60 24v17h191v-17l-73 -24l-132 -127l188 -243l49 -24v-17h-196v17l52 22l-149 192l-34 -31v-159l61 -24v-17h-215v17l72 24v596l-71 2v17z" />
    <glyph glyph-name="l" unicode="l" horiz-adv-x="273" 
d="M28 0v17l71 24v596l-77 2v17l160 54v-669l70 -24v-17h-224z" />
    <glyph glyph-name="m" unicode="m" horiz-adv-x="815" 
d="M30 411l155 55l-1 -100h3c26 39 89 100 161 100c75 0 103 -57 105 -103h4c25 41 82 103 158 103c89 0 113 -62 113 -146v-279l70 -24v-17h-211v17l58 24v279c0 53 -13 87 -62 87c-29 0 -62 -10 -96 -45c-17 -17 -30 -38 -30 -71v-250l57 -24v-17h-198v17l58 24v275
c0 54 -10 91 -62 91c-25 0 -61 -11 -91 -40c-23 -22 -36 -45 -36 -83v-243l58 -24v-17h-209v17l68 24v350l-72 2v18z" />
    <glyph glyph-name="n" unicode="n" horiz-adv-x="549" 
d="M31 411l154 55v-101h2c22 34 80 101 161 101c83 0 114 -55 114 -145v-280l71 -24v-17h-214v17l60 24v274c0 50 -11 92 -68 92c-24 0 -61 -11 -94 -46c-18 -18 -32 -43 -32 -73v-247l60 -24v-17h-212v17l69 24v350l-71 2v18z" />
    <glyph glyph-name="o" unicode="o" horiz-adv-x="493" 
d="M236 -14c-119 0 -198 82 -198 228c0 136 71 252 222 252c121 0 195 -82 195 -218c0 -152 -79 -262 -219 -262zM131 223c0 -137 37 -205 114 -205s117 88 117 211c0 148 -40 205 -112 205c-86 0 -119 -92 -119 -211z" />
    <glyph glyph-name="p" unicode="p" horiz-adv-x="522" 
d="M35 -216v17l67 24v565l-79 3v18l162 55v-109h2c16 40 67 109 143 109c114 0 153 -106 153 -215c0 -150 -79 -264 -203 -264c-40 0 -78 13 -95 30v-192l84 -24v-17h-234zM184 139c0 -95 54 -119 88 -119c71 0 122 80 122 212c0 110 -34 176 -97 176
c-57 0 -97 -55 -106 -114c-6 -37 -7 -109 -7 -155z" />
    <glyph glyph-name="q" unicode="q" horiz-adv-x="499" 
d="M248 -216v17l87 24v238h-2c-31 -47 -86 -76 -134 -76c-99 0 -156 84 -156 217c0 149 76 262 211 262c44 0 76 -10 110 -27l40 27h14v-641l66 -24v-17h-236zM134 227c0 -118 38 -180 109 -180c35 0 80 21 89 77c4 23 4 109 4 145c0 29 2 78 -6 109c-10 43 -46 57 -78 57
c-80 0 -118 -87 -118 -208z" />
    <glyph glyph-name="r" unicode="r" horiz-adv-x="377" 
d="M34 0v17l69 24v350l-72 2v18l154 55v-111h2c22 52 60 111 126 111c23 0 41 -8 55 -19l-8 -100h-20c-13 36 -33 54 -60 54c-48 0 -95 -75 -95 -133v-227l86 -24v-17h-237z" />
    <glyph glyph-name="s" unicode="s" horiz-adv-x="366" 
d="M305 444v-86h-26c-12 65 -47 77 -87 77c-42 0 -73 -28 -73 -72c0 -45 21 -65 101 -95c67 -24 111 -62 111 -135c0 -84 -64 -147 -162 -147c-48 0 -88 11 -122 31v114h26c10 -77 38 -113 102 -113c56 0 85 36 85 80c0 42 -20 73 -91 100c-79 29 -114 67 -114 135
c0 77 55 133 149 133c46 0 76 -11 101 -22z" />
    <glyph glyph-name="t" unicode="t" horiz-adv-x="324" 
d="M327 80l-35 -66c-21 -19 -54 -28 -84 -28c-87 0 -119 60 -119 165v239h-70v17l80 36l48 139h24v-141h121v-51h-121v-212c0 -79 9 -131 67 -131c27 0 50 10 76 42z" />
    <glyph glyph-name="u" unicode="u" horiz-adv-x="532" 
d="M358 -14v100h-3c-29 -49 -87 -100 -156 -100c-82 0 -108 54 -108 151v267l-68 10v17l150 35v-308c0 -62 5 -114 69 -114c19 0 52 8 83 42c24 27 33 54 33 98v225l-63 24v17l146 11v-404l74 -1v-17z" />
    <glyph glyph-name="v" unicode="v" horiz-adv-x="457" 
d="M4 452h200v-17l-62 -22l108 -297l109 297l-61 22v17h158v-17l-49 -22l-180 -427h-14l-158 427l-51 22v17z" />
    <glyph glyph-name="w" unicode="w" horiz-adv-x="632" 
d="M12 452h195v-17l-63 -22l64 -293h2l128 331h11l121 -324h2l65 286l-63 22v17h158v-17l-46 -22l-131 -427h-15l-120 324l-137 -324h-16l-108 427l-47 22v17z" />
    <glyph glyph-name="x" unicode="x" horiz-adv-x="480" 
d="M15 0v17l46 24l139 180l-125 192l-52 22v17h202v-17l-55 -22l88 -136l97 136l-52 22v17h147v-17l-47 -22l-129 -160l139 -214l62 -22v-17h-217v17l58 22l-99 157l-105 -157l71 -22v-17h-168z" />
    <glyph glyph-name="y" unicode="y" horiz-adv-x="475" 
d="M420 413l-154 -422c-45 -121 -83 -207 -152 -207c-24 0 -44 6 -58 17v96h19c7 -33 32 -49 55 -49c34 0 75 56 99 153l-167 412l-50 22v17h209v-17l-69 -22l119 -310l97 310l-62 22v17h165v-17z" />
    <glyph glyph-name="z" unicode="z" horiz-adv-x="437" 
d="M31 0v17l266 396h-129c-46 0 -65 -8 -87 -87h-20v126h342v-19l-262 -392l142 -2c60 -1 75 12 99 108h21v-147h-372z" />
    <glyph glyph-name="braceleft" unicode="{" horiz-adv-x="306" 
d="M267 642v-22c-61 -15 -97 -67 -97 -115c0 -40 23 -98 23 -139c0 -94 -77 -131 -120 -148c43 -18 120 -57 120 -148c0 -41 -23 -99 -23 -139c0 -48 36 -100 97 -115v-22c-85 4 -163 63 -163 145c0 54 29 112 29 161c0 53 -51 92 -98 106v24c47 14 98 48 98 106
c0 49 -29 107 -29 161c0 82 78 141 163 145z" />
    <glyph glyph-name="bar" unicode="|" horiz-adv-x="333" 
d="M138 750h58v-1000h-58v1000z" />
    <glyph glyph-name="braceright" unicode="}" horiz-adv-x="306" 
d="M39 642c85 -4 163 -63 163 -145c0 -54 -28 -112 -28 -161c0 -58 51 -92 98 -106v-24c-47 -14 -98 -53 -98 -106c0 -49 28 -107 28 -161c0 -82 -78 -141 -163 -145v22c62 15 97 67 97 115c0 40 -23 98 -23 139c0 91 77 130 120 148c-43 17 -120 54 -120 148
c0 41 23 99 23 139c0 48 -36 100 -97 115v22z" />
    <glyph glyph-name="asciitilde" unicode="~" horiz-adv-x="618" 
d="M62 157c0 98 50 168 133 168c98 0 159 -113 227 -113c66 0 77 49 77 114h57c0 -83 -41 -168 -137 -168c-101 0 -155 108 -224 108c-62 0 -75 -43 -75 -109h-58z" />
    <glyph glyph-name="uni00A0" unicode="&#xa0;" horiz-adv-x="179" 
 />
    <glyph glyph-name="exclamdown" unicode="&#xa1;" horiz-adv-x="320" 
d="M150 272h21c12 -82 36 -297 36 -351v-41c0 -23 -6 -57 -47 -57c-40 0 -47 34 -47 57v41c0 52 24 269 37 351zM160 463c31 0 56 -26 56 -58c0 -31 -25 -57 -56 -57c-30 0 -55 26 -55 57c0 32 25 58 55 58z" />
    <glyph glyph-name="cent" unicode="&#xa2;" horiz-adv-x="486" 
d="M291 630l-4 -93c53 -2 84 -15 108 -27v-101h-28c-18 52 -39 87 -80 94l-1 -412c49 6 87 46 113 115h21l-23 -111c-25 -17 -67 -32 -111 -37l3 -95h-44l4 94c-126 5 -201 91 -201 240c0 125 71 229 202 239l-3 94h44zM141 305c0 -110 40 -193 108 -210l1 409
c-73 -11 -109 -89 -109 -199z" />
    <glyph glyph-name="sterling" unicode="&#xa3;" horiz-adv-x="486" 
d="M28 310v23l85 6c-2 34 -4 77 -4 101c0 118 67 191 181 191c47 0 83 -11 109 -26v-108h-21c-16 45 -36 105 -103 105c-44 0 -85 -34 -85 -133c0 -28 7 -89 12 -130l118 -6v-23l-115 -7c0 -10 1 -28 1 -38c0 -57 -46 -132 -103 -187l7 -7c39 26 76 34 101 34
c57 0 108 -36 142 -36c40 0 63 39 78 116h20v-145c-33 -38 -76 -54 -115 -54c-61 0 -120 41 -189 41c-50 0 -83 -22 -109 -61l-29 19c38 40 107 130 107 273c0 14 -1 33 -2 45z" />
    <glyph glyph-name="currency" unicode="&#xa4;" horiz-adv-x="486" 
d="M60 313c0 43 14 82 38 113l-65 66l34 33l65 -65c31 24 68 38 111 38s78 -14 110 -38l64 65l34 -34l-65 -65c25 -31 39 -70 39 -113c0 -42 -14 -81 -39 -112l66 -65l-35 -34l-64 65c-32 -24 -67 -39 -110 -39s-80 15 -111 39l-65 -65l-34 34l65 65c-24 31 -38 70 -38 112z
M108 313c0 -75 59 -139 135 -139c75 0 134 64 134 139c0 76 -59 139 -134 139c-76 0 -135 -63 -135 -139z" />
    <glyph glyph-name="yen" unicode="&#xa5;" horiz-adv-x="486" 
d="M-1 596v17h218v-17l-56 -24l105 -272l103 272l-74 24v17h187v-17l-63 -24l-117 -260h116v-35h-131l-11 -23v-59h142v-34h-142v-120l84 -24v-17h-256v17l87 24v120h-135v34h135v59l-8 23h-127v35h113l-104 260z" />
    <glyph glyph-name="brokenbar" unicode="&#xa6;" horiz-adv-x="333" 
d="M136 675h62v-350h-62v350zM136 175h62v-350h-62v350z" />
    <glyph glyph-name="section" unicode="&#xa7;" horiz-adv-x="486" 
d="M367 491h-21c-15 62 -39 99 -83 99c-30 0 -68 -26 -68 -84c0 -139 216 -196 216 -429c0 -137 -87 -283 -189 -283c-51 0 -83 17 -102 29v126h19c15 -62 30 -124 88 -124c32 0 65 32 65 78c0 150 -218 184 -218 431c0 96 72 288 198 288c53 0 73 -17 95 -27v-104zM116 367
c0 -208 230 -280 230 -434c16 28 25 62 25 101c0 199 -233 295 -230 446c-21 -30 -25 -81 -25 -113z" />
    <glyph glyph-name="dieresis" unicode="&#xa8;" horiz-adv-x="382" 
d="M102 560c-25 0 -46 20 -46 46c0 25 21 46 46 46s46 -21 46 -46c0 -26 -21 -46 -46 -46zM279 560c-25 0 -45 20 -45 46c0 25 20 46 45 46c26 0 47 -21 47 -46c0 -26 -21 -46 -47 -46z" />
    <glyph glyph-name="copyright" unicode="&#xa9;" horiz-adv-x="735" 
d="M368 -18c-166 0 -289 147 -289 328c0 182 123 327 289 327c164 0 290 -145 290 -327c0 -181 -126 -328 -290 -328zM129 310c0 -154 99 -283 239 -283c139 0 239 129 239 283c0 155 -100 281 -239 281c-140 0 -239 -126 -239 -281zM495 249l-8 -86
c-22 -12 -58 -26 -111 -26c-102 0 -156 72 -156 168c0 110 72 183 166 183c45 0 80 -13 99 -23v-79h-22c-8 41 -28 71 -76 71c-69 0 -101 -61 -101 -150c0 -78 30 -140 94 -140c59 0 82 36 94 82h21z" />
    <glyph glyph-name="ordfeminine" unicode="&#xaa;" horiz-adv-x="325" 
d="M70 567c30 10 72 23 118 23c76 0 82 -36 82 -91v-154l48 -3v-13l-114 -27v51h-2c-15 -23 -45 -51 -92 -51c-41 0 -70 25 -70 69c0 72 75 92 164 104v31c0 38 -10 59 -42 59c-39 0 -62 -27 -75 -63h-17v65zM204 454c-60 -8 -96 -24 -96 -70c0 -29 13 -40 35 -40
c12 0 28 2 42 17c13 12 19 28 19 54v39z" />
    <glyph glyph-name="guillemotleft" unicode="&#xab;" horiz-adv-x="415" 
d="M214 45l-167 181l167 180l17 -9l-109 -171l108 -172zM360 45l-171 181l171 180l16 -9l-108 -171l108 -172z" />
    <glyph glyph-name="logicalnot" unicode="&#xac;" horiz-adv-x="618" 
d="M74 338h471v-218h-59v162h-412v56z" />
    <glyph glyph-name="uni00AD" unicode="&#xad;" horiz-adv-x="323" 
d="M42 207v68h240v-68h-240z" />
    <glyph glyph-name="registered" unicode="&#xae;" horiz-adv-x="408" 
d="M133 460v13l22 6v125l-22 6v13h84c43 0 61 -16 61 -40s-23 -36 -35 -43l25 -46c10 -18 18 -19 25 -19v-15c-29 0 -43 6 -56 24l-26 47h-23v-52l19 -6v-13h-74zM188 605v-58c29 0 55 5 55 30c0 23 -25 30 -36 30c-12 0 -16 0 -19 -2zM67 536c0 -77 60 -139 137 -139
c76 0 138 62 138 139c0 75 -62 138 -138 138c-77 0 -137 -63 -137 -138zM35 536c0 90 78 165 169 165c90 0 169 -75 169 -165s-79 -165 -169 -165c-91 0 -169 75 -169 165z" />
    <glyph glyph-name="macron" unicode="&#xaf;" horiz-adv-x="375" 
d="M74 571v52h228v-52h-228z" />
    <glyph glyph-name="degree" unicode="&#xb0;" horiz-adv-x="359" 
d="M180 597c77 0 135 -52 135 -131c0 -73 -63 -131 -135 -131c-79 0 -136 52 -136 131c0 73 63 131 136 131zM180 562c-45 0 -80 -38 -80 -96s35 -96 80 -96c44 0 80 38 80 96s-36 96 -80 96z" />
    <glyph glyph-name="plusminus" unicode="&#xb1;" horiz-adv-x="618" 
d="M280 472h58v-153h198v-54h-198v-153h-58v153h-198v54h198v153zM74 -1v57h470v-57h-470z" />
    <glyph glyph-name="twosuperior" unicode="&#xb2;" 
d="M20 440v14c43 49 160 161 160 239c0 40 -22 62 -55 62c-36 0 -60 -34 -71 -70h-16v74c26 9 69 20 108 20c63 0 105 -24 105 -80c0 -81 -96 -125 -161 -201v-3h141l18 48h13v-103h-242z" />
    <glyph glyph-name="threesuperior" unicode="&#xb3;" 
d="M44 700v62c25 8 60 17 103 17c62 0 99 -24 99 -66c0 -48 -44 -73 -81 -85v-2c43 -3 95 -22 95 -83c0 -65 -56 -111 -136 -111c-43 0 -75 9 -97 21v63h19c10 -31 34 -61 73 -61c37 0 69 25 69 75c0 41 -24 71 -69 71c-7 0 -15 -1 -21 -2l-4 18c37 7 80 25 80 82
c0 41 -24 58 -48 58c-36 0 -54 -30 -63 -57h-19z" />
    <glyph glyph-name="acute" unicode="&#xb4;" horiz-adv-x="355" 
d="M101 508l-15 9l74 154l59 -33z" />
    <glyph glyph-name="mu" unicode="&#xb5;" horiz-adv-x="541" 
d="M23 414v17l152 35v-296c0 -67 6 -125 68 -125c20 0 60 14 87 47c24 28 35 58 35 103v209l-66 10v17l149 35v-409l72 -1v-17l-155 -53v112h-3c-28 -48 -92 -112 -165 -112c-35 0 -60 22 -76 45c0 -32 3 -79 10 -110c9 -40 22 -73 46 -106l-71 -31c-11 17 -20 54 -20 111
c0 80 6 192 6 281v228z" />
    <glyph glyph-name="paragraph" unicode="&#xb6;" horiz-adv-x="494" 
d="M441 588v-37h-52v-767h-37v767h-57v-767h-38v337c-89 12 -205 65 -205 227c0 174 138 240 280 240h109z" />
    <glyph glyph-name="periodcentered" unicode="&#xb7;" horiz-adv-x="258" 
d="M129 190c-34 0 -61 27 -61 60c0 34 27 61 61 61c33 0 60 -27 60 -61c0 -33 -27 -60 -60 -60z" />
    <glyph glyph-name="cedilla" unicode="&#xb8;" horiz-adv-x="375" 
d="M184 5h23l-22 -60h14c48 0 97 -12 97 -62c0 -59 -65 -75 -123 -75c-12 0 -34 2 -50 4v20c7 -1 20 -2 26 -2c46 0 77 14 77 50c0 24 -24 45 -80 45z" />
    <glyph glyph-name="onesuperior" unicode="&#xb9;" 
d="M48 440v14l69 20v255l-82 7v15l149 30v-307l68 -20v-14h-204z" />
    <glyph glyph-name="ordmasculine" unicode="&#xba;" horiz-adv-x="346" 
d="M175 302c-84 0 -134 47 -134 137c0 81 46 151 150 151c83 0 130 -47 130 -131c0 -93 -52 -157 -146 -157zM115 444c0 -82 22 -119 66 -119s66 50 66 122c0 89 -22 119 -64 119c-50 0 -68 -51 -68 -122z" />
    <glyph glyph-name="guillemotright" unicode="&#xbb;" horiz-adv-x="414" 
d="M38 397l17 9l166 -180l-166 -181l-16 9l107 172zM184 397l16 9l167 -180l-166 -181l-16 9l107 172z" />
    <glyph glyph-name="onequarter" unicode="&#xbc;" horiz-adv-x="635" 
d="M48 278v14l69 20v255l-82 7v15l149 30v-307l68 -20v-14h-204zM160 -21l330 654h45l-329 -654h-46zM446 0v14l54 16v66h-146v18l163 219h46v-200h48v-37h-48v-66l45 -16v-14h-162zM499 276l-99 -143h100v143h-1z" />
    <glyph glyph-name="onehalf" unicode="&#xbd;" horiz-adv-x="703" 
d="M48 278v14l69 20v255l-82 7v15l149 30v-307l68 -20v-14h-204zM160 -21l330 654h45l-329 -654h-46zM426 0v14c43 49 160 161 160 239c0 40 -22 62 -55 62c-36 0 -60 -34 -71 -70h-16v74c26 9 69 20 108 20c63 0 105 -24 105 -80c0 -81 -96 -125 -161 -201v-3h141l18 48h13
v-103h-242z" />
    <glyph glyph-name="threequarters" unicode="&#xbe;" horiz-adv-x="635" 
d="M44 528v62c25 8 60 17 103 17c62 0 99 -24 99 -66c0 -48 -44 -73 -81 -85v-2c43 -3 95 -22 95 -83c0 -65 -56 -111 -136 -111c-43 0 -75 9 -97 21v63h19c10 -31 34 -61 73 -61c37 0 69 25 69 75c0 41 -24 71 -69 71c-7 0 -15 -1 -21 -2l-4 18c37 7 80 25 80 82
c0 41 -24 58 -48 58c-36 0 -54 -30 -63 -57h-19zM160 -21l330 654h45l-329 -654h-46zM446 0v14l54 16v66h-146v18l163 219h46v-200h48v-37h-48v-66l45 -16v-14h-162zM499 276l-99 -143h100v143h-1z" />
    <glyph glyph-name="questiondown" unicode="&#xbf;" horiz-adv-x="427" 
d="M270 268v-115c-45 -26 -132 -82 -132 -186c0 -58 30 -113 85 -113c79 0 101 81 113 130h22v-122c-38 -17 -94 -39 -161 -39c-90 0 -148 54 -148 134c0 107 97 135 142 178c41 37 47 99 59 133h20zM251 463c32 0 57 -26 57 -57s-25 -57 -57 -57c-31 0 -56 26 -56 57
s25 57 56 57z" />
    <glyph glyph-name="Agrave" unicode="&#xc0;" horiz-adv-x="625" 
d="M74 41l235 598h21l222 -598l61 -24v-17h-240v17l80 24l-58 161h-213l-55 -161l72 -24v-17h-186v17zM285 493l-88 -243h182l-93 243h-1zM325 682l-153 74l62 48l104 -109z" />
    <glyph glyph-name="Aacute" unicode="&#xc1;" horiz-adv-x="625" 
d="M74 41l235 598h21l222 -598l61 -24v-17h-240v17l80 24l-58 161h-213l-55 -161l72 -24v-17h-186v17zM285 493l-88 -243h182l-93 243h-1zM314 683l-15 12l129 109l57 -50z" />
    <glyph glyph-name="Acircumflex" unicode="&#xc2;" horiz-adv-x="625" 
d="M74 41l235 598h21l222 -598l61 -24v-17h-240v17l80 24l-58 161h-213l-55 -161l72 -24v-17h-186v17zM285 493l-88 -243h182l-93 243h-1zM309 796h25l95 -117l-15 -5l-93 49l-93 -49l-16 5z" />
    <glyph glyph-name="Atilde" unicode="&#xc3;" horiz-adv-x="625" 
d="M74 41l235 598h21l222 -598l61 -24v-17h-240v17l80 24l-58 161h-213l-55 -161l72 -24v-17h-186v17zM285 493l-88 -243h182l-93 243h-1zM207 688l-16 9c18 43 43 86 86 86c39 0 67 -35 97 -35c24 0 38 5 63 41l13 -10c-14 -35 -41 -85 -85 -85c-42 0 -67 34 -96 34
c-25 0 -40 -9 -62 -40z" />
    <glyph glyph-name="Adieresis" unicode="&#xc4;" horiz-adv-x="625" 
d="M74 41l235 598h21l222 -598l61 -24v-17h-240v17l80 24l-58 161h-213l-55 -161l72 -24v-17h-186v17zM285 493l-88 -243h182l-93 243h-1zM217 696c-26 0 -48 22 -48 48c0 27 22 48 48 48s47 -21 47 -48c0 -26 -21 -48 -47 -48zM417 696c-26 0 -47 22 -47 48
c0 27 21 48 47 48c27 0 48 -21 48 -48c0 -26 -21 -48 -48 -48z" />
    <glyph glyph-name="Aring" unicode="&#xc5;" horiz-adv-x="625" 
d="M74 41l235 598h21l222 -598l61 -24v-17h-240v17l80 24l-58 161h-213l-55 -161l72 -24v-17h-186v17zM285 493l-88 -243h182l-93 243h-1zM316 672c-48 0 -85 37 -85 85s37 85 85 85s86 -37 86 -85s-38 -85 -86 -85zM270 757c0 -27 20 -46 46 -46c27 0 47 19 47 46
s-20 46 -47 46c-26 0 -46 -19 -46 -46z" />
    <glyph glyph-name="AE" unicode="&#xc6;" horiz-adv-x="821" 
d="M281 626h462v-137h-21c-25 89 -34 98 -106 98h-135v-243l146 5l22 81h19v-208h-19l-22 83l-146 4v-266h152c79 0 98 3 122 118h21v-161h-469v17l81 24v223h-166l-115 -223l85 -24v-17h-210v17l70 24l306 546l-77 22v17zM242 303h146v277h-2z" />
    <glyph glyph-name="Ccedilla" unicode="&#xc7;" horiz-adv-x="579" 
d="M535 160l-13 -130c-42 -20 -104 -44 -192 -44h-6l-13 -41h15c44 0 88 -12 88 -62c0 -60 -60 -76 -114 -76c-12 0 -32 3 -47 5v20c7 -1 19 -2 25 -2c41 0 66 14 66 50c0 25 -20 44 -69 44l26 63c-178 14 -258 159 -258 319c0 193 122 334 304 334c70 0 138 -16 170 -32
v-120h-22c-20 71 -65 118 -150 117c-124 0 -196 -117 -196 -300c0 -160 72 -284 186 -284c112 0 152 58 178 139h22z" />
    <glyph glyph-name="Egrave" unicode="&#xc8;" horiz-adv-x="552" 
d="M38 0v17l82 24v544l-83 24v17h436v-136h-22c-27 80 -39 97 -106 97h-130v-240l147 4l23 75h19v-192h-19l-23 74l-147 4v-269h146c79 0 94 1 123 117h22v-160h-468zM326 682l-153 74l62 48l104 -109z" />
    <glyph glyph-name="Eacute" unicode="&#xc9;" horiz-adv-x="552" 
d="M38 0v17l82 24v544l-83 24v17h436v-136h-22c-27 80 -39 97 -106 97h-130v-240l147 4l23 75h19v-192h-19l-23 74l-147 4v-269h146c79 0 94 1 123 117h22v-160h-468zM273 683l-15 12l129 109l57 -50z" />
    <glyph glyph-name="Ecircumflex" unicode="&#xca;" horiz-adv-x="552" 
d="M38 0v17l82 24v544l-83 24v17h436v-136h-22c-27 80 -39 97 -106 97h-130v-240l147 4l23 75h19v-192h-19l-23 74l-147 4v-269h146c79 0 94 1 123 117h22v-160h-468zM293 796h25l95 -117l-15 -5l-93 49l-93 -49l-16 5z" />
    <glyph glyph-name="Edieresis" unicode="&#xcb;" horiz-adv-x="552" 
d="M38 0v17l82 24v544l-83 24v17h436v-136h-22c-27 80 -39 97 -106 97h-130v-240l147 4l23 75h19v-192h-19l-23 74l-147 4v-269h146c79 0 94 1 123 117h22v-160h-468zM196 696c-26 0 -48 22 -48 48c0 27 22 48 48 48s47 -21 47 -48c0 -26 -21 -48 -47 -48zM396 696
c-26 0 -47 22 -47 48c0 27 21 48 47 48c27 0 48 -21 48 -48c0 -26 -21 -48 -48 -48z" />
    <glyph glyph-name="Igrave" unicode="&#xcc;" horiz-adv-x="335" 
d="M37 0v17l83 24v544l-83 24v17h262v-17l-84 -24v-544l84 -24v-17h-262zM199 682l-153 74l62 48l104 -109z" />
    <glyph glyph-name="Iacute" unicode="&#xcd;" horiz-adv-x="335" 
d="M37 0v17l83 24v544l-83 24v17h262v-17l-84 -24v-544l84 -24v-17h-262zM147 683l-15 12l129 109l57 -50z" />
    <glyph glyph-name="Icircumflex" unicode="&#xce;" horiz-adv-x="335" 
d="M37 0v17l83 24v544l-83 24v17h262v-17l-84 -24v-544l84 -24v-17h-262zM158 796h25l95 -117l-15 -5l-93 49l-93 -49l-16 5z" />
    <glyph glyph-name="Idieresis" unicode="&#xcf;" horiz-adv-x="335" 
d="M37 0v17l83 24v544l-83 24v17h262v-17l-84 -24v-544l84 -24v-17h-262zM66 696c-26 0 -48 22 -48 48c0 27 22 48 48 48s47 -21 47 -48c0 -26 -21 -48 -47 -48zM266 696c-26 0 -47 22 -47 48c0 27 21 48 47 48c27 0 48 -21 48 -48c0 -26 -21 -48 -48 -48z" />
    <glyph glyph-name="Eth" unicode="&#xd0;" horiz-adv-x="662" 
d="M38 0v17l82 24v271h-82v41h82v232l-83 24v17h259c177 0 323 -63 323 -293c0 -223 -140 -333 -336 -333h-245zM215 589v-236h119v-41h-119v-271c24 -4 48 -8 71 -8c156 0 229 113 229 295c0 165 -60 267 -221 267c-19 0 -60 -4 -79 -6z" />
    <glyph glyph-name="Ntilde" unicode="&#xd1;" horiz-adv-x="688" 
d="M30 626h163l348 -469l2 2l-10 426l-86 24v17h205v-17l-62 -24l-16 -598h-24l-395 541l-2 -2l11 -485l87 -24v-17h-216v17l74 24l10 537l-89 31v17zM254 688l-16 9c18 43 43 86 86 86c39 0 67 -35 97 -35c24 0 38 5 63 41l13 -10c-14 -35 -41 -85 -85 -85
c-42 0 -67 34 -96 34c-25 0 -40 -9 -62 -40z" />
    <glyph glyph-name="Ograve" unicode="&#xd2;" horiz-adv-x="674" 
d="M327 -14c-176 0 -285 140 -285 324c0 178 118 330 305 330c173 0 286 -129 286 -314c0 -201 -134 -340 -306 -340zM342 605c-127 0 -195 -125 -195 -290c0 -175 69 -294 188 -294c131 0 192 123 192 292c0 173 -58 292 -185 292zM358 682l-153 74l62 48l104 -109z" />
    <glyph glyph-name="Oacute" unicode="&#xd3;" horiz-adv-x="674" 
d="M327 -14c-176 0 -285 140 -285 324c0 178 118 330 305 330c173 0 286 -129 286 -314c0 -201 -134 -340 -306 -340zM342 605c-127 0 -195 -125 -195 -290c0 -175 69 -294 188 -294c131 0 192 123 192 292c0 173 -58 292 -185 292zM334 683l-15 12l129 109l57 -50z" />
    <glyph glyph-name="Ocircumflex" unicode="&#xd4;" horiz-adv-x="674" 
d="M327 -14c-176 0 -285 140 -285 324c0 178 118 330 305 330c173 0 286 -129 286 -314c0 -201 -134 -340 -306 -340zM342 605c-127 0 -195 -125 -195 -290c0 -175 69 -294 188 -294c131 0 192 123 192 292c0 173 -58 292 -185 292zM335 796h25l95 -117l-15 -5l-93 49
l-93 -49l-16 5z" />
    <glyph glyph-name="Otilde" unicode="&#xd5;" horiz-adv-x="674" 
d="M327 -14c-176 0 -285 140 -285 324c0 178 118 330 305 330c173 0 286 -129 286 -314c0 -201 -134 -340 -306 -340zM342 605c-127 0 -195 -125 -195 -290c0 -175 69 -294 188 -294c131 0 192 123 192 292c0 173 -58 292 -185 292zM235 688l-16 9c18 43 43 86 86 86
c39 0 67 -35 97 -35c24 0 38 5 63 41l13 -10c-14 -35 -41 -85 -85 -85c-42 0 -67 34 -96 34c-25 0 -40 -9 -62 -40z" />
    <glyph glyph-name="Odieresis" unicode="&#xd6;" horiz-adv-x="674" 
d="M327 -14c-176 0 -285 140 -285 324c0 178 118 330 305 330c173 0 286 -129 286 -314c0 -201 -134 -340 -306 -340zM342 605c-127 0 -195 -125 -195 -290c0 -175 69 -294 188 -294c131 0 192 123 192 292c0 173 -58 292 -185 292zM234 696c-26 0 -48 22 -48 48
c0 27 22 48 48 48s47 -21 47 -48c0 -26 -21 -48 -47 -48zM434 696c-26 0 -47 22 -47 48c0 27 21 48 47 48c27 0 48 -21 48 -48c0 -26 -21 -48 -48 -48z" />
    <glyph glyph-name="multiply" unicode="&#xd7;" horiz-adv-x="618" 
d="M132 450l176 -177l178 178l38 -38l-178 -178l178 -178l-38 -38l-178 178l-176 -177l-38 38l176 177l-176 177z" />
    <glyph glyph-name="Oslash" unicode="&#xd8;" horiz-adv-x="674" 
d="M327 -14c-59 0 -110 16 -153 43l-59 -86l-30 19l61 89c-67 58 -104 151 -104 259c0 178 118 330 305 330c66 0 123 -19 169 -53l56 82l31 -19l-59 -86c56 -56 89 -139 89 -238c0 -201 -134 -340 -306 -340zM342 605c-127 0 -195 -125 -195 -290c0 -81 14 -150 42 -201
l288 417c-30 47 -75 74 -135 74zM527 313c0 71 -10 134 -31 182l-285 -413c31 -39 73 -61 124 -61c131 0 192 123 192 292z" />
    <glyph glyph-name="Ugrave" unicode="&#xd9;" horiz-adv-x="675" 
d="M29 626h255v-17l-79 -24v-318c0 -180 60 -230 161 -230c102 0 169 68 168 246l-1 302l-81 24v17h198v-17l-65 -24l-8 -327c-5 -171 -84 -272 -240 -272c-142 0 -225 67 -225 249v350l-83 24v17zM383 682l-153 74l62 48l104 -109z" />
    <glyph glyph-name="Uacute" unicode="&#xda;" horiz-adv-x="675" 
d="M29 626h255v-17l-79 -24v-318c0 -180 60 -230 161 -230c102 0 169 68 168 246l-1 302l-81 24v17h198v-17l-65 -24l-8 -327c-5 -171 -84 -272 -240 -272c-142 0 -225 67 -225 249v350l-83 24v17zM382 683l-15 12l129 109l57 -50z" />
    <glyph glyph-name="Ucircumflex" unicode="&#xdb;" horiz-adv-x="675" 
d="M29 626h255v-17l-79 -24v-318c0 -180 60 -230 161 -230c102 0 169 68 168 246l-1 302l-81 24v17h198v-17l-65 -24l-8 -327c-5 -171 -84 -272 -240 -272c-142 0 -225 67 -225 249v350l-83 24v17zM362 796h25l95 -117l-15 -5l-93 49l-93 -49l-16 5z" />
    <glyph glyph-name="Udieresis" unicode="&#xdc;" horiz-adv-x="675" 
d="M29 626h255v-17l-79 -24v-318c0 -180 60 -230 161 -230c102 0 169 68 168 246l-1 302l-81 24v17h198v-17l-65 -24l-8 -327c-5 -171 -84 -272 -240 -272c-142 0 -225 67 -225 249v350l-83 24v17zM282 696c-26 0 -48 22 -48 48c0 27 22 48 48 48s47 -21 47 -48
c0 -26 -21 -48 -47 -48zM482 696c-26 0 -47 22 -47 48c0 27 21 48 47 48c27 0 48 -21 48 -48c0 -26 -21 -48 -48 -48z" />
    <glyph glyph-name="Yacute" unicode="&#xdd;" horiz-adv-x="566" 
d="M13 626h223v-17l-66 -24l148 -267l131 267l-75 24v17h179v-17l-46 -24l-177 -308v-236l82 -24v-17h-258v17l84 24v232l-169 312l-56 24v17zM315 683l-15 12l129 109l57 -50z" />
    <glyph glyph-name="Thorn" unicode="&#xde;" horiz-adv-x="540" 
d="M42 626h252v-17l-79 -24v-97c29 2 52 6 98 6c98 0 194 -26 194 -148c0 -112 -80 -171 -199 -171c-22 0 -70 4 -93 11v-145l90 -24v-17h-263v17l78 24v544l-78 24v17zM215 457v-243c10 -2 23 -7 63 -7c66 0 130 29 130 134c0 74 -41 123 -125 124c-31 0 -51 -4 -68 -8z
" />
    <glyph glyph-name="germandbls" unicode="&#xdf;" horiz-adv-x="536" 
d="M44 0v17l70 24v354h-70v17l70 24v35c0 122 65 227 200 227c89 0 147 -60 147 -118c0 -30 -4 -58 -49 -107c-40 -44 -58 -63 -58 -96c0 -23 20 -53 72 -97c55 -46 83 -81 83 -142c0 -81 -59 -152 -155 -152c-32 0 -40 5 -74 15l-17 98h21c13 -50 40 -80 80 -80
c43 0 70 31 70 81c0 43 -21 73 -65 114c-64 61 -77 89 -77 124c0 67 100 116 100 223c0 61 -36 104 -90 104c-62 0 -106 -49 -106 -171v-494h-152z" />
    <glyph glyph-name="agrave" unicode="&#xe0;" horiz-adv-x="458" 
d="M83 433c41 16 103 33 167 33c110 0 124 -61 124 -143v-272l73 -3v-17l-156 -45l2 78h-2c-27 -47 -77 -78 -133 -78c-75 0 -122 48 -122 121c0 115 116 147 255 163v55c0 67 -17 106 -73 106c-54 0 -92 -28 -112 -99h-23v101zM291 240c-107 -13 -169 -40 -169 -121
c0 -50 30 -77 75 -77c29 0 50 9 69 28c14 16 25 41 25 80v90zM234 510l-101 132l63 29l53 -154z" />
    <glyph glyph-name="aacute" unicode="&#xe1;" horiz-adv-x="458" 
d="M83 433c41 16 103 33 167 33c110 0 124 -61 124 -143v-272l73 -3v-17l-156 -45l2 78h-2c-27 -47 -77 -78 -133 -78c-75 0 -122 48 -122 121c0 115 116 147 255 163v55c0 67 -17 106 -73 106c-54 0 -92 -28 -112 -99h-23v101zM291 240c-107 -13 -169 -40 -169 -121
c0 -50 30 -77 75 -77c29 0 50 9 69 28c14 16 25 41 25 80v90zM224 508l-15 9l74 154l59 -33z" />
    <glyph glyph-name="acircumflex" unicode="&#xe2;" horiz-adv-x="458" 
d="M83 433c41 16 103 33 167 33c110 0 124 -61 124 -143v-272l73 -3v-17l-156 -45l2 78h-2c-27 -47 -77 -78 -133 -78c-75 0 -122 48 -122 121c0 115 116 147 255 163v55c0 67 -17 106 -73 106c-54 0 -92 -28 -112 -99h-23v101zM291 240c-107 -13 -169 -40 -169 -121
c0 -50 30 -77 75 -77c29 0 50 9 69 28c14 16 25 41 25 80v90zM232 670h25l86 -159l-15 -5l-84 94l-84 -94l-15 5z" />
    <glyph glyph-name="atilde" unicode="&#xe3;" horiz-adv-x="458" 
d="M83 433c41 16 103 33 167 33c110 0 124 -61 124 -143v-272l73 -3v-17l-156 -45l2 78h-2c-27 -47 -77 -78 -133 -78c-75 0 -122 48 -122 121c0 115 116 147 255 163v55c0 67 -17 106 -73 106c-54 0 -92 -28 -112 -99h-23v101zM291 240c-107 -13 -169 -40 -169 -121
c0 -50 30 -77 75 -77c29 0 50 9 69 28c14 16 25 41 25 80v90zM126 540l-16 10c14 36 44 82 84 82c32 0 59 -28 94 -28c18 0 32 2 55 38l15 -10c-15 -37 -44 -82 -83 -82c-31 0 -64 28 -96 28c-18 0 -32 -6 -53 -38z" />
    <glyph glyph-name="adieresis" unicode="&#xe4;" horiz-adv-x="458" 
d="M83 433c41 16 103 33 167 33c110 0 124 -61 124 -143v-272l73 -3v-17l-156 -45l2 78h-2c-27 -47 -77 -78 -133 -78c-75 0 -122 48 -122 121c0 115 116 147 255 163v55c0 67 -17 106 -73 106c-54 0 -92 -28 -112 -99h-23v101zM291 240c-107 -13 -169 -40 -169 -121
c0 -50 30 -77 75 -77c29 0 50 9 69 28c14 16 25 41 25 80v90zM142 560c-25 0 -46 20 -46 46c0 25 21 46 46 46s46 -21 46 -46c0 -26 -21 -46 -46 -46zM319 560c-25 0 -45 20 -45 46c0 25 20 46 45 46c26 0 47 -21 47 -46c0 -26 -21 -46 -47 -46z" />
    <glyph glyph-name="aring" unicode="&#xe5;" horiz-adv-x="458" 
d="M83 433c41 16 103 33 167 33c110 0 124 -61 124 -143v-272l73 -3v-17l-156 -45l2 78h-2c-27 -47 -77 -78 -133 -78c-75 0 -122 48 -122 121c0 115 116 147 255 163v55c0 67 -17 106 -73 106c-54 0 -92 -28 -112 -99h-23v101zM291 240c-107 -13 -169 -40 -169 -121
c0 -50 30 -77 75 -77c29 0 50 9 69 28c14 16 25 41 25 80v90zM237 520c-50 0 -87 36 -87 86s37 87 87 87c51 0 87 -37 87 -87s-36 -86 -87 -86zM187 606c0 -28 22 -50 50 -50s51 22 51 50s-23 50 -51 50s-50 -22 -50 -50z" />
    <glyph glyph-name="ae" unicode="&#xe6;" horiz-adv-x="684" 
d="M87 431c37 18 95 35 154 35c62 0 91 -27 105 -65c37 41 85 65 139 65c141 0 155 -144 157 -214h-274c0 -10 -1 -24 -1 -33c0 -118 41 -202 123 -202c74 0 113 58 137 123h21l-23 -110c-40 -24 -78 -44 -148 -44c-92 0 -149 36 -177 108c-26 -52 -78 -108 -152 -108
c-66 0 -112 40 -112 113c0 129 136 147 251 171v57c0 66 -22 106 -74 106c-56 0 -89 -38 -105 -104h-21v102zM287 240c-107 -15 -169 -45 -169 -125c0 -47 22 -79 66 -79c50 0 103 54 103 135v69zM370 285l183 2c1 48 -7 149 -79 149c-54 0 -100 -56 -104 -151z" />
    <glyph glyph-name="ccedilla" unicode="&#xe7;" horiz-adv-x="434" 
d="M408 120l-24 -98c-28 -19 -77 -34 -130 -36l-15 -41h14c48 0 97 -12 97 -62c0 -59 -65 -75 -123 -75c-12 0 -34 2 -50 4v20c7 -1 20 -2 26 -2c46 0 77 14 77 50c0 24 -24 45 -80 45l29 62c-120 7 -191 94 -191 239c0 130 76 240 219 240c61 0 103 -16 124 -27v-100h-26
c-20 61 -45 94 -99 94c-82 0 -125 -81 -125 -199c0 -124 50 -212 131 -212c53 0 95 27 125 98h21z" />
    <glyph glyph-name="egrave" unicode="&#xe8;" horiz-adv-x="452" 
d="M410 120l-28 -100c-31 -19 -77 -34 -140 -34c-127 0 -202 85 -202 233c0 137 77 247 205 247c132 0 163 -124 163 -213h-274c-1 -10 -1 -25 -1 -34c0 -120 54 -199 131 -199c52 0 92 27 123 100h23zM136 288h183c-1 65 -17 146 -83 146c-57 0 -89 -56 -100 -146zM253 510
l-101 132l63 29l53 -154z" />
    <glyph glyph-name="eacute" unicode="&#xe9;" horiz-adv-x="452" 
d="M410 120l-28 -100c-31 -19 -77 -34 -140 -34c-127 0 -202 85 -202 233c0 137 77 247 205 247c132 0 163 -124 163 -213h-274c-1 -10 -1 -25 -1 -34c0 -120 54 -199 131 -199c52 0 92 27 123 100h23zM136 288h183c-1 65 -17 146 -83 146c-57 0 -89 -56 -100 -146zM228 508
l-15 9l74 154l59 -33z" />
    <glyph glyph-name="ecircumflex" unicode="&#xea;" horiz-adv-x="452" 
d="M410 120l-28 -100c-31 -19 -77 -34 -140 -34c-127 0 -202 85 -202 233c0 137 77 247 205 247c132 0 163 -124 163 -213h-274c-1 -10 -1 -25 -1 -34c0 -120 54 -199 131 -199c52 0 92 27 123 100h23zM136 288h183c-1 65 -17 146 -83 146c-57 0 -89 -56 -100 -146zM225 670
h25l86 -159l-15 -5l-84 94l-84 -94l-15 5z" />
    <glyph glyph-name="edieresis" unicode="&#xeb;" horiz-adv-x="452" 
d="M410 120l-28 -100c-31 -19 -77 -34 -140 -34c-127 0 -202 85 -202 233c0 137 77 247 205 247c132 0 163 -124 163 -213h-274c-1 -10 -1 -25 -1 -34c0 -120 54 -199 131 -199c52 0 92 27 123 100h23zM136 288h183c-1 65 -17 146 -83 146c-57 0 -89 -56 -100 -146zM150 560
c-25 0 -46 20 -46 46c0 25 21 46 46 46s46 -21 46 -46c0 -26 -21 -46 -46 -46zM327 560c-25 0 -45 20 -45 46c0 25 20 46 45 46c26 0 47 -21 47 -46c0 -26 -21 -46 -47 -46z" />
    <glyph glyph-name="igrave" unicode="&#xec;" horiz-adv-x="273" 
d="M33 0v17l69 24v350l-72 2v18l155 55v-425l70 -24v-17h-222zM157 510l-101 132l63 29l53 -154z" />
    <glyph glyph-name="iacute" unicode="&#xed;" horiz-adv-x="273" 
d="M33 0v17l69 24v350l-72 2v18l155 55v-425l70 -24v-17h-222zM119 508l-15 9l74 154l59 -33z" />
    <glyph glyph-name="icircumflex" unicode="&#xee;" horiz-adv-x="273" 
d="M33 0v17l69 24v350l-72 2v18l155 55v-425l70 -24v-17h-222zM132 670h25l86 -159l-15 -5l-84 94l-84 -94l-15 5z" />
    <glyph glyph-name="idieresis" unicode="&#xef;" horiz-adv-x="273" 
d="M33 0v17l69 24v350l-72 2v18l155 55v-425l70 -24v-17h-222zM54 560c-25 0 -46 20 -46 46c0 25 21 46 46 46s46 -21 46 -46c0 -26 -21 -46 -46 -46zM231 560c-25 0 -45 20 -45 46c0 25 20 46 45 46c26 0 47 -21 47 -46c0 -26 -21 -46 -47 -46z" />
    <glyph glyph-name="eth" unicode="&#xf0;" horiz-adv-x="496" 
d="M110 688l41 22c31 -5 93 -34 128 -61l101 55l26 -26l-95 -55c80 -70 147 -190 147 -355c0 -164 -84 -282 -223 -282c-118 0 -198 83 -198 231c0 145 81 248 214 248c38 0 77 -19 101 -46l3 2c-18 75 -69 149 -99 172l-102 -60l-27 27l99 58c-33 27 -82 60 -116 70z
M252 433c-83 0 -121 -108 -121 -210c0 -124 37 -206 113 -206c84 0 122 109 122 212c0 125 -37 204 -114 204z" />
    <glyph glyph-name="ntilde" unicode="&#xf1;" horiz-adv-x="549" 
d="M31 411l154 55v-101h2c22 34 80 101 161 101c83 0 114 -55 114 -145v-280l71 -24v-17h-214v17l60 24v274c0 50 -11 92 -68 92c-24 0 -61 -11 -94 -46c-18 -18 -32 -43 -32 -73v-247l60 -24v-17h-212v17l69 24v350l-71 2v18zM191 540l-16 10c14 36 44 82 84 82
c32 0 59 -28 94 -28c18 0 32 2 55 38l15 -10c-15 -37 -44 -82 -83 -82c-31 0 -64 28 -96 28c-18 0 -32 -6 -53 -38z" />
    <glyph glyph-name="ograve" unicode="&#xf2;" horiz-adv-x="493" 
d="M236 -14c-119 0 -198 82 -198 228c0 136 71 252 222 252c121 0 195 -82 195 -218c0 -152 -79 -262 -219 -262zM131 223c0 -137 37 -205 114 -205s117 88 117 211c0 148 -40 205 -112 205c-86 0 -119 -92 -119 -211zM248 510l-101 132l63 29l53 -154z" />
    <glyph glyph-name="oacute" unicode="&#xf3;" horiz-adv-x="493" 
d="M236 -14c-119 0 -198 82 -198 228c0 136 71 252 222 252c121 0 195 -82 195 -218c0 -152 -79 -262 -219 -262zM131 223c0 -137 37 -205 114 -205s117 88 117 211c0 148 -40 205 -112 205c-86 0 -119 -92 -119 -211zM255 508l-15 9l74 154l59 -33z" />
    <glyph glyph-name="ocircumflex" unicode="&#xf4;" horiz-adv-x="493" 
d="M236 -14c-119 0 -198 82 -198 228c0 136 71 252 222 252c121 0 195 -82 195 -218c0 -152 -79 -262 -219 -262zM131 223c0 -137 37 -205 114 -205s117 88 117 211c0 148 -40 205 -112 205c-86 0 -119 -92 -119 -211zM253 670h25l86 -159l-15 -5l-84 94l-84 -94l-15 5z" />
    <glyph glyph-name="otilde" unicode="&#xf5;" horiz-adv-x="493" 
d="M236 -14c-119 0 -198 82 -198 228c0 136 71 252 222 252c121 0 195 -82 195 -218c0 -152 -79 -262 -219 -262zM131 223c0 -137 37 -205 114 -205s117 88 117 211c0 148 -40 205 -112 205c-86 0 -119 -92 -119 -211zM137 540l-16 10c14 36 44 82 84 82c32 0 59 -28 94 -28
c18 0 32 2 55 38l15 -10c-15 -37 -44 -82 -83 -82c-31 0 -64 28 -96 28c-18 0 -32 -6 -53 -38z" />
    <glyph glyph-name="odieresis" unicode="&#xf6;" horiz-adv-x="493" 
d="M236 -14c-119 0 -198 82 -198 228c0 136 71 252 222 252c121 0 195 -82 195 -218c0 -152 -79 -262 -219 -262zM131 223c0 -137 37 -205 114 -205s117 88 117 211c0 148 -40 205 -112 205c-86 0 -119 -92 -119 -211zM160 560c-25 0 -46 20 -46 46c0 25 21 46 46 46
s46 -21 46 -46c0 -26 -21 -46 -46 -46zM337 560c-25 0 -45 20 -45 46c0 25 20 46 45 46c26 0 47 -21 47 -46c0 -26 -21 -46 -47 -46z" />
    <glyph glyph-name="divide" unicode="&#xf7;" horiz-adv-x="618" 
d="M314 460c31 0 55 -24 55 -55s-24 -55 -55 -55s-55 24 -55 55s24 55 55 55zM74 208v56h470v-56h-470zM314 12c-31 0 -55 24 -55 55c0 30 24 54 55 54s55 -24 55 -54c0 -31 -24 -55 -55 -55z" />
    <glyph glyph-name="oslash" unicode="&#xf8;" horiz-adv-x="493" 
d="M400 510l28 -17l-44 -68c46 -36 71 -96 71 -176c0 -156 -79 -263 -219 -263c-38 0 -72 9 -100 25l-45 -74l-27 17l44 75c-44 37 -70 100 -70 185c0 133 71 252 222 252c38 0 71 -8 99 -22zM326 390c-18 31 -45 43 -79 43c-83 0 -118 -91 -118 -210c0 -53 8 -95 22 -126z
M343 354l-176 -293c17 -27 44 -42 79 -42c76 0 118 89 118 210c0 54 -9 97 -21 125z" />
    <glyph glyph-name="ugrave" unicode="&#xf9;" horiz-adv-x="532" 
d="M358 -14v100h-3c-29 -49 -87 -100 -156 -100c-82 0 -108 54 -108 151v267l-68 10v17l150 35v-308c0 -62 5 -114 69 -114c19 0 52 8 83 42c24 27 33 54 33 98v225l-63 24v17l146 11v-404l74 -1v-17zM265 510l-101 132l63 29l53 -154z" />
    <glyph glyph-name="uacute" unicode="&#xfa;" horiz-adv-x="532" 
d="M358 -14v100h-3c-29 -49 -87 -100 -156 -100c-82 0 -108 54 -108 151v267l-68 10v17l150 35v-308c0 -62 5 -114 69 -114c19 0 52 8 83 42c24 27 33 54 33 98v225l-63 24v17l146 11v-404l74 -1v-17zM271 508l-15 9l74 154l59 -33z" />
    <glyph glyph-name="ucircumflex" unicode="&#xfb;" horiz-adv-x="532" 
d="M358 -14v100h-3c-29 -49 -87 -100 -156 -100c-82 0 -108 54 -108 151v267l-68 10v17l150 35v-308c0 -62 5 -114 69 -114c19 0 52 8 83 42c24 27 33 54 33 98v225l-63 24v17l146 11v-404l74 -1v-17zM257 670h25l86 -159l-15 -5l-84 94l-84 -94l-15 5z" />
    <glyph glyph-name="udieresis" unicode="&#xfc;" horiz-adv-x="532" 
d="M358 -14v100h-3c-29 -49 -87 -100 -156 -100c-82 0 -108 54 -108 151v267l-68 10v17l150 35v-308c0 -62 5 -114 69 -114c19 0 52 8 83 42c24 27 33 54 33 98v225l-63 24v17l146 11v-404l74 -1v-17zM191 560c-25 0 -46 20 -46 46c0 25 21 46 46 46s46 -21 46 -46
c0 -26 -21 -46 -46 -46zM368 560c-25 0 -45 20 -45 46c0 25 20 46 45 46c26 0 47 -21 47 -46c0 -26 -21 -46 -47 -46z" />
    <glyph glyph-name="yacute" unicode="&#xfd;" horiz-adv-x="475" 
d="M420 413l-154 -422c-45 -121 -83 -207 -152 -207c-24 0 -44 6 -58 17v96h19c7 -33 32 -49 55 -49c34 0 75 56 99 153l-167 412l-50 22v17h209v-17l-69 -22l119 -310l97 310l-62 22v17h165v-17zM272 508l-15 9l74 154l59 -33z" />
    <glyph glyph-name="thorn" unicode="&#xfe;" horiz-adv-x="523" 
d="M187 710v-354h2c16 34 66 110 147 110c115 0 149 -106 149 -215c0 -150 -74 -265 -191 -265c-43 0 -78 15 -107 38v-199l90 -24v-17h-238v17l66 24v810l-77 2v18zM187 162c0 -107 43 -144 91 -144c72 0 116 85 116 214c0 108 -26 178 -85 178c-65 0 -105 -57 -116 -127
c-5 -28 -6 -86 -6 -121z" />
    <glyph glyph-name="ydieresis" unicode="&#xff;" horiz-adv-x="475" 
d="M420 413l-154 -422c-45 -121 -83 -207 -152 -207c-24 0 -44 6 -58 17v96h19c7 -33 32 -49 55 -49c34 0 75 56 99 153l-167 412l-50 22v17h209v-17l-69 -22l119 -310l97 310l-62 22v17h165v-17zM177 560c-25 0 -46 20 -46 46c0 25 21 46 46 46s46 -21 46 -46
c0 -26 -21 -46 -46 -46zM354 560c-25 0 -45 20 -45 46c0 25 20 46 45 46c26 0 47 -21 47 -46c0 -26 -21 -46 -47 -46z" />
    <glyph glyph-name="Amacron" unicode="&#x100;" horiz-adv-x="625" 
d="M74 41l235 598h21l222 -598l61 -24v-17h-240v17l80 24l-58 161h-213l-55 -161l72 -24v-17h-186v17zM285 493l-88 -243h182l-93 243h-1zM202 720v56h226v-56h-226z" />
    <glyph glyph-name="amacron" unicode="&#x101;" horiz-adv-x="458" 
d="M83 433c41 16 103 33 167 33c110 0 124 -61 124 -143v-272l73 -3v-17l-156 -45l2 78h-2c-27 -47 -77 -78 -133 -78c-75 0 -122 48 -122 121c0 115 116 147 255 163v55c0 67 -17 106 -73 106c-54 0 -92 -28 -112 -99h-23v101zM291 240c-107 -13 -169 -40 -169 -121
c0 -50 30 -77 75 -77c29 0 50 9 69 28c14 16 25 41 25 80v90zM127 571v52h228v-52h-228z" />
    <glyph glyph-name="Abreve" unicode="&#x102;" horiz-adv-x="625" 
d="M74 41l235 598h21l222 -598l61 -24v-17h-240v17l80 24l-58 161h-213l-55 -161l72 -24v-17h-186v17zM285 493l-88 -243h182l-93 243h-1zM401 805h23c-2 -57 -15 -122 -105 -122c-91 0 -102 65 -104 122h22c6 -32 16 -61 82 -61c65 0 77 29 82 61z" />
    <glyph glyph-name="abreve" unicode="&#x103;" horiz-adv-x="458" 
d="M83 433c41 16 103 33 167 33c110 0 124 -61 124 -143v-272l73 -3v-17l-156 -45l2 78h-2c-27 -47 -77 -78 -133 -78c-75 0 -122 48 -122 121c0 115 116 147 255 163v55c0 67 -17 106 -73 106c-54 0 -92 -28 -112 -99h-23v101zM291 240c-107 -13 -169 -40 -169 -121
c0 -50 30 -77 75 -77c29 0 50 9 69 28c14 16 25 41 25 80v90zM330 659h23c-1 -57 -21 -125 -108 -125s-106 68 -108 125h23c6 -32 12 -71 85 -71c74 0 79 39 85 71z" />
    <glyph glyph-name="Aogonek" unicode="&#x104;" horiz-adv-x="625" 
d="M604 -122l10 -23c-22 -19 -58 -42 -94 -42c-44 0 -72 26 -72 64c0 54 62 98 101 123h-176v17l80 24l-58 161h-213l-55 -161l72 -24v-17h-186v17l61 24l235 598h21l222 -598l61 -24v-17h-35c-29 -25 -64 -59 -64 -105c0 -33 23 -40 39 -40c14 0 35 6 51 23zM285 493
l-88 -243h182l-93 243h-1z" />
    <glyph glyph-name="aogonek" unicode="&#x105;" horiz-adv-x="458" 
d="M83 433c41 16 103 33 167 33c107 0 123 -59 124 -137v-278c24 0 49 -2 73 -3v-17l-21 -6c-36 -16 -107 -78 -107 -131c0 -32 23 -43 46 -43c15 0 39 7 57 24l12 -22c-22 -19 -63 -41 -101 -42c-12 0 -21 1 -30 4c-28 7 -45 29 -45 59c0 51 67 106 113 135l-1 4l-79 -25
l2 76h-2c-27 -45 -74 -76 -127 -77c-13 -1 -24 0 -36 2c-56 11 -92 55 -92 118c0 115 116 147 255 163v55c0 68 -17 106 -73 106c-55 0 -92 -28 -112 -99h-23v101zM291 240c-107 -13 -169 -40 -169 -121c0 -50 28 -77 75 -77s94 29 94 113v85z" />
    <glyph glyph-name="Cacute" unicode="&#x106;" horiz-adv-x="579" 
d="M535 160l-13 -130c-42 -20 -104 -44 -192 -44c-198 0 -287 152 -287 320c0 193 122 334 304 334c70 0 138 -16 170 -32v-120h-22c-20 71 -65 118 -150 117c-124 0 -196 -117 -196 -300c0 -160 72 -284 186 -284c112 0 152 58 178 139h22zM332 683l-15 12l129 109l57 -50z
" />
    <glyph glyph-name="cacute" unicode="&#x107;" horiz-adv-x="434" 
d="M408 120l-24 -98c-29 -20 -82 -36 -138 -36c-130 0 -208 88 -208 240c0 130 76 240 219 240c61 0 103 -16 124 -27v-100h-26c-20 61 -45 94 -99 94c-82 0 -125 -81 -125 -199c0 -124 50 -212 131 -212c53 0 95 27 125 98h21zM243 508l-15 9l74 154l59 -33z" />
    <glyph glyph-name="Ccircumflex" unicode="&#x108;" horiz-adv-x="579" 
d="M535 160l-13 -130c-42 -20 -104 -44 -192 -44c-198 0 -287 152 -287 320c0 193 122 334 304 334c70 0 138 -16 170 -32v-120h-22c-20 71 -65 118 -150 117c-124 0 -196 -117 -196 -300c0 -160 72 -284 186 -284c112 0 152 58 178 139h22zM335 796h25l95 -117l-15 -5
l-93 49l-93 -49l-16 5z" />
    <glyph glyph-name="ccircumflex" unicode="&#x109;" horiz-adv-x="434" 
d="M408 120l-24 -98c-29 -20 -82 -36 -138 -36c-130 0 -208 88 -208 240c0 130 76 240 219 240c61 0 103 -16 124 -27v-100h-26c-20 61 -45 94 -99 94c-82 0 -125 -81 -125 -199c0 -124 50 -212 131 -212c53 0 95 27 125 98h21zM234 670h25l86 -159l-15 -5l-84 94l-84 -94
l-15 5z" />
    <glyph glyph-name="Cdotaccent" unicode="&#x10a;" horiz-adv-x="579" 
d="M535 160l-13 -130c-42 -20 -104 -44 -192 -44c-198 0 -287 152 -287 320c0 193 122 334 304 334c70 0 138 -16 170 -32v-120h-22c-20 71 -65 118 -150 117c-124 0 -196 -117 -196 -300c0 -160 72 -284 186 -284c112 0 152 58 178 139h22zM339 695c-31 0 -55 24 -55 55
c0 30 24 55 55 55s55 -25 55 -55c0 -31 -24 -55 -55 -55z" />
    <glyph glyph-name="cdotaccent" unicode="&#x10b;" horiz-adv-x="434" 
d="M408 120l-24 -98c-29 -20 -82 -36 -138 -36c-130 0 -208 88 -208 240c0 130 76 240 219 240c61 0 103 -16 124 -27v-100h-26c-20 61 -45 94 -99 94c-82 0 -125 -81 -125 -199c0 -124 50 -212 131 -212c53 0 95 27 125 98h21zM253 562c-27 0 -48 20 -48 48
c0 27 21 49 48 49c28 0 49 -22 49 -49c0 -28 -21 -48 -49 -48z" />
    <glyph glyph-name="Ccaron" unicode="&#x10c;" horiz-adv-x="579" 
d="M535 160l-13 -130c-42 -20 -104 -44 -192 -44c-198 0 -287 152 -287 320c0 193 122 334 304 334c70 0 138 -16 170 -32v-120h-22c-20 71 -65 118 -150 117c-124 0 -196 -117 -196 -300c0 -160 72 -284 186 -284c112 0 152 58 178 139h22zM238 792l15 6l94 -60l92 60
l16 -6l-96 -117h-25z" />
    <glyph glyph-name="ccaron" unicode="&#x10d;" horiz-adv-x="434" 
d="M408 120l-24 -98c-29 -20 -82 -36 -138 -36c-130 0 -208 88 -208 240c0 130 76 240 219 240c61 0 103 -16 124 -27v-100h-26c-20 61 -45 94 -99 94c-82 0 -125 -81 -125 -199c0 -124 50 -212 131 -212c53 0 95 27 125 98h21zM243 512l-87 159l16 5l83 -94l83 94l16 -5
l-86 -159h-25z" />
    <glyph glyph-name="Dcaron" unicode="&#x10e;" horiz-adv-x="662" 
d="M38 0v17l82 24v544l-83 24v17h259c177 0 323 -63 323 -293c0 -223 -140 -333 -336 -333h-245zM215 589v-548c24 -4 48 -8 71 -8c156 0 229 113 229 295c0 165 -60 267 -221 267c-19 0 -60 -4 -79 -6zM213 792l15 6l94 -60l92 60l16 -6l-96 -117h-25z" />
    <glyph glyph-name="dcaron" unicode="&#x10f;" horiz-adv-x="524" 
d="M258 656l159 54v-658l74 -3v-17l-156 -46v88h-1c-25 -47 -76 -88 -140 -88c-97 0 -156 89 -156 223c0 147 80 257 204 257c41 0 74 -12 93 -26v197l-77 2v17zM128 225c0 -108 33 -180 104 -180c37 0 83 17 96 90c6 26 8 88 8 134c0 33 1 87 -7 111c-10 33 -40 53 -78 53
c-79 0 -123 -82 -123 -208zM488 470l-18 11c19 28 32 50 32 87c0 29 -17 46 -37 64l41 34c16 -6 57 -35 57 -72c0 -36 -31 -81 -75 -124z" />
    <glyph glyph-name="Dcroat" unicode="&#x110;" horiz-adv-x="662" 
d="M38 0v17l82 24v271h-82v41h82v232l-83 24v17h259c177 0 323 -63 323 -293c0 -223 -140 -333 -336 -333h-245zM215 589v-236h119v-41h-119v-271c24 -4 48 -8 71 -8c156 0 229 113 229 295c0 165 -60 267 -221 267c-19 0 -60 -4 -79 -6z" />
    <glyph glyph-name="dcroat" unicode="&#x111;" horiz-adv-x="500" 
d="M258 656l159 54v-140h66v-35h-66v-483l74 -3v-17l-156 -46v88h-1c-25 -47 -76 -88 -140 -88c-97 0 -156 89 -156 223c0 147 80 257 204 257c41 0 74 -12 93 -26v95h-115v35h115v67l-77 2v17zM128 225c0 -108 33 -180 104 -180c37 0 83 17 96 90c6 26 8 88 8 134
c0 33 1 87 -7 111c-10 33 -40 53 -78 53c-79 0 -123 -82 -123 -208z" />
    <glyph glyph-name="Emacron" unicode="&#x112;" horiz-adv-x="552" 
d="M38 0v17l82 24v544l-83 24v17h436v-136h-22c-27 80 -39 97 -106 97h-130v-240l147 4l23 75h19v-192h-19l-23 74l-147 4v-269h146c79 0 94 1 123 117h22v-160h-468zM188 720v56h226v-56h-226z" />
    <glyph glyph-name="emacron" unicode="&#x113;" horiz-adv-x="452" 
d="M410 120l-28 -100c-31 -19 -77 -34 -140 -34c-127 0 -202 85 -202 233c0 137 77 247 205 247c132 0 163 -124 163 -213h-274c-1 -10 -1 -25 -1 -34c0 -120 54 -199 131 -199c52 0 92 27 123 100h23zM136 288h183c-1 65 -17 146 -83 146c-57 0 -89 -56 -100 -146zM122 571
v52h228v-52h-228z" />
    <glyph glyph-name="Ebreve" unicode="&#x114;" horiz-adv-x="552" 
d="M38 0v17l82 24v544l-83 24v17h436v-136h-22c-27 80 -39 97 -106 97h-130v-240l147 4l23 75h19v-192h-19l-23 74l-147 4v-269h146c79 0 94 1 123 117h22v-160h-468zM387 805h23c-2 -57 -15 -122 -105 -122c-91 0 -102 65 -104 122h22c6 -32 16 -61 82 -61
c65 0 77 29 82 61z" />
    <glyph glyph-name="ebreve" unicode="&#x115;" horiz-adv-x="452" 
d="M410 120l-28 -100c-31 -19 -77 -34 -140 -34c-127 0 -202 85 -202 233c0 137 77 247 205 247c132 0 163 -124 163 -213h-274c-1 -10 -1 -25 -1 -34c0 -120 54 -199 131 -199c52 0 92 27 123 100h23zM136 288h183c-1 65 -17 146 -83 146c-57 0 -89 -56 -100 -146zM323 659
h23c-1 -57 -21 -125 -108 -125s-106 68 -108 125h23c6 -32 12 -71 85 -71c74 0 79 39 85 71z" />
    <glyph glyph-name="Edotaccent" unicode="&#x116;" horiz-adv-x="552" 
d="M38 0v17l82 24v544l-83 24v17h436v-136h-22c-27 80 -39 97 -106 97h-130v-240l147 4l23 75h19v-192h-19l-23 74l-147 4v-269h146c79 0 94 1 123 117h22v-160h-468zM303 695c-31 0 -55 24 -55 55c0 30 24 55 55 55s55 -25 55 -55c0 -31 -24 -55 -55 -55z" />
    <glyph glyph-name="edotaccent" unicode="&#x117;" horiz-adv-x="452" 
d="M410 120l-28 -100c-31 -19 -77 -34 -140 -34c-127 0 -202 85 -202 233c0 137 77 247 205 247c132 0 163 -124 163 -213h-274c-1 -10 -1 -25 -1 -34c0 -120 54 -199 131 -199c52 0 92 27 123 100h23zM136 288h183c-1 65 -17 146 -83 146c-57 0 -89 -56 -100 -146zM234 562
c-27 0 -48 20 -48 48c0 27 21 49 48 49c28 0 49 -22 49 -49c0 -28 -21 -48 -49 -48z" />
    <glyph glyph-name="Eogonek" unicode="&#x118;" horiz-adv-x="552" 
d="M38 0v17l82 24v544l-83 24v17h436v-136h-22c-27 80 -39 97 -106 97h-130v-240l147 4l23 75h19v-192h-19l-23 74l-147 4v-269h146c79 0 94 1 123 117h22v-160h-35c-29 -25 -64 -59 -64 -105c0 -33 23 -40 39 -40c14 0 35 6 51 23l10 -23c-22 -19 -58 -42 -94 -42
c-44 0 -72 26 -72 64c0 54 62 98 101 123h-404z" />
    <glyph glyph-name="eogonek" unicode="&#x119;" horiz-adv-x="452" 
d="M346 -125l12 -22c-23 -19 -64 -42 -105 -42c-45 0 -71 26 -71 63c0 43 50 87 89 114c-9 -1 -19 -2 -29 -2c-127 0 -202 85 -202 233c0 137 77 247 205 247c132 0 163 -124 163 -213h-274c-1 -10 -1 -25 -1 -34c0 -120 54 -199 131 -199c52 0 92 27 123 100h23l-28 -100
c-19 -11 -45 -21 -76 -27c-30 -24 -64 -59 -64 -99c0 -32 23 -43 46 -43c16 0 40 7 58 24zM136 288h183c-1 65 -17 146 -83 146c-57 0 -89 -56 -100 -146z" />
    <glyph glyph-name="Ecaron" unicode="&#x11a;" horiz-adv-x="552" 
d="M38 0v17l82 24v544l-83 24v17h436v-136h-22c-27 80 -39 97 -106 97h-130v-240l147 4l23 75h19v-192h-19l-23 74l-147 4v-269h146c79 0 94 1 123 117h22v-160h-468zM206 792l15 6l94 -60l92 60l16 -6l-96 -117h-25z" />
    <glyph glyph-name="ecaron" unicode="&#x11b;" horiz-adv-x="452" 
d="M410 120l-28 -100c-31 -19 -77 -34 -140 -34c-127 0 -202 85 -202 233c0 137 77 247 205 247c132 0 163 -124 163 -213h-274c-1 -10 -1 -25 -1 -34c0 -120 54 -199 131 -199c52 0 92 27 123 100h23zM136 288h183c-1 65 -17 146 -83 146c-57 0 -89 -56 -100 -146zM225 512
l-87 159l16 5l83 -94l83 94l16 -5l-86 -159h-25z" />
    <glyph glyph-name="Gcircumflex" unicode="&#x11c;" horiz-adv-x="637" 
d="M550 245v-166c0 -16 3 -23 8 -32c-47 -28 -131 -61 -225 -61c-190 0 -290 148 -290 323c0 186 116 331 317 331c78 0 136 -14 185 -35v-115h-22c-28 84 -80 117 -167 117c-117 0 -208 -104 -208 -290c0 -162 68 -296 198 -296c53 0 92 16 112 34v190l-76 24v17h227v-17z
M346 796h25l95 -117l-15 -5l-93 49l-93 -49l-16 5z" />
    <glyph glyph-name="gcircumflex" unicode="&#x11d;" horiz-adv-x="470" 
d="M234 466c32 0 65 -9 86 -18c22 -10 37 -17 40 -17c39 0 76 5 100 11v-53h-90c15 -20 23 -46 23 -73c0 -123 -108 -158 -185 -158l-69 -58c4 -18 20 -35 60 -35c38 0 94 1 127 1c68 0 112 -36 112 -102c0 -104 -95 -180 -230 -180c-144 0 -180 81 -181 147
c29 27 70 53 105 73v4c-16 8 -37 25 -48 42c-7 10 -15 29 -15 53c17 4 65 23 104 60c-41 10 -117 42 -117 143c0 92 68 160 178 160zM139 310c0 -68 26 -121 87 -121c62 0 84 65 84 121c0 62 -14 125 -83 125c-61 0 -88 -56 -88 -125zM166 -1c-42 -22 -65 -55 -65 -86
c0 -60 52 -95 118 -95c87 0 152 47 152 113c0 45 -27 63 -87 63c-55 0 -94 1 -118 5zM216 670h25l86 -159l-15 -5l-84 94l-84 -94l-15 5z" />
    <glyph glyph-name="Gbreve" unicode="&#x11e;" horiz-adv-x="637" 
d="M550 245v-166c0 -16 3 -23 8 -32c-47 -28 -131 -61 -225 -61c-190 0 -290 148 -290 323c0 186 116 331 317 331c78 0 136 -14 185 -35v-115h-22c-28 84 -80 117 -167 117c-117 0 -208 -104 -208 -290c0 -162 68 -296 198 -296c53 0 92 16 112 34v190l-76 24v17h227v-17z
M436 805h23c-2 -57 -15 -122 -105 -122c-91 0 -102 65 -104 122h22c6 -32 16 -61 82 -61c65 0 77 29 82 61z" />
    <glyph glyph-name="gbreve" unicode="&#x11f;" horiz-adv-x="470" 
d="M234 466c32 0 65 -9 86 -18c22 -10 37 -17 40 -17c39 0 76 5 100 11v-53h-90c15 -20 23 -46 23 -73c0 -123 -108 -158 -185 -158l-69 -58c4 -18 20 -35 60 -35c38 0 94 1 127 1c68 0 112 -36 112 -102c0 -104 -95 -180 -230 -180c-144 0 -180 81 -181 147
c29 27 70 53 105 73v4c-16 8 -37 25 -48 42c-7 10 -15 29 -15 53c17 4 65 23 104 60c-41 10 -117 42 -117 143c0 92 68 160 178 160zM139 310c0 -68 26 -121 87 -121c62 0 84 65 84 121c0 62 -14 125 -83 125c-61 0 -88 -56 -88 -125zM166 -1c-42 -22 -65 -55 -65 -86
c0 -60 52 -95 118 -95c87 0 152 47 152 113c0 45 -27 63 -87 63c-55 0 -94 1 -118 5zM311 659h23c-1 -57 -21 -125 -108 -125s-106 68 -108 125h23c6 -32 12 -71 85 -71c74 0 79 39 85 71z" />
    <glyph glyph-name="Gdotaccent" unicode="&#x120;" horiz-adv-x="637" 
d="M550 245v-166c0 -16 3 -23 8 -32c-47 -28 -131 -61 -225 -61c-190 0 -290 148 -290 323c0 186 116 331 317 331c78 0 136 -14 185 -35v-115h-22c-28 84 -80 117 -167 117c-117 0 -208 -104 -208 -290c0 -162 68 -296 198 -296c53 0 92 16 112 34v190l-76 24v17h227v-17z
M375 695c-31 0 -55 24 -55 55c0 30 24 55 55 55s55 -25 55 -55c0 -31 -24 -55 -55 -55z" />
    <glyph glyph-name="gdotaccent" unicode="&#x121;" horiz-adv-x="470" 
d="M234 466c32 0 65 -9 86 -18c22 -10 37 -17 40 -17c39 0 76 5 100 11v-53h-90c15 -20 23 -46 23 -73c0 -123 -108 -158 -185 -158l-69 -58c4 -18 20 -35 60 -35c38 0 94 1 127 1c68 0 112 -36 112 -102c0 -104 -95 -180 -230 -180c-144 0 -180 81 -181 147
c29 27 70 53 105 73v4c-16 8 -37 25 -48 42c-7 10 -15 29 -15 53c17 4 65 23 104 60c-41 10 -117 42 -117 143c0 92 68 160 178 160zM139 310c0 -68 26 -121 87 -121c62 0 84 65 84 121c0 62 -14 125 -83 125c-61 0 -88 -56 -88 -125zM166 -1c-42 -22 -65 -55 -65 -86
c0 -60 52 -95 118 -95c87 0 152 47 152 113c0 45 -27 63 -87 63c-55 0 -94 1 -118 5zM222 562c-27 0 -48 20 -48 48c0 27 21 49 48 49c28 0 49 -22 49 -49c0 -28 -21 -48 -49 -48z" />
    <glyph glyph-name="Gcommaaccent" unicode="&#x122;" horiz-adv-x="637" 
d="M550 245v-166c0 -16 3 -23 8 -32c-47 -28 -131 -61 -225 -61c-190 0 -290 148 -290 323c0 186 116 331 317 331c78 0 136 -14 185 -35v-115h-22c-28 84 -80 117 -167 117c-117 0 -208 -104 -208 -290c0 -162 68 -296 198 -296c53 0 92 16 112 34v190l-76 24v17h227v-17z
M306 -221l-15 9c30 38 36 59 36 81c0 14 -29 39 -45 50l40 31c26 -3 65 -28 65 -62c0 -42 -49 -86 -81 -109z" />
    <glyph glyph-name="gcommaaccent" unicode="&#x123;" horiz-adv-x="470" 
d="M234 466c32 0 65 -9 86 -18c22 -10 37 -17 40 -17c39 0 76 5 100 11v-53h-90c15 -20 23 -46 23 -73c0 -123 -108 -158 -185 -158l-69 -58c4 -18 20 -35 60 -35c38 0 94 1 127 1c68 0 112 -36 112 -102c0 -104 -95 -180 -230 -180c-144 0 -180 81 -181 147
c29 27 70 53 105 73v4c-16 8 -37 25 -48 42c-7 10 -15 29 -15 53c17 4 65 23 104 60c-41 10 -117 42 -117 143c0 92 68 160 178 160zM139 310c0 -68 26 -121 87 -121c62 0 84 65 84 121c0 62 -14 125 -83 125c-61 0 -88 -56 -88 -125zM166 -1c-42 -22 -65 -55 -65 -86
c0 -60 52 -95 118 -95c87 0 152 47 152 113c0 45 -27 63 -87 63c-55 0 -94 1 -118 5zM258 701l18 -8c-31 -46 -33 -63 -33 -95c0 -10 24 -43 36 -57l-40 -30c-17 5 -59 36 -59 70c0 38 37 79 78 120z" />
    <glyph glyph-name="Hcircumflex" unicode="&#x124;" horiz-adv-x="726" 
d="M38 0v17l82 24v544l-82 24v17h258v-17l-81 -24v-236h296v236l-81 24v17h257v-17l-81 -24v-544l81 -25v-16h-257v17l81 24v266h-296v-266l81 -24v-17h-258zM368 796h25l95 -117l-15 -5l-93 49l-93 -49l-16 5z" />
    <glyph glyph-name="hcircumflex" unicode="&#x125;" horiz-adv-x="547" 
d="M31 0v17l69 24v596l-70 2v17l153 54v-346h2c20 33 80 102 161 102c78 0 115 -50 115 -140v-285l70 -24v-17h-215v17l62 24v257c0 61 -10 109 -68 109c-22 0 -59 -9 -95 -46c-19 -19 -32 -41 -32 -76v-244l62 -24v-17h-214zM148 883h25l86 -159l-15 -5l-84 94l-84 -94
l-15 5z" />
    <glyph glyph-name="Hbar" unicode="&#x126;" horiz-adv-x="735" 
d="M57 455v34h63v96l-81 24v17h258v-17l-82 -24v-96h305v96l-83 24v17h259v-17l-82 -24v-96h64v-34h-64v-414l82 -24v-17h-259v17l83 24v267h-305v-267l82 -24v-17h-258v17l81 24v414h-63zM215 348h305v107h-305v-107z" />
    <glyph glyph-name="hbar" unicode="&#x127;" horiz-adv-x="547" 
d="M31 0v17l69 24v487h-72v35h72v74l-70 2v17l153 54v-147h127v-35h-127v-164h2c20 33 80 102 161 102c78 0 115 -50 115 -140v-285l70 -24v-17h-215v17l62 24v257c0 61 -10 109 -68 109c-22 0 -59 -9 -95 -46c-19 -19 -32 -41 -32 -76v-244l62 -24v-17h-214z" />
    <glyph glyph-name="Itilde" unicode="&#x128;" horiz-adv-x="335" 
d="M37 0v17l83 24v544l-83 24v17h262v-17l-84 -24v-544l84 -24v-17h-262zM60 688l-16 9c18 43 43 86 86 86c39 0 67 -35 97 -35c24 0 38 5 63 41l13 -10c-14 -35 -41 -85 -85 -85c-42 0 -67 34 -96 34c-25 0 -40 -9 -62 -40z" />
    <glyph glyph-name="itilde" unicode="&#x129;" horiz-adv-x="273" 
d="M33 0v17l69 24v350l-72 2v18l155 55v-425l70 -24v-17h-222zM38 540l-16 10c14 36 44 82 84 82c32 0 59 -28 94 -28c18 0 32 2 55 38l15 -10c-15 -37 -44 -82 -83 -82c-31 0 -64 28 -96 28c-18 0 -32 -6 -53 -38z" />
    <glyph glyph-name="Imacron" unicode="&#x12a;" horiz-adv-x="335" 
d="M37 0v17l83 24v544l-83 24v17h262v-17l-84 -24v-544l84 -24v-17h-262zM53 720v56h226v-56h-226z" />
    <glyph glyph-name="imacron" unicode="&#x12b;" horiz-adv-x="273" 
d="M33 0v17l69 24v350l-72 2v18l155 55v-425l70 -24v-17h-222zM33 571v52h228v-52h-228z" />
    <glyph glyph-name="Ibreve" unicode="&#x12c;" horiz-adv-x="335" 
d="M37 0v17l83 24v544l-83 24v17h262v-17l-84 -24v-544l84 -24v-17h-262zM253 805h23c-2 -57 -15 -122 -105 -122c-91 0 -102 65 -104 122h22c6 -32 16 -61 82 -61c65 0 77 29 82 61z" />
    <glyph glyph-name="ibreve" unicode="&#x12d;" horiz-adv-x="273" 
d="M33 0v17l69 24v350l-72 2v18l155 55v-425l70 -24v-17h-222zM225 659h23c-1 -57 -21 -125 -108 -125s-106 68 -108 125h23c6 -32 12 -71 85 -71c74 0 79 39 85 71z" />
    <glyph glyph-name="Iogonek" unicode="&#x12e;" horiz-adv-x="335" 
d="M37 0v17l83 24v544l-83 24v17h262v-17l-84 -24v-544l84 -24v-17h-77c-29 -25 -64 -59 -64 -105c0 -33 23 -40 39 -40c14 0 35 6 51 23l10 -23c-22 -19 -58 -42 -94 -42c-44 0 -72 26 -72 64c0 54 62 98 101 123h-156z" />
    <glyph glyph-name="iogonek" unicode="&#x12f;" horiz-adv-x="273" 
d="M33 0v17l69 24v350l-72 2v18l155 55v-425l70 -24v-17h-47c-32 -24 -73 -62 -73 -106c0 -32 23 -43 46 -43c15 0 40 7 58 24l12 -22c-23 -19 -64 -42 -106 -42c-44 0 -70 26 -70 63c0 55 68 101 108 126h-150zM91 613c0 28 23 52 51 52s52 -24 52 -52s-24 -51 -52 -51
s-51 23 -51 51z" />
    <glyph glyph-name="Idotaccent" unicode="&#x130;" horiz-adv-x="335" 
d="M37 0v17l83 24v544l-83 24v17h262v-17l-84 -24v-544l84 -24v-17h-262zM169 695c-31 0 -55 24 -55 55c0 30 24 55 55 55s55 -25 55 -55c0 -31 -24 -55 -55 -55z" />
    <glyph glyph-name="dotlessi" unicode="&#x131;" horiz-adv-x="273" 
d="M33 0v17l69 24v350l-72 2v18l155 55v-425l70 -24v-17h-222z" />
    <glyph glyph-name="IJ" unicode="&#x132;" horiz-adv-x="781" 
d="M37 0v17l83 24v544l-83 24v17h262v-17l-84 -24v-544l84 -24v-17h-262zM668 585v-388c0 -119 -50 -211 -176 -211c-48 0 -105 13 -132 27v125h22c15 -70 50 -121 105 -121c62 0 86 56 86 158v410l-91 24v17h261v-17z" />
    <glyph glyph-name="ij" unicode="&#x133;" horiz-adv-x="542" 
d="M33 0v17l69 24v350l-72 2v18l155 55v-425l70 -24v-17h-222zM91 613c0 28 23 52 51 52s52 -24 52 -52s-24 -51 -52 -51s-51 23 -51 51zM461 466v-446c0 -151 -47 -236 -160 -236c-41 0 -76 13 -89 24v92h20c10 -44 33 -87 76 -87c51 0 70 53 70 168v410l-74 2v18zM362 613
c0 28 23 52 51 52s51 -24 51 -52s-23 -51 -51 -51s-51 23 -51 51z" />
    <glyph glyph-name="Jcircumflex" unicode="&#x134;" horiz-adv-x="437" 
d="M331 585v-388c0 -119 -50 -211 -176 -211c-48 0 -105 13 -132 27v125h22c15 -70 50 -121 105 -121c62 0 86 56 86 158v410l-91 24v17h261v-17zM265 796h25l95 -117l-15 -5l-93 49l-93 -49l-16 5z" />
    <glyph glyph-name="jcircumflex" unicode="&#x135;" horiz-adv-x="268" 
d="M188 466v-446c0 -151 -47 -236 -160 -236c-41 0 -76 13 -89 24v97h20c10 -49 33 -92 76 -92c51 0 70 53 70 168v410l-74 2v18zM133 670h25l86 -159l-15 -5l-84 94l-84 -94l-15 5z" />
    <glyph glyph-name="Kcommaaccent" unicode="&#x136;" horiz-adv-x="650" 
d="M37 626h246v-17l-68 -24v-266l244 266l-63 24v17h193v-17l-61 -24l-215 -205l266 -339l63 -24v-17h-236v17l60 24l-216 274l-35 -36v-238l67 -24v-17h-245v17l83 24v544l-83 24v17zM297 -221l-15 9c30 38 36 59 36 81c0 14 -29 39 -45 50l40 31c26 -3 65 -28 65 -62
c0 -42 -49 -86 -81 -109z" />
    <glyph glyph-name="kcommaaccent" unicode="&#x137;" horiz-adv-x="509" 
d="M29 656l153 54v-476l164 177l-60 24v17h191v-17l-73 -24l-132 -127l188 -243l49 -24v-17h-196v17l52 22l-149 192l-34 -31v-159l61 -24v-17h-215v17l72 24v596l-71 2v17zM227 -221l-15 9c30 38 36 59 36 81c0 14 -29 39 -45 50l40 31c26 -3 65 -28 65 -62
c0 -42 -49 -86 -81 -109z" />
    <glyph glyph-name="kgreenlandic" unicode="&#x138;" horiz-adv-x="510" 
d="M25 412l157 53v-231l164 177l-60 24v17h191v-17l-73 -24l-132 -127l188 -243l49 -24v-17h-196v17l52 22l-149 192l-34 -31v-159l65 -24v-17h-224v17l77 24v350l-75 3v18z" />
    <glyph glyph-name="Lacute" unicode="&#x139;" horiz-adv-x="533" 
d="M37 0v17l83 24v544l-83 24v17h261v-17l-83 -24v-542h144c78 0 104 29 122 117h22v-160h-466zM174 683l-15 12l129 109l57 -50z" />
    <glyph glyph-name="lacute" unicode="&#x13a;" horiz-adv-x="273" 
d="M28 0v17l71 24v596l-77 2v17l160 54v-669l70 -24v-17h-224zM109 718l-15 9l74 154l59 -33z" />
    <glyph glyph-name="Lcommaaccent" unicode="&#x13b;" horiz-adv-x="533" 
d="M37 0v17l83 24v544l-83 24v17h261v-17l-83 -24v-542h144c78 0 104 29 122 117h22v-160h-466zM269 -221l-15 9c30 38 36 59 36 81c0 14 -29 39 -45 50l40 31c26 -3 65 -28 65 -62c0 -42 -49 -86 -81 -109z" />
    <glyph glyph-name="lcommaaccent" unicode="&#x13c;" horiz-adv-x="273" 
d="M28 0v17l71 24v596l-77 2v17l160 54v-669l70 -24v-17h-224zM110 -221l-15 9c30 38 36 59 36 81c0 14 -29 39 -45 50l40 31c26 -3 65 -28 65 -62c0 -42 -49 -86 -81 -109z" />
    <glyph glyph-name="Lcaron" unicode="&#x13d;" horiz-adv-x="533" 
d="M37 0v17l83 24v544l-83 24v17h261v-17l-83 -24v-542h144c78 0 104 29 122 117h22v-160h-466zM384 470l-18 11c19 28 32 50 32 87c0 29 -17 46 -37 64l41 34c16 -6 57 -35 57 -72c0 -36 -31 -81 -75 -124z" />
    <glyph glyph-name="lcaron" unicode="&#x13e;" 
d="M28 0v17l71 24v596l-77 2v17l160 54v-669l70 -24v-17h-224zM253 470l-18 11c19 28 32 50 32 87c0 29 -17 46 -37 64l41 34c16 -6 57 -35 57 -72c0 -36 -31 -81 -75 -124z" />
    <glyph glyph-name="Ldot" unicode="&#x13f;" horiz-adv-x="533" 
d="M37 0v17l83 24v544l-83 24v17h261v-17l-83 -24v-542h144c78 0 104 29 122 117h22v-160h-466zM418 309c-31 0 -55 24 -55 55c0 30 24 55 55 55s55 -25 55 -55c0 -31 -24 -55 -55 -55z" />
    <glyph glyph-name="ldot" unicode="&#x140;" horiz-adv-x="329" 
d="M28 0v17l71 24v596l-77 2v17l160 54v-669l70 -24v-17h-224zM283 310c-27 0 -48 20 -48 48c0 27 21 49 48 49c28 0 49 -22 49 -49c0 -28 -21 -48 -49 -48z" />
    <glyph glyph-name="Lslash" unicode="&#x141;" horiz-adv-x="533" 
d="M37 0v17l83 24v250l-70 -37l-16 32l86 46v253l-83 24v17h261v-17l-83 -24v-203l131 70l17 -31l-148 -79v-299h144c78 0 104 29 122 117h22v-160h-466z" />
    <glyph glyph-name="lslash" unicode="&#x142;" horiz-adv-x="278" 
d="M28 0v17l71 24v284l-68 -37l-15 30l83 45v274l-77 2v17l160 54v-301l79 44l15 -30l-94 -52v-330l70 -24v-17h-224z" />
    <glyph glyph-name="Nacute" unicode="&#x143;" horiz-adv-x="688" 
d="M30 626h163l348 -469l2 2l-10 426l-86 24v17h205v-17l-62 -24l-16 -598h-24l-395 541l-2 -2l11 -485l87 -24v-17h-216v17l74 24l10 537l-89 31v17zM355 683l-15 12l129 109l57 -50z" />
    <glyph glyph-name="nacute" unicode="&#x144;" horiz-adv-x="549" 
d="M31 411l154 55v-101h2c22 34 80 101 161 101c83 0 114 -55 114 -145v-280l71 -24v-17h-214v17l60 24v274c0 50 -11 92 -68 92c-24 0 -61 -11 -94 -46c-18 -18 -32 -43 -32 -73v-247l60 -24v-17h-212v17l69 24v350l-71 2v18zM294 508l-15 9l74 154l59 -33z" />
    <glyph glyph-name="Ncommaaccent" unicode="&#x145;" horiz-adv-x="688" 
d="M30 626h163l348 -469l2 2l-10 426l-86 24v17h205v-17l-62 -24l-16 -598h-24l-395 541l-2 -2l11 -485l87 -24v-17h-216v17l74 24l10 537l-89 31v17zM316 -221l-15 9c30 38 36 59 36 81c0 14 -29 39 -45 50l40 31c26 -3 65 -28 65 -62c0 -42 -49 -86 -81 -109z" />
    <glyph glyph-name="ncommaaccent" unicode="&#x146;" horiz-adv-x="549" 
d="M31 411l154 55v-101h2c22 34 80 101 161 101c83 0 114 -55 114 -145v-280l71 -24v-17h-214v17l60 24v274c0 50 -11 92 -68 92c-24 0 -61 -11 -94 -46c-18 -18 -32 -43 -32 -73v-247l60 -24v-17h-212v17l69 24v350l-71 2v18zM241 -221l-15 9c30 38 36 59 36 81
c0 14 -29 39 -45 50l40 31c26 -3 65 -28 65 -62c0 -42 -49 -86 -81 -109z" />
    <glyph glyph-name="Ncaron" unicode="&#x147;" horiz-adv-x="688" 
d="M30 626h163l348 -469l2 2l-10 426l-86 24v17h205v-17l-62 -24l-16 -598h-24l-395 541l-2 -2l11 -485l87 -24v-17h-216v17l74 24l10 537l-89 31v17zM253 792l15 6l94 -60l92 60l16 -6l-96 -117h-25z" />
    <glyph glyph-name="ncaron" unicode="&#x148;" horiz-adv-x="549" 
d="M31 411l154 55v-101h2c22 34 80 101 161 101c83 0 114 -55 114 -145v-280l71 -24v-17h-214v17l60 24v274c0 50 -11 92 -68 92c-24 0 -61 -11 -94 -46c-18 -18 -32 -43 -32 -73v-247l60 -24v-17h-212v17l69 24v350l-71 2v18zM274 512l-87 159l16 5l83 -94l83 94l16 -5
l-86 -159h-25z" />
    <glyph glyph-name="Eng" unicode="&#x14a;" horiz-adv-x="688" 
d="M30 626h167l346 -465l3 2l-11 422l-93 24v17h210v-17l-64 -24l-13 -539c-4 -193 -65 -250 -125 -260l-39 64l4 9c73 0 122 57 123 149l-384 522l-3 -1l12 -488l93 -24v-17h-221v17l76 24l8 537l-89 31v17z" />
    <glyph glyph-name="eng" unicode="&#x14b;" horiz-adv-x="544" 
d="M20 411l165 55v-111h2c24 32 80 111 168 111c79 0 107 -55 107 -139v-316c0 -146 -56 -227 -165 -227c-41 0 -75 13 -92 24l2 99h19c11 -51 39 -94 78 -94c49 0 75 54 75 187v302c0 59 -6 101 -61 101c-30 0 -61 -10 -90 -40s-43 -56 -43 -88v-234l62 -24v-17h-220v17
l75 24v351l-82 1v18z" />
    <glyph glyph-name="Omacron" unicode="&#x14c;" horiz-adv-x="674" 
d="M327 -14c-176 0 -285 140 -285 324c0 178 118 330 305 330c173 0 286 -129 286 -314c0 -201 -134 -340 -306 -340zM342 605c-127 0 -195 -125 -195 -290c0 -175 69 -294 188 -294c131 0 192 123 192 292c0 173 -58 292 -185 292zM234 720v56h226v-56h-226z" />
    <glyph glyph-name="omacron" unicode="&#x14d;" horiz-adv-x="493" 
d="M236 -14c-119 0 -198 82 -198 228c0 136 71 252 222 252c121 0 195 -82 195 -218c0 -152 -79 -262 -219 -262zM131 223c0 -137 37 -205 114 -205s117 88 117 211c0 148 -40 205 -112 205c-86 0 -119 -92 -119 -211zM138 571v52h228v-52h-228z" />
    <glyph glyph-name="Obreve" unicode="&#x14e;" horiz-adv-x="674" 
d="M327 -14c-176 0 -285 140 -285 324c0 178 118 330 305 330c173 0 286 -129 286 -314c0 -201 -134 -340 -306 -340zM342 605c-127 0 -195 -125 -195 -290c0 -175 69 -294 188 -294c131 0 192 123 192 292c0 173 -58 292 -185 292zM425 805h23c-2 -57 -15 -122 -105 -122
c-91 0 -102 65 -104 122h22c6 -32 16 -61 82 -61c65 0 77 29 82 61z" />
    <glyph glyph-name="obreve" unicode="&#x14f;" horiz-adv-x="493" 
d="M236 -14c-119 0 -198 82 -198 228c0 136 71 252 222 252c121 0 195 -82 195 -218c0 -152 -79 -262 -219 -262zM131 223c0 -137 37 -205 114 -205s117 88 117 211c0 148 -40 205 -112 205c-86 0 -119 -92 -119 -211zM334 659h23c-1 -57 -21 -125 -108 -125
s-106 68 -108 125h23c6 -32 12 -71 85 -71c74 0 79 39 85 71z" />
    <glyph glyph-name="Ohungarumlaut" unicode="&#x150;" horiz-adv-x="674" 
d="M327 -14c-176 0 -285 140 -285 324c0 178 118 330 305 330c173 0 286 -129 286 -314c0 -201 -134 -340 -306 -340zM342 605c-127 0 -195 -125 -195 -290c0 -175 69 -294 188 -294c131 0 192 123 192 292c0 173 -58 292 -185 292zM285 677l-15 10l103 113l58 -39zM416 677
l-14 10l104 113l48 -48z" />
    <glyph glyph-name="ohungarumlaut" unicode="&#x151;" horiz-adv-x="493" 
d="M236 -14c-119 0 -198 82 -198 228c0 136 71 252 222 252c121 0 195 -82 195 -218c0 -152 -79 -262 -219 -262zM131 223c0 -137 37 -205 114 -205s117 88 117 211c0 148 -40 205 -112 205c-86 0 -119 -92 -119 -211zM177 513l-15 9l101 154l50 -36zM298 513l-15 9l111 154
l50 -36z" />
    <glyph glyph-name="OE" unicode="&#x152;" horiz-adv-x="902" 
d="M466 626h357v-136h-22c-15 80 -31 97 -105 97h-136v-240l159 4l23 74h17v-192h-18l-22 75l-159 4v-269h150c82 0 101 10 126 117h21v-160h-427l-53 -10c-18 -2 -36 -4 -54 -4c-186 0 -281 125 -281 325c0 204 119 329 303 329c37 0 83 -6 121 -14zM466 49v529
c-32 17 -68 27 -123 27c-125 0 -196 -122 -196 -290c0 -173 68 -294 191 -294c50 0 97 12 128 28z" />
    <glyph glyph-name="oe" unicode="&#x153;" horiz-adv-x="765" 
d="M252 466c73 0 126 -30 158 -95c30 55 82 95 154 95c142 0 156 -144 158 -214h-270c-1 -10 -2 -24 -2 -33c0 -118 39 -202 123 -202c64 0 101 40 134 114h20l-24 -101c-41 -24 -75 -44 -145 -44c-77 0 -129 33 -157 92c-42 -60 -92 -92 -168 -92c-120 0 -196 80 -196 231
c0 142 74 249 215 249zM131 223c0 -128 35 -206 111 -206c82 0 123 97 123 212c0 130 -40 206 -116 206c-85 0 -118 -99 -118 -212zM455 285l179 2c-3 48 -10 148 -80 148c-55 0 -89 -65 -99 -150z" />
    <glyph glyph-name="Racute" unicode="&#x154;" horiz-adv-x="612" 
d="M37 0v17l83 24v544l-83 24v17h256c145 0 210 -60 210 -150c0 -83 -68 -141 -120 -162l119 -197c47 -78 89 -97 115 -100v-17c-8 0 -32 -3 -70 -3c-65 0 -106 26 -144 99l-103 191l-85 8v-254l69 -24v-17h-247zM215 589v-270c120 3 188 31 188 154c0 92 -56 124 -131 124
c-14 0 -40 -2 -57 -8zM278 683l-15 12l129 109l57 -50z" />
    <glyph glyph-name="racute" unicode="&#x155;" horiz-adv-x="378" 
d="M34 0v17l69 24v350l-72 2v18l154 55v-111h2c22 52 60 111 126 111c23 0 41 -8 55 -19l-8 -100h-20c-13 36 -33 54 -60 54c-48 0 -95 -75 -95 -133v-227l86 -24v-17h-237zM247 508l-15 9l74 154l59 -33z" />
    <glyph glyph-name="Rcommaaccent" unicode="&#x156;" horiz-adv-x="612" 
d="M37 0v17l83 24v544l-83 24v17h256c145 0 210 -60 210 -150c0 -83 -68 -141 -120 -162l119 -197c47 -78 89 -97 115 -100v-17c-8 0 -32 -3 -70 -3c-65 0 -106 26 -144 99l-103 191l-85 8v-254l69 -24v-17h-247zM215 589v-270c120 3 188 31 188 154c0 92 -56 124 -131 124
c-14 0 -40 -2 -57 -8zM303 -221l-15 9c30 38 36 59 36 81c0 14 -29 39 -45 50l40 31c26 -3 65 -28 65 -62c0 -42 -49 -86 -81 -109z" />
    <glyph glyph-name="rcommaaccent" unicode="&#x157;" horiz-adv-x="377" 
d="M34 0v17l69 24v350l-72 2v18l154 55v-111h2c22 52 60 111 126 111c23 0 41 -8 55 -19l-8 -100h-20c-13 36 -33 54 -60 54c-48 0 -95 -75 -95 -133v-227l86 -24v-17h-237zM129 -221l-15 9c30 38 36 59 36 81c0 14 -29 39 -45 50l40 31c26 -3 65 -28 65 -62
c0 -42 -49 -86 -81 -109z" />
    <glyph glyph-name="Rcaron" unicode="&#x158;" horiz-adv-x="612" 
d="M37 0v17l83 24v544l-83 24v17h256c145 0 210 -60 210 -150c0 -83 -68 -141 -120 -162l119 -197c47 -78 89 -97 115 -100v-17c-8 0 -32 -3 -70 -3c-65 0 -106 26 -144 99l-103 191l-85 8v-254l69 -24v-17h-247zM215 589v-270c120 3 188 31 188 154c0 92 -56 124 -131 124
c-14 0 -40 -2 -57 -8zM180 792l15 6l94 -60l92 60l16 -6l-96 -117h-25z" />
    <glyph glyph-name="rcaron" unicode="&#x159;" horiz-adv-x="377" 
d="M34 0v17l69 24v350l-72 2v18l154 55v-111h2c22 52 60 111 126 111c23 0 41 -8 55 -19l-8 -100h-20c-13 36 -33 54 -60 54c-48 0 -95 -75 -95 -133v-227l86 -24v-17h-237zM228 512l-87 159l16 5l83 -94l83 94l16 -5l-86 -159h-25z" />
    <glyph glyph-name="Sacute" unicode="&#x15a;" horiz-adv-x="447" 
d="M375 506h-22c-18 78 -55 100 -113 100c-67 0 -104 -42 -104 -106c0 -58 31 -88 117 -131c112 -55 152 -109 152 -190c0 -106 -75 -193 -203 -193c-69 0 -109 17 -153 39v129h22c20 -103 58 -133 137 -133c61 0 112 41 112 115c0 60 -29 103 -122 149
c-90 43 -136 93 -136 184c0 93 63 171 185 171c52 0 96 -12 128 -27v-107zM230 683l-15 12l129 109l57 -50z" />
    <glyph glyph-name="sacute" unicode="&#x15b;" horiz-adv-x="366" 
d="M305 444v-86h-26c-12 65 -47 77 -87 77c-42 0 -73 -28 -73 -72c0 -45 21 -65 101 -95c67 -24 111 -62 111 -135c0 -84 -64 -147 -162 -147c-48 0 -88 11 -122 31v114h26c10 -77 38 -113 102 -113c56 0 85 36 85 80c0 42 -20 73 -91 100c-79 29 -114 67 -114 135
c0 77 55 133 149 133c46 0 76 -11 101 -22zM202 508l-15 9l74 154l59 -33z" />
    <glyph glyph-name="Scircumflex" unicode="&#x15c;" horiz-adv-x="447" 
d="M375 506h-22c-18 78 -55 100 -113 100c-67 0 -104 -42 -104 -106c0 -58 31 -88 117 -131c112 -55 152 -109 152 -190c0 -106 -75 -193 -203 -193c-69 0 -109 17 -153 39v129h22c20 -103 58 -133 137 -133c61 0 112 41 112 115c0 60 -29 103 -122 149
c-90 43 -136 93 -136 184c0 93 63 171 185 171c52 0 96 -12 128 -27v-107zM234 796h25l95 -117l-15 -5l-93 49l-93 -49l-16 5z" />
    <glyph glyph-name="scircumflex" unicode="&#x15d;" horiz-adv-x="366" 
d="M305 444v-86h-26c-12 65 -47 77 -87 77c-42 0 -73 -28 -73 -72c0 -45 21 -65 101 -95c67 -24 111 -62 111 -135c0 -84 -64 -147 -162 -147c-48 0 -88 11 -122 31v114h26c10 -77 38 -113 102 -113c56 0 85 36 85 80c0 42 -20 73 -91 100c-79 29 -114 67 -114 135
c0 77 55 133 149 133c46 0 76 -11 101 -22zM184 670h25l86 -159l-15 -5l-84 94l-84 -94l-15 5z" />
    <glyph glyph-name="Scedilla" unicode="&#x15e;" horiz-adv-x="447" 
d="M375 506h-22c-18 78 -55 100 -113 100c-67 0 -104 -42 -104 -106c0 -58 31 -88 117 -131c112 -55 152 -109 152 -190c0 -104 -72 -189 -195 -193l-13 -41h15c44 0 88 -12 88 -62c0 -60 -60 -76 -114 -76c-12 0 -32 3 -47 5v20c7 -1 19 -2 25 -2c41 0 66 14 66 50
c0 25 -20 44 -69 44l26 62c-60 3 -98 18 -138 39v129h22c20 -103 58 -133 137 -133c61 0 112 41 112 115c0 60 -29 103 -122 149c-90 43 -136 93 -136 184c0 93 63 171 185 171c52 0 96 -12 128 -27v-107z" />
    <glyph glyph-name="scedilla" unicode="&#x15f;" horiz-adv-x="366" 
d="M305 444v-86h-26c-12 65 -47 77 -87 77c-42 0 -73 -28 -73 -72c0 -45 21 -65 101 -95c67 -24 111 -62 111 -135c0 -79 -56 -138 -144 -146l-15 -42h14c48 0 97 -12 97 -62c0 -59 -65 -75 -123 -75c-12 0 -34 2 -50 4v20c7 -1 20 -2 26 -2c46 0 77 14 77 50
c0 24 -24 45 -80 45l29 61c-45 1 -83 12 -115 31v114h26c10 -77 38 -113 102 -113c56 0 85 36 85 80c0 42 -20 73 -91 100c-79 29 -114 67 -114 135c0 77 55 133 149 133c46 0 76 -11 101 -22z" />
    <glyph glyph-name="Scaron" unicode="&#x160;" horiz-adv-x="447" 
d="M375 506h-22c-18 78 -55 100 -113 100c-67 0 -104 -42 -104 -106c0 -58 31 -88 117 -131c112 -55 152 -109 152 -190c0 -106 -75 -193 -203 -193c-69 0 -109 17 -153 39v129h22c20 -103 58 -133 137 -133c61 0 112 41 112 115c0 60 -29 103 -122 149
c-90 43 -136 93 -136 184c0 93 63 171 185 171c52 0 96 -12 128 -27v-107zM124 792l15 6l94 -60l92 60l16 -6l-96 -117h-25z" />
    <glyph glyph-name="scaron" unicode="&#x161;" horiz-adv-x="366" 
d="M305 444v-86h-26c-12 65 -47 77 -87 77c-42 0 -73 -28 -73 -72c0 -45 21 -65 101 -95c67 -24 111 -62 111 -135c0 -84 -64 -147 -162 -147c-48 0 -88 11 -122 31v114h26c10 -77 38 -113 102 -113c56 0 85 36 85 80c0 42 -20 73 -91 100c-79 29 -114 67 -114 135
c0 77 55 133 149 133c46 0 76 -11 101 -22zM182 512l-87 159l16 5l83 -94l83 94l16 -5l-86 -159h-25z" />
    <glyph glyph-name="uni0162" unicode="&#x162;" horiz-adv-x="562" 
d="M20 626h522v-136h-24c-23 85 -30 97 -96 97h-94v-546l93 -24v-17h-281v17l93 24v546h-94c-66 0 -73 -12 -96 -97h-23v136zM251 -221l-15 9c30 38 36 59 36 81c0 14 -29 39 -45 50l40 31c26 -3 65 -28 65 -62c0 -42 -49 -86 -81 -109z" />
    <glyph glyph-name="uni0163" unicode="&#x163;" horiz-adv-x="324" 
d="M327 80l-35 -66c-21 -19 -54 -28 -84 -28c-87 0 -119 60 -119 165v239h-70v17l80 36l48 139h24v-141h121v-51h-121v-212c0 -79 9 -131 67 -131c27 0 50 10 76 42zM151 -221l-15 9c30 38 36 59 36 81c0 14 -29 39 -45 50l40 31c26 -3 65 -28 65 -62
c0 -42 -49 -86 -81 -109z" />
    <glyph glyph-name="Tcaron" unicode="&#x164;" horiz-adv-x="562" 
d="M20 626h522v-136h-24c-23 85 -30 97 -96 97h-94v-546l93 -24v-17h-281v17l93 24v546h-94c-66 0 -73 -12 -96 -97h-23v136zM175 792l15 6l94 -60l92 60l16 -6l-96 -117h-25z" />
    <glyph glyph-name="tcaron" unicode="&#x165;" horiz-adv-x="324" 
d="M327 80l-35 -66c-21 -19 -54 -28 -84 -28c-87 0 -119 60 -119 165v239h-70v17l80 36l48 139h24v-141h121v-51h-121v-212c0 -79 9 -131 67 -131c27 0 50 10 76 42zM240 500l-18 11c19 28 32 50 32 87c0 29 -17 46 -37 64l41 34c16 -6 57 -35 57 -72
c0 -36 -31 -81 -75 -124z" />
    <glyph glyph-name="Tbar" unicode="&#x166;" horiz-adv-x="562" 
d="M20 626h522v-136h-24c-23 85 -30 97 -96 97h-94v-242h106v-36h-106v-268l93 -24v-17h-281v17l93 24v268h-103v36h103v242h-94c-66 0 -73 -12 -96 -97h-23v136z" />
    <glyph glyph-name="tbar" unicode="&#x167;" horiz-adv-x="324" 
d="M22 244v38h66v108h-69v17l78 36l48 148h25v-150h127v-51h-127v-108h122v-38h-122v-66c0 -73 8 -130 64 -130c28 0 61 16 84 43l10 -12l-52 -74c-17 -10 -47 -19 -72 -19c-86 0 -116 62 -116 167v91h-66z" />
    <glyph glyph-name="Utilde" unicode="&#x168;" horiz-adv-x="675" 
d="M29 626h255v-17l-79 -24v-318c0 -180 60 -230 161 -230c102 0 169 68 168 246l-1 302l-81 24v17h198v-17l-65 -24l-8 -327c-5 -171 -84 -272 -240 -272c-142 0 -225 67 -225 249v350l-83 24v17zM276 688l-16 9c18 43 43 86 86 86c39 0 67 -35 97 -35c24 0 38 5 63 41
l13 -10c-14 -35 -41 -85 -85 -85c-42 0 -67 34 -96 34c-25 0 -40 -9 -62 -40z" />
    <glyph glyph-name="utilde" unicode="&#x169;" horiz-adv-x="532" 
d="M358 -14v100h-3c-29 -49 -87 -100 -156 -100c-82 0 -108 54 -108 151v267l-68 10v17l150 35v-308c0 -62 5 -114 69 -114c19 0 52 8 83 42c24 27 33 54 33 98v225l-63 24v17l146 11v-404l74 -1v-17zM163 540l-16 10c14 36 44 82 84 82c32 0 59 -28 94 -28c18 0 32 2 55 38
l15 -10c-15 -37 -44 -82 -83 -82c-31 0 -64 28 -96 28c-18 0 -32 -6 -53 -38z" />
    <glyph glyph-name="Umacron" unicode="&#x16a;" horiz-adv-x="675" 
d="M29 626h255v-17l-79 -24v-318c0 -180 60 -230 161 -230c102 0 169 68 168 246l-1 302l-81 24v17h198v-17l-65 -24l-8 -327c-5 -171 -84 -272 -240 -272c-142 0 -225 67 -225 249v350l-83 24v17zM266 720v56h226v-56h-226z" />
    <glyph glyph-name="umacron" unicode="&#x16b;" horiz-adv-x="532" 
d="M358 -14v100h-3c-29 -49 -87 -100 -156 -100c-82 0 -108 54 -108 151v267l-68 10v17l150 35v-308c0 -62 5 -114 69 -114c19 0 52 8 83 42c24 27 33 54 33 98v225l-63 24v17l146 11v-404l74 -1v-17zM160 571v52h228v-52h-228z" />
    <glyph glyph-name="Ubreve" unicode="&#x16c;" horiz-adv-x="675" 
d="M29 626h255v-17l-79 -24v-318c0 -180 60 -230 161 -230c102 0 169 68 168 246l-1 302l-81 24v17h198v-17l-65 -24l-8 -327c-5 -171 -84 -272 -240 -272c-142 0 -225 67 -225 249v350l-83 24v17zM452 805h23c-2 -57 -15 -122 -105 -122c-91 0 -102 65 -104 122h22
c6 -32 16 -61 82 -61c65 0 77 29 82 61z" />
    <glyph glyph-name="ubreve" unicode="&#x16d;" horiz-adv-x="532" 
d="M358 -14v100h-3c-29 -49 -87 -100 -156 -100c-82 0 -108 54 -108 151v267l-68 10v17l150 35v-308c0 -62 5 -114 69 -114c19 0 52 8 83 42c24 27 33 54 33 98v225l-63 24v17l146 11v-404l74 -1v-17zM349 659h23c-1 -57 -21 -125 -108 -125s-106 68 -108 125h23
c6 -32 12 -71 85 -71c74 0 79 39 85 71z" />
    <glyph glyph-name="Uring" unicode="&#x16e;" horiz-adv-x="675" 
d="M29 626h255v-17l-79 -24v-318c0 -180 60 -230 161 -230c102 0 169 68 168 246l-1 302l-81 24v17h198v-17l-65 -24l-8 -327c-5 -171 -84 -272 -240 -272c-142 0 -225 67 -225 249v350l-83 24v17zM379 672c-48 0 -85 37 -85 85s37 85 85 85s86 -37 86 -85s-38 -85 -86 -85z
M333 757c0 -27 20 -46 46 -46c27 0 47 19 47 46s-20 46 -47 46c-26 0 -46 -19 -46 -46z" />
    <glyph glyph-name="uring" unicode="&#x16f;" horiz-adv-x="532" 
d="M358 -14v100h-3c-29 -49 -87 -100 -156 -100c-82 0 -108 54 -108 151v267l-68 10v17l150 35v-308c0 -62 5 -114 69 -114c19 0 52 8 83 42c24 27 33 54 33 98v225l-63 24v17l146 11v-404l74 -1v-17zM267 520c-50 0 -87 36 -87 86s37 87 87 87c51 0 87 -37 87 -87
s-36 -86 -87 -86zM217 606c0 -28 22 -50 50 -50s51 22 51 50s-23 50 -51 50s-50 -22 -50 -50z" />
    <glyph glyph-name="Uhungarumlaut" unicode="&#x170;" horiz-adv-x="675" 
d="M29 626h255v-17l-79 -24v-318c0 -180 60 -230 161 -230c102 0 169 68 168 246l-1 302l-81 24v17h198v-17l-65 -24l-8 -327c-5 -171 -84 -272 -240 -272c-142 0 -225 67 -225 249v350l-83 24v17zM291 677l-15 10l103 113l58 -39zM422 677l-14 10l104 113l48 -48z" />
    <glyph glyph-name="uhungarumlaut" unicode="&#x171;" horiz-adv-x="532" 
d="M358 -14v100h-3c-29 -49 -87 -100 -156 -100c-82 0 -108 54 -108 151v267l-68 10v17l150 35v-308c0 -62 5 -114 69 -114c19 0 52 8 83 42c24 27 33 54 33 98v225l-63 24v17l146 11v-404l74 -1v-17zM207 513l-15 9l101 154l50 -36zM328 513l-15 9l111 154l50 -36z" />
    <glyph glyph-name="Uogonek" unicode="&#x172;" horiz-adv-x="675" 
d="M436 -122l10 -23c-22 -19 -58 -42 -94 -42c-44 0 -72 26 -72 64c0 45 44 84 81 110c-8 0 -16 -1 -24 -1c-142 0 -225 67 -225 249v350l-83 24v17h255v-17l-79 -24v-318c0 -180 60 -230 161 -230c102 0 169 68 168 246l-1 302l-81 24v17h198v-17l-65 -24l-8 -327
c-5 -146 -63 -241 -176 -265c-27 -24 -55 -57 -55 -98c0 -33 23 -40 39 -40c14 0 35 6 51 23z" />
    <glyph glyph-name="uogonek" unicode="&#x173;" horiz-adv-x="534" 
d="M358 -9v95h-2c-30 -49 -88 -100 -157 -100c-81 0 -108 54 -108 151v267l-72 10v17l154 35v-308c0 -62 5 -114 70 -114c18 0 52 8 82 42c24 27 33 54 33 98v226l-68 20v17l151 19v-409l75 -1v-17l-35 -12c-33 -23 -92 -83 -92 -133c0 -32 23 -43 46 -43c15 0 39 7 57 24
l12 -22c-23 -19 -64 -42 -105 -42c-45 0 -71 26 -71 63c0 51 54 94 110 139l-4 3z" />
    <glyph glyph-name="Wcircumflex" unicode="&#x174;" horiz-adv-x="810" 
d="M12 626h235v-17l-75 -24l91 -413h4l159 453h14l157 -452h4l88 412l-79 24v17h193v-17l-57 -24l-161 -599h-17l-157 467h-1l-172 -467h-16l-146 599l-64 24v17zM417 796h25l95 -117l-15 -5l-93 49l-93 -49l-16 5z" />
    <glyph glyph-name="wcircumflex" unicode="&#x175;" horiz-adv-x="632" 
d="M12 452h195v-17l-63 -22l64 -293h2l128 331h11l121 -324h2l65 286l-63 22v17h158v-17l-46 -22l-131 -427h-15l-120 324l-137 -324h-16l-108 427l-47 22v17zM331 670h25l86 -159l-15 -5l-84 94l-84 -94l-15 5z" />
    <glyph glyph-name="Ycircumflex" unicode="&#x176;" horiz-adv-x="566" 
d="M13 626h223v-17l-66 -24l148 -267l131 267l-75 24v17h179v-17l-46 -24l-177 -308v-236l82 -24v-17h-258v17l84 24v232l-169 312l-56 24v17zM297 796h25l95 -117l-15 -5l-93 49l-93 -49l-16 5z" />
    <glyph glyph-name="ycircumflex" unicode="&#x177;" horiz-adv-x="475" 
d="M420 413l-154 -422c-45 -121 -83 -207 -152 -207c-24 0 -44 6 -58 17v96h19c7 -33 32 -49 55 -49c34 0 75 56 99 153l-167 412l-50 22v17h209v-17l-69 -22l119 -310l97 310l-62 22v17h165v-17zM260 670h25l86 -159l-15 -5l-84 94l-84 -94l-15 5z" />
    <glyph glyph-name="Ydieresis" unicode="&#x178;" horiz-adv-x="566" 
d="M13 626h223v-17l-66 -24l148 -267l131 267l-75 24v17h179v-17l-46 -24l-177 -308v-236l82 -24v-17h-258v17l84 24v232l-169 312l-56 24v17zM206 696c-26 0 -48 22 -48 48c0 27 22 48 48 48s47 -21 47 -48c0 -26 -21 -48 -47 -48zM406 696c-26 0 -47 22 -47 48
c0 27 21 48 47 48c27 0 48 -21 48 -48c0 -26 -21 -48 -48 -48z" />
    <glyph glyph-name="Zacute" unicode="&#x179;" horiz-adv-x="567" 
d="M66 626h445v-19l-359 -566h225c86 0 103 16 128 119h21v-160h-498v17l366 573l-166 -2c-102 -1 -114 -16 -141 -98h-21v136zM267 683l-15 12l129 109l57 -50z" />
    <glyph glyph-name="zacute" unicode="&#x17a;" horiz-adv-x="437" 
d="M31 0v17l266 396h-129c-46 0 -65 -8 -87 -87h-20v126h342v-19l-262 -392l142 -2c60 -1 75 12 99 108h21v-147h-372zM231 508l-15 9l74 154l59 -33z" />
    <glyph glyph-name="Zdotaccent" unicode="&#x17b;" horiz-adv-x="567" 
d="M66 626h445v-19l-359 -566h225c86 0 103 16 128 119h21v-160h-498v17l366 573l-166 -2c-102 -1 -114 -16 -141 -98h-21v136zM295 695c-31 0 -55 24 -55 55c0 30 24 55 55 55s55 -25 55 -55c0 -31 -24 -55 -55 -55z" />
    <glyph glyph-name="zdotaccent" unicode="&#x17c;" horiz-adv-x="437" 
d="M31 0v17l266 396h-129c-46 0 -65 -8 -87 -87h-20v126h342v-19l-262 -392l142 -2c60 -1 75 12 99 108h21v-147h-372zM245 562c-27 0 -48 20 -48 48c0 27 21 49 48 49c28 0 49 -22 49 -49c0 -28 -21 -48 -49 -48z" />
    <glyph glyph-name="Zcaron" unicode="&#x17d;" horiz-adv-x="567" 
d="M66 626h445v-19l-359 -566h225c86 0 103 16 128 119h21v-160h-498v17l366 573l-166 -2c-102 -1 -114 -16 -141 -98h-21v136zM187 792l15 6l94 -60l92 60l16 -6l-96 -117h-25z" />
    <glyph glyph-name="zcaron" unicode="&#x17e;" horiz-adv-x="437" 
d="M31 0v17l266 396h-129c-46 0 -65 -8 -87 -87h-20v126h342v-19l-262 -392l142 -2c60 -1 75 12 99 108h21v-147h-372zM237 512l-87 159l16 5l83 -94l83 94l16 -5l-86 -159h-25z" />
    <glyph glyph-name="longs" unicode="&#x17f;" horiz-adv-x="298" 
d="M27 0v17l72 24v346l-56 29v16l56 8v22c0 116 28 236 172 236c28 0 64 -7 100 -24l-9 -108h-24c-13 59 -38 98 -81 98c-53 0 -76 -56 -76 -168v-455l91 -24v-17h-245z" />
    <glyph glyph-name="Schwa" unicode="&#x18f;" horiz-adv-x="568" 
d="M69 489l25 101c45 28 100 49 182 49c160 0 253 -117 253 -311c0 -192 -95 -342 -252 -342c-198 0 -237 200 -237 262l52 31h332c1 12 1 31 1 53c0 186 -79 272 -177 272c-78 0 -129 -70 -150 -115h-29zM420 238l-281 1c0 -87 26 -218 139 -218c89 0 134 105 142 217z" />
    <glyph glyph-name="florin" unicode="&#x192;" horiz-adv-x="486" 
d="M8 -216l19 74c59 -1 87 10 108 78c24 83 30 252 42 396l-94 7v23l99 7c16 100 57 256 206 256c44 0 71 -16 99 -32l-19 -93h-20c-4 53 -18 96 -68 96c-88 0 -103 -133 -113 -227l126 -7v-23l-130 -7c-18 -164 -38 -335 -108 -445c-47 -74 -88 -103 -147 -103z" />
    <glyph glyph-name="Obar" unicode="&#x19f;" horiz-adv-x="695" 
d="M361 640c183 0 292 -121 292 -313c0 -213 -128 -341 -318 -341c-186 0 -293 128 -293 324c0 189 120 330 319 330zM546 338c-5 164 -75 267 -199 267c-125 0 -193 -109 -200 -267h399zM547 299h-400c5 -172 76 -278 199 -278c130 0 198 111 201 278z" />
    <glyph glyph-name="Yogh" unicode="&#x1b7;" horiz-adv-x="518" 
d="M67 626h386v-19l-175 -261c83 -13 178 -71 178 -201c0 -141 -127 -267 -376 -267l-9 33c186 2 285 101 285 214c0 86 -58 138 -131 151l-26 -7l-9 10l46 63l115 201l-164 -1c-63 0 -85 -4 -100 -69h-20v153z" />
    <glyph glyph-name="Acaron" unicode="&#x1cd;" horiz-adv-x="625" 
d="M74 41l235 598h21l222 -598l61 -24v-17h-240v17l80 24l-58 161h-213l-55 -161l72 -24v-17h-186v17zM285 493l-88 -243h182l-93 243h-1zM211 792l15 6l94 -60l92 60l16 -6l-96 -117h-25z" />
    <glyph glyph-name="acaron" unicode="&#x1ce;" horiz-adv-x="458" 
d="M83 433c41 16 103 33 167 33c110 0 124 -61 124 -143v-272l73 -3v-17l-156 -45l2 78h-2c-27 -47 -77 -78 -133 -78c-75 0 -122 48 -122 121c0 115 116 147 255 163v55c0 67 -17 106 -73 106c-54 0 -92 -28 -112 -99h-23v101zM291 240c-107 -13 -169 -40 -169 -121
c0 -50 30 -77 75 -77c29 0 50 9 69 28c14 16 25 41 25 80v90zM217 512l-87 159l16 5l83 -94l83 94l16 -5l-86 -159h-25z" />
    <glyph glyph-name="Icaron" unicode="&#x1cf;" horiz-adv-x="335" 
d="M37 0v17l83 24v544l-83 24v17h262v-17l-84 -24v-544l84 -24v-17h-262zM60 792l15 6l94 -60l92 60l16 -6l-96 -117h-25z" />
    <glyph glyph-name="icaron" unicode="&#x1d0;" horiz-adv-x="273" 
d="M33 0v17l69 24v350l-72 2v18l155 55v-425l70 -24v-17h-222zM131 512l-87 159l16 5l83 -94l83 94l16 -5l-86 -159h-25z" />
    <glyph glyph-name="Ocaron" unicode="&#x1d1;" horiz-adv-x="674" 
d="M327 -14c-176 0 -285 140 -285 324c0 178 118 330 305 330c173 0 286 -129 286 -314c0 -201 -134 -340 -306 -340zM342 605c-127 0 -195 -125 -195 -290c0 -175 69 -294 188 -294c131 0 192 123 192 292c0 173 -58 292 -185 292zM233 792l15 6l94 -60l92 60l16 -6
l-96 -117h-25z" />
    <glyph glyph-name="ocaron" unicode="&#x1d2;" horiz-adv-x="493" 
d="M236 -14c-119 0 -198 82 -198 228c0 136 71 252 222 252c121 0 195 -82 195 -218c0 -152 -79 -262 -219 -262zM131 223c0 -137 37 -205 114 -205s117 88 117 211c0 148 -40 205 -112 205c-86 0 -119 -92 -119 -211zM234 512l-87 159l16 5l83 -94l83 94l16 -5l-86 -159
h-25z" />
    <glyph glyph-name="Ucaron" unicode="&#x1d3;" horiz-adv-x="675" 
d="M29 626h255v-17l-79 -24v-318c0 -180 60 -230 161 -230c102 0 169 68 168 246l-1 302l-81 24v17h198v-17l-65 -24l-8 -327c-5 -171 -84 -272 -240 -272c-142 0 -225 67 -225 249v350l-83 24v17zM259 792l15 6l94 -60l92 60l16 -6l-96 -117h-25z" />
    <glyph glyph-name="ucaron" unicode="&#x1d4;" horiz-adv-x="532" 
d="M358 -14v100h-3c-29 -49 -87 -100 -156 -100c-82 0 -108 54 -108 151v267l-68 10v17l150 35v-308c0 -62 5 -114 69 -114c19 0 52 8 83 42c24 27 33 54 33 98v225l-63 24v17l146 11v-404l74 -1v-17zM253 512l-87 159l16 5l83 -94l83 94l16 -5l-86 -159h-25z" />
    <glyph glyph-name="Udieresismacron" unicode="&#x1d5;" horiz-adv-x="675" 
d="M29 626h255v-17l-79 -24v-318c0 -180 60 -230 161 -230c102 0 169 68 168 246l-1 302l-81 24v17h198v-17l-65 -24l-8 -327c-5 -171 -84 -272 -240 -272c-142 0 -225 67 -225 249v350l-83 24v17zM282 696c-26 0 -48 22 -48 48c0 27 22 48 48 48s47 -21 47 -48
c0 -26 -21 -48 -47 -48zM482 696c-26 0 -47 22 -47 48c0 27 21 48 47 48c27 0 48 -21 48 -48c0 -26 -21 -48 -48 -48zM272 862v56h226v-56h-226z" />
    <glyph glyph-name="udieresismacron" unicode="&#x1d6;" horiz-adv-x="532" 
d="M358 -14v100h-3c-29 -49 -87 -100 -156 -100c-82 0 -108 54 -108 151v267l-68 10v17l150 35v-308c0 -62 5 -114 69 -114c19 0 52 8 83 42c24 27 33 54 33 98v225l-63 24v17l146 11v-404l74 -1v-17zM191 560c-25 0 -46 20 -46 46c0 25 21 46 46 46s46 -21 46 -46
c0 -26 -21 -46 -46 -46zM368 560c-25 0 -45 20 -45 46c0 25 20 46 45 46c26 0 47 -21 47 -46c0 -26 -21 -46 -47 -46zM168 714v52h228v-52h-228z" />
    <glyph glyph-name="Udieresisacute" unicode="&#x1d7;" horiz-adv-x="675" 
d="M29 626h255v-17l-79 -24v-318c0 -180 60 -230 161 -230c102 0 169 68 168 246l-1 302l-81 24v17h198v-17l-65 -24l-8 -327c-5 -171 -84 -272 -240 -272c-142 0 -225 67 -225 249v350l-83 24v17zM282 696c-26 0 -48 22 -48 48c0 27 22 48 48 48s47 -21 47 -48
c0 -26 -21 -48 -47 -48zM482 696c-26 0 -47 22 -47 48c0 27 21 48 47 48c27 0 48 -21 48 -48c0 -26 -21 -48 -48 -48zM368 816l-15 12l129 109l57 -50z" />
    <glyph glyph-name="udieresisacute" unicode="&#x1d8;" horiz-adv-x="532" 
d="M358 -14v100h-3c-29 -49 -87 -100 -156 -100c-82 0 -108 54 -108 151v267l-68 10v17l150 35v-308c0 -62 5 -114 69 -114c19 0 52 8 83 42c24 27 33 54 33 98v225l-63 24v17l146 11v-404l74 -1v-17zM191 560c-25 0 -46 20 -46 46c0 25 21 46 46 46s46 -21 46 -46
c0 -26 -21 -46 -46 -46zM368 560c-25 0 -45 20 -45 46c0 25 20 46 45 46c26 0 47 -21 47 -46c0 -26 -21 -46 -47 -46zM275 651l-15 9l74 154l59 -33z" />
    <glyph glyph-name="Udieresiscaron" unicode="&#x1d9;" horiz-adv-x="675" 
d="M29 626h255v-17l-79 -24v-318c0 -180 60 -230 161 -230c102 0 169 68 168 246l-1 302l-81 24v17h198v-17l-65 -24l-8 -327c-5 -171 -84 -272 -240 -272c-142 0 -225 67 -225 249v350l-83 24v17zM277 925l15 6l94 -60l92 60l16 -6l-96 -117h-25zM282 696
c-26 0 -48 22 -48 48c0 27 22 48 48 48s47 -21 47 -48c0 -26 -21 -48 -47 -48zM482 696c-26 0 -47 22 -47 48c0 27 21 48 47 48c27 0 48 -21 48 -48c0 -26 -21 -48 -48 -48z" />
    <glyph glyph-name="udieresiscaron" unicode="&#x1da;" horiz-adv-x="532" 
d="M358 -14v100h-3c-29 -49 -87 -100 -156 -100c-82 0 -108 54 -108 151v267l-68 10v17l150 35v-308c0 -62 5 -114 69 -114c19 0 52 8 83 42c24 27 33 54 33 98v225l-63 24v17l146 11v-404l74 -1v-17zM271 655l-87 159l16 5l83 -94l83 94l16 -5l-86 -159h-25zM191 560
c-25 0 -46 20 -46 46c0 25 21 46 46 46s46 -21 46 -46c0 -26 -21 -46 -46 -46zM368 560c-25 0 -45 20 -45 46c0 25 20 46 45 46c26 0 47 -21 47 -46c0 -26 -21 -46 -47 -46z" />
    <glyph glyph-name="Udieresisgrave" unicode="&#x1db;" horiz-adv-x="675" 
d="M29 626h255v-17l-79 -24v-318c0 -180 60 -230 161 -230c102 0 169 68 168 246l-1 302l-81 24v17h198v-17l-65 -24l-8 -327c-5 -171 -84 -272 -240 -272c-142 0 -225 67 -225 249v350l-83 24v17zM395 815l-153 74l62 48l104 -109zM282 696c-26 0 -48 22 -48 48
c0 27 22 48 48 48s47 -21 47 -48c0 -26 -21 -48 -47 -48zM482 696c-26 0 -47 22 -47 48c0 27 21 48 47 48c27 0 48 -21 48 -48c0 -26 -21 -48 -48 -48z" />
    <glyph glyph-name="udieresisgrave" unicode="&#x1dc;" horiz-adv-x="532" 
d="M358 -14v100h-3c-29 -49 -87 -100 -156 -100c-82 0 -108 54 -108 151v267l-68 10v17l150 35v-308c0 -62 5 -114 69 -114c19 0 52 8 83 42c24 27 33 54 33 98v225l-63 24v17l146 11v-404l74 -1v-17zM283 653l-101 132l63 29l53 -154zM191 560c-25 0 -46 20 -46 46
c0 25 21 46 46 46s46 -21 46 -46c0 -26 -21 -46 -46 -46zM368 560c-25 0 -45 20 -45 46c0 25 20 46 45 46c26 0 47 -21 47 -46c0 -26 -21 -46 -47 -46z" />
    <glyph glyph-name="uni01F1" unicode="&#x1f1;" horiz-adv-x="1224" 
d="M38 0v17l82 24v544l-83 24v17h259c177 0 323 -63 323 -293c0 -223 -140 -333 -336 -333h-245zM215 589v-548c24 -4 48 -8 71 -8c156 0 229 113 229 295c0 165 -60 267 -221 267c-19 0 -60 -4 -79 -6zM721 626h445v-19l-359 -566h225c86 0 103 16 128 119h21v-160h-498v17
l366 573l-166 -2c-102 -1 -114 -16 -141 -98h-21v136z" />
    <glyph glyph-name="uni01F2" unicode="&#x1f2;" horiz-adv-x="1110" 
d="M38 0v17l82 24v544l-83 24v17h259c177 0 323 -63 323 -293c0 -223 -140 -333 -336 -333h-245zM215 589v-548c24 -4 48 -8 71 -8c156 0 229 113 229 295c0 165 -60 267 -221 267c-19 0 -60 -4 -79 -6zM694 0v17l266 396h-129c-46 0 -65 -8 -87 -87h-20v126h342v-19
l-262 -392l142 -2c60 -1 75 12 99 108h21v-147h-372z" />
    <glyph glyph-name="uni01F3" unicode="&#x1f3;" horiz-adv-x="938" 
d="M258 656l159 54v-658l74 -3v-17l-156 -46v88h-1c-25 -47 -76 -88 -140 -88c-97 0 -156 89 -156 223c0 147 80 257 204 257c41 0 74 -12 93 -26v197l-77 2v17zM128 225c0 -108 33 -180 104 -180c37 0 83 17 96 90c6 26 8 88 8 134c0 33 1 87 -7 111c-10 33 -40 53 -78 53
c-79 0 -123 -82 -123 -208zM531 0v17l266 396h-129c-46 0 -65 -8 -87 -87h-20v126h342v-19l-262 -392l142 -2c60 -1 75 12 99 108h21v-147h-372z" />
    <glyph glyph-name="Aringacute" unicode="&#x1fa;" horiz-adv-x="625" 
d="M74 41l233 592c-42 6 -73 41 -73 85c0 48 37 85 85 85s86 -37 86 -85c0 -44 -32 -78 -73 -84l220 -593l61 -24v-17h-240v17l80 24l-58 161h-213l-55 -161l72 -24v-17h-186v17zM285 493l-88 -243h182l-93 243h-1zM304 834l-15 12l129 109l57 -50zM273 718
c0 -27 20 -46 46 -46c27 0 47 19 47 46s-20 46 -47 46c-26 0 -46 -19 -46 -46z" />
    <glyph glyph-name="aringacute" unicode="&#x1fb;" horiz-adv-x="458" 
d="M235 732l-15 9l88 135l56 -36zM83 433c41 16 103 33 167 33c110 0 124 -61 124 -143v-272l73 -3v-17l-156 -45l2 78h-2c-27 -47 -77 -78 -133 -78c-75 0 -122 48 -122 121c0 115 116 147 255 163v55c0 67 -17 106 -73 106c-54 0 -92 -28 -112 -99h-23v101zM291 240
c-107 -13 -169 -40 -169 -121c0 -50 30 -77 75 -77c29 0 50 9 69 28c14 16 25 41 25 80v90zM237 520c-50 0 -87 36 -87 86s37 87 87 87c51 0 87 -37 87 -87s-36 -86 -87 -86zM187 606c0 -28 22 -50 50 -50s51 22 51 50s-23 50 -51 50s-50 -22 -50 -50z" />
    <glyph glyph-name="AEacute" unicode="&#x1fc;" horiz-adv-x="821" 
d="M281 626h462v-137h-21c-25 89 -34 98 -106 98h-135v-243l146 5l22 81h19v-208h-19l-22 83l-146 4v-266h152c79 0 98 3 122 118h21v-161h-469v17l81 24v223h-166l-115 -223l85 -24v-17h-210v17l70 24l306 546l-77 22v17zM242 303h146v277h-2zM487 683l-15 12l129 109
l57 -50z" />
    <glyph glyph-name="aeacute" unicode="&#x1fd;" horiz-adv-x="684" 
d="M87 431c37 18 95 35 154 35c62 0 91 -27 105 -65c37 41 85 65 139 65c141 0 155 -144 157 -214h-274c0 -10 -1 -24 -1 -33c0 -118 41 -202 123 -202c74 0 113 58 137 123h21l-23 -110c-40 -24 -78 -44 -148 -44c-92 0 -149 36 -177 108c-26 -52 -78 -108 -152 -108
c-66 0 -112 40 -112 113c0 129 136 147 251 171v57c0 66 -22 106 -74 106c-56 0 -89 -38 -105 -104h-21v102zM287 240c-107 -15 -169 -45 -169 -125c0 -47 22 -79 66 -79c50 0 103 54 103 135v69zM370 285l183 2c1 48 -7 149 -79 149c-54 0 -100 -56 -104 -151zM381 508
l-15 9l74 154l59 -33z" />
    <glyph glyph-name="Oslashacute" unicode="&#x1fe;" horiz-adv-x="673" 
d="M327 -14c-58 0 -109 15 -151 42l-59 -85l-30 19l60 87c-67 58 -105 152 -105 261c0 178 118 330 305 330c67 0 124 -19 170 -54l57 83l31 -19l-60 -87c56 -56 88 -139 88 -237c0 -201 -134 -340 -306 -340zM342 605c-127 0 -195 -125 -195 -290c0 -83 15 -152 43 -203
l288 418c-30 47 -75 75 -136 75zM527 313c0 70 -10 132 -30 180l-285 -413c31 -38 72 -59 123 -59c131 0 192 123 192 292zM339 683l-15 12l129 109l57 -50z" />
    <glyph glyph-name="oslashacute" unicode="&#x1ff;" horiz-adv-x="493" 
d="M400 510l28 -17l-44 -68c46 -36 71 -96 71 -176c0 -156 -79 -263 -219 -263c-38 0 -72 9 -100 25l-45 -74l-27 17l44 75c-44 37 -70 100 -70 185c0 133 71 252 222 252c38 0 71 -8 99 -22zM326 390c-18 31 -45 43 -79 43c-83 0 -118 -91 -118 -210c0 -53 8 -95 22 -126z
M343 354l-176 -293c17 -27 44 -42 79 -42c76 0 118 89 118 210c0 54 -9 97 -21 125zM247 508l-15 9l74 154l59 -33z" />
    <glyph glyph-name="Scommaaccent" unicode="&#x218;" horiz-adv-x="447" 
d="M375 506h-22c-18 78 -55 100 -113 100c-67 0 -104 -42 -104 -106c0 -58 31 -88 117 -131c112 -55 152 -109 152 -190c0 -106 -75 -193 -203 -193c-69 0 -109 17 -153 39v129h22c20 -103 58 -133 137 -133c61 0 112 41 112 115c0 60 -29 103 -122 149
c-90 43 -136 93 -136 184c0 93 63 171 185 171c52 0 96 -12 128 -27v-107zM185 -221l-15 9c30 38 36 59 36 81c0 14 -29 39 -45 50l40 31c26 -3 65 -28 65 -62c0 -42 -49 -86 -81 -109z" />
    <glyph glyph-name="scommaaccent" unicode="&#x219;" horiz-adv-x="366" 
d="M305 444v-86h-26c-12 65 -47 77 -87 77c-42 0 -73 -28 -73 -72c0 -45 21 -65 101 -95c67 -24 111 -62 111 -135c0 -84 -64 -147 -162 -147c-48 0 -88 11 -122 31v114h26c10 -77 38 -113 102 -113c56 0 85 36 85 80c0 42 -20 73 -91 100c-79 29 -114 67 -114 135
c0 77 55 133 149 133c46 0 76 -11 101 -22zM146 -221l-15 9c30 38 36 59 36 81c0 14 -29 39 -45 50l40 31c26 -3 65 -28 65 -62c0 -42 -49 -86 -81 -109z" />
    <glyph glyph-name="uni021A" unicode="&#x21a;" horiz-adv-x="562" 
d="M20 626h522v-136h-24c-23 85 -30 97 -96 97h-94v-546l93 -24v-17h-281v17l93 24v546h-94c-66 0 -73 -12 -96 -97h-23v136zM251 -221l-15 9c30 38 36 59 36 81c0 14 -29 39 -45 50l40 31c26 -3 65 -28 65 -62c0 -42 -49 -86 -81 -109z" />
    <glyph glyph-name="uni021B" unicode="&#x21b;" horiz-adv-x="324" 
d="M327 80l-35 -66c-21 -19 -54 -28 -84 -28c-87 0 -119 60 -119 165v239h-70v17l80 36l48 139h24v-141h121v-51h-121v-212c0 -79 9 -131 67 -131c27 0 50 10 76 42zM151 -221l-15 9c30 38 36 59 36 81c0 14 -29 39 -45 50l40 31c26 -3 65 -28 65 -62
c0 -42 -49 -86 -81 -109z" />
    <glyph glyph-name="yogh" unicode="&#x292;" horiz-adv-x="410" 
d="M45 452h316v-19l-155 -218c79 -12 157 -59 157 -160c0 -138 -114 -231 -300 -231l-8 30c129 1 222 61 222 180c0 75 -61 116 -116 122l-22 -6l-7 11l39 48l106 177h-145c-40 0 -51 -5 -67 -72h-20v138z" />
    <glyph glyph-name="Ymacron" unicode="&#x232;" horiz-adv-x="566" 
d="M13 626h223v-17l-66 -24l148 -267l131 267l-75 24v17h179v-17l-46 -24l-177 -308v-236l82 -24v-17h-258v17l84 24v232l-169 312l-56 24v17zM187 720v56h226v-56h-226z" />
    <glyph glyph-name="ymacron" unicode="&#x233;" horiz-adv-x="475" 
d="M420 413l-154 -422c-45 -121 -83 -207 -152 -207c-24 0 -44 6 -58 17v96h19c7 -33 32 -49 55 -49c34 0 75 56 99 153l-167 412l-50 22v17h209v-17l-69 -22l119 -310l97 310l-62 22v17h165v-17zM140 571v52h228v-52h-228z" />
    <glyph glyph-name="dotlessj" unicode="&#x237;" horiz-adv-x="268" 
d="M188 466v-446c0 -151 -47 -236 -160 -236c-41 0 -76 13 -89 24v97h20c10 -49 33 -92 76 -92c51 0 70 53 70 168v410l-74 2v18z" />
    <glyph glyph-name="schwa" unicode="&#x259;" horiz-adv-x="438" 
d="M51 350l21 80c30 19 71 36 136 36c120 0 192 -79 192 -217c0 -151 -77 -263 -196 -263c-136 0 -166 108 -166 205l43 24h231c1 10 2 25 2 35c0 110 -51 183 -126 183c-63 0 -96 -37 -117 -83h-20zM311 179h-195c0 -87 22 -161 96 -161c55 0 92 70 99 161z" />
    <glyph glyph-name="obar" unicode="&#x275;" horiz-adv-x="494" 
d="M261 466c121 0 195 -78 195 -217c0 -156 -80 -263 -220 -263c-119 0 -198 79 -198 228c0 133 71 252 223 252zM362 253c-3 130 -43 180 -114 180c-77 0 -111 -76 -116 -180h230zM363 214h-232c1 -130 39 -195 115 -195c74 0 114 81 117 195z" />
    <glyph glyph-name="circumflex" unicode="&#x2c6;" horiz-adv-x="381" 
d="M178 670h25l86 -159l-15 -5l-84 94l-84 -94l-15 5z" />
    <glyph glyph-name="caron" unicode="&#x2c7;" horiz-adv-x="381" 
d="M178 512l-87 159l16 5l83 -94l83 94l16 -5l-86 -159h-25z" />
    <glyph glyph-name="uni02C9" unicode="&#x2c9;" horiz-adv-x="375" 
d="M74 571v52h228v-52h-228z" />
    <glyph glyph-name="breve" unicode="&#x2d8;" horiz-adv-x="375" 
d="M272 659h23c-1 -57 -21 -125 -108 -125s-106 68 -108 125h23c6 -32 12 -71 85 -71c74 0 79 39 85 71z" />
    <glyph glyph-name="dotaccent" unicode="&#x2d9;" horiz-adv-x="381" 
d="M190 562c-27 0 -48 20 -48 48c0 27 21 49 48 49c28 0 49 -22 49 -49c0 -28 -21 -48 -49 -48z" />
    <glyph glyph-name="ring" unicode="&#x2da;" horiz-adv-x="381" 
d="M190 520c-50 0 -87 36 -87 86s37 87 87 87c51 0 87 -37 87 -87s-36 -86 -87 -86zM140 606c0 -28 22 -50 50 -50s51 22 51 50s-23 50 -51 50s-50 -22 -50 -50z" />
    <glyph glyph-name="ogonek" unicode="&#x2db;" horiz-adv-x="375" 
d="M267 -125l12 -22c-23 -19 -64 -42 -106 -42c-44 0 -70 26 -70 63c0 64 93 115 126 137h23c-32 -23 -89 -66 -89 -117c0 -32 23 -43 46 -43c15 0 40 7 58 24z" />
    <glyph glyph-name="tilde" unicode="&#x2dc;" horiz-adv-x="375" 
d="M79 540l-16 10c14 36 44 82 84 82c32 0 59 -28 94 -28c18 0 32 2 55 38l15 -10c-15 -37 -44 -82 -83 -82c-31 0 -64 28 -96 28c-18 0 -32 -6 -53 -38z" />
    <glyph glyph-name="hungarumlaut" unicode="&#x2dd;" horiz-adv-x="381" 
d="M61 513l-15 9l101 154l50 -36zM182 513l-15 9l111 154l50 -36z" />
    <glyph glyph-name="uni0394" unicode="&#x394;" horiz-adv-x="578" 
d="M96 71h352l-174 437h-2zM30 0l-7 18l275 622h9l251 -590l-25 -50h-503z" />
    <glyph glyph-name="Omega" unicode="&#x2126;" horiz-adv-x="701" 
d="M25 133h14l41 -61l143 -4l7 12c-87 64 -171 139 -171 263c0 151 119 297 305 297c164 0 278 -114 278 -272c0 -128 -85 -218 -175 -288l4 -12l156 4l41 64h14l-30 -136h-258l12 56c56 32 132 144 132 291c0 129 -61 260 -179 260c-120 0 -195 -119 -195 -270
c0 -107 32 -210 134 -284l-15 -53h-232z" />
    <glyph glyph-name="uni03BC" unicode="&#x3bc;" horiz-adv-x="541" 
d="M23 414v17l152 35v-296c0 -67 6 -125 68 -125c20 0 60 14 87 47c24 28 35 58 35 103v209l-66 10v17l149 35v-409l72 -1v-17l-155 -53v112h-3c-28 -48 -92 -112 -165 -112c-35 0 -60 22 -76 45c0 -32 3 -79 10 -110c9 -40 22 -73 46 -106l-71 -31c-11 17 -20 54 -20 111
c0 80 6 192 6 281v228z" />
    <glyph glyph-name="pi" unicode="&#x3c0;" horiz-adv-x="527" 
d="M218 394l-37 -2c-52 -7 -96 -38 -136 -80l-13 13c44 64 109 130 206 127h204c31 0 84 10 84 10v-17l-83 -41l-36 -179c-10 -47 -16 -92 -16 -106c0 -16 1 -36 7 -45l86 34l7 -15l-147 -96c-26 17 -32 53 -32 84c0 22 5 66 15 115l43 199h-125s-13 -147 -52 -256
c-44 -127 -99 -151 -166 -151l30 72c5 0 71 23 82 36c17 22 77 280 79 298z" />
    <glyph glyph-name="uni0400" unicode="&#x400;" horiz-adv-x="552" 
d="M38 0v17l82 24v544l-83 24v17h436v-136h-22c-27 80 -39 97 -106 97h-130v-240l147 4l23 75h19v-192h-19l-23 74l-147 4v-269h146c79 0 94 1 123 117h22v-160h-468zM321 682l-153 74l62 48l104 -109z" />
    <glyph glyph-name="afii10023" unicode="&#x401;" horiz-adv-x="552" 
d="M38 0v17l82 24v544l-83 24v17h436v-136h-22c-27 80 -39 97 -106 97h-130v-240l147 4l23 75h19v-192h-19l-23 74l-147 4v-269h146c79 0 94 1 123 117h22v-160h-468zM196 696c-26 0 -48 22 -48 48c0 27 22 48 48 48s47 -21 47 -48c0 -26 -21 -48 -47 -48zM396 696
c-26 0 -47 22 -47 48c0 27 21 48 47 48c27 0 48 -21 48 -48c0 -26 -21 -48 -48 -48z" />
    <glyph glyph-name="afii10051" unicode="&#x402;" horiz-adv-x="627" 
d="M26 626h498v-136h-23c-20 90 -32 97 -94 97h-112v-234c16 3 52 9 92 9c120 0 201 -48 201 -227c0 -146 -55 -284 -255 -287v27c130 0 158 102 158 258c0 181 -79 193 -135 193c-21 0 -47 -3 -61 -6v-279l74 -24v-17h-248v17l81 24v546h-58c-64 0 -75 -8 -95 -97h-23v136z
" />
    <glyph glyph-name="afii10052" unicode="&#x403;" horiz-adv-x="493" 
d="M215 587v-546l84 -24v-17h-255v17l76 24v544l-76 24v17h428v-136h-21c-22 78 -37 97 -106 97h-130zM274 683l-15 12l129 109l57 -50z" />
    <glyph glyph-name="afii10053" unicode="&#x404;" horiz-adv-x="568" 
d="M513 604v-109h-21c-20 68 -60 111 -147 110c-121 0 -193 -97 -200 -260l250 16v-68l-251 16c2 -159 71 -288 194 -288c101 0 148 48 171 139h22l-13 -130c-45 -24 -100 -44 -198 -44c-195 0 -280 150 -280 323c0 200 118 331 301 331c83 0 138 -17 172 -36z" />
    <glyph glyph-name="afii10054" unicode="&#x405;" horiz-adv-x="447" 
d="M375 506h-22c-18 78 -55 100 -113 100c-67 0 -104 -42 -104 -106c0 -58 31 -88 117 -131c112 -55 152 -109 152 -190c0 -106 -75 -193 -203 -193c-69 0 -109 17 -153 39v129h22c20 -103 58 -133 137 -133c61 0 112 41 112 115c0 60 -29 103 -122 149
c-90 43 -136 93 -136 184c0 93 63 171 185 171c52 0 96 -12 128 -27v-107z" />
    <glyph glyph-name="afii10055" unicode="&#x406;" horiz-adv-x="335" 
d="M37 0v17l83 24v544l-83 24v17h262v-17l-84 -24v-544l84 -24v-17h-262z" />
    <glyph glyph-name="afii10056" unicode="&#x407;" horiz-adv-x="335" 
d="M37 0v17l83 24v544l-83 24v17h262v-17l-84 -24v-544l84 -24v-17h-262zM79 734c-25 0 -46 20 -46 46c0 25 21 46 46 46s46 -21 46 -46c0 -26 -21 -46 -46 -46zM256 734c-25 0 -45 20 -45 46c0 25 20 46 45 46c26 0 47 -21 47 -46c0 -26 -21 -46 -47 -46z" />
    <glyph glyph-name="afii10057" unicode="&#x408;" horiz-adv-x="437" 
d="M331 585v-388c0 -119 -50 -211 -176 -211c-48 0 -105 13 -132 27v125h22c15 -70 50 -121 105 -121c62 0 86 56 86 158v410l-91 24v17h261v-17z" />
    <glyph glyph-name="afii10058" unicode="&#x409;" horiz-adv-x="791" 
d="M285 639h22l96 -284c23 2 75 10 127 10c162 0 220 -73 220 -179c0 -105 -69 -186 -223 -186h-192v17l75 24l-146 449h-2l-138 -449l69 -24v-17h-175v17l55 24zM416 318l93 -277c15 -5 32 -6 47 -6c56 0 97 42 97 134c0 115 -72 156 -153 156c-31 0 -59 -4 -84 -7z" />
    <glyph glyph-name="afii10059" unicode="&#x40a;" horiz-adv-x="888" 
d="M42 626h238v-17l-64 -24v-231h250v231l-66 24v17h239v-17l-78 -24v-228c14 1 36 2 78 2c142 0 208 -66 208 -170c0 -111 -76 -189 -237 -189h-210v17l66 24v268h-250v-268l64 -24v-17h-238v17l79 24v544l-79 24v17zM561 317v-276c14 -5 41 -8 55 -8c82 0 133 53 133 148
c0 108 -73 139 -134 139c-24 0 -41 -1 -54 -3z" />
    <glyph glyph-name="afii10060" unicode="&#x40b;" horiz-adv-x="699" 
d="M26 626h503v-136h-23c-19 90 -32 97 -94 97h-117v-239c31 6 82 17 141 17c134 0 163 -59 163 -160v-164l78 -24v-17h-235v17l64 24v156c0 105 -48 128 -117 128c-25 0 -73 -7 -94 -12v-272l69 -24v-17h-242v17l80 24v546h-58c-64 0 -75 -8 -95 -97h-23v136z" />
    <glyph glyph-name="afii10061" unicode="&#x40c;" horiz-adv-x="631" 
d="M41 626h238v-17l-64 -24v-250l49 14l189 236l-61 24v17h193v-17l-68 -24l-199 -216l249 -328l53 -24v-17h-218v17l55 20l-207 273l-35 7v-276l62 -24v-17h-236v17l79 24v544l-79 24v17zM337 683l-15 12l129 109l57 -50z" />
    <glyph glyph-name="uni040D" unicode="&#x40d;" horiz-adv-x="719" 
d="M41 626h248v-17l-74 -24v-439l290 397v42l-74 24v17h247v-17l-79 -24v-544l79 -24v-17h-247v17l74 24v439l-290 -398v-41l74 -24v-17h-248v17l79 24v544l-79 24v17zM369 682l-153 74l62 48l104 -109z" />
    <glyph glyph-name="afii10062" unicode="&#x40e;" horiz-adv-x="548" 
d="M18 626h212v-17l-60 -24l150 -322h3l120 322l-66 24v17h160v-17l-42 -24l-161 -369c-47 -130 -90 -227 -134 -227c-25 0 -50 10 -65 29v9l25 67h6c13 -9 39 -17 56 -17c21 0 44 47 55 82l-211 426l-48 24v17zM376 815l36 -24c-1 -73 -33 -117 -113 -117
c-82 0 -112 44 -112 117l36 24l8 -10l-19 -40c0 -19 40 -31 87 -31c46 0 88 12 88 31l-20 40z" />
    <glyph glyph-name="afii10145" unicode="&#x40f;" horiz-adv-x="717" 
d="M41 626h246v-17l-72 -24v-538h288v538l-73 24v17h246v-17l-78 -24v-544l75 -24v-17h-276l-27 -154h-21l-27 154h-278v17l76 24v544l-79 24v17z" />
    <glyph glyph-name="afii10017" unicode="&#x410;" horiz-adv-x="625" 
d="M74 41l235 598h21l222 -598l61 -24v-17h-240v17l80 24l-58 161h-213l-55 -161l72 -24v-17h-186v17zM285 493l-88 -243h182l-93 243h-1z" />
    <glyph glyph-name="afii10018" unicode="&#x411;" horiz-adv-x="545" 
d="M44 626h411v-136h-22c-25 80 -39 97 -102 97h-116v-227c10 1 29 2 71 2c141 0 215 -60 215 -164c0 -121 -84 -198 -243 -198h-214v17l76 24v544l-76 24v17zM215 327v-286c17 -6 34 -8 58 -8c80 0 130 57 130 150c0 106 -71 146 -163 146c-8 0 -16 -1 -25 -2z" />
    <glyph glyph-name="afii10019" unicode="&#x412;" horiz-adv-x="563" 
d="M38 0v17l82 24v544l-82 24v17h253c106 0 198 -34 198 -138c0 -78 -64 -129 -121 -146v-7c71 -10 150 -53 150 -148c0 -108 -91 -187 -258 -187h-222zM215 589v-245c118 0 174 36 174 137c0 84 -50 114 -122 114c-13 0 -40 -1 -52 -6zM215 312v-271c15 -6 40 -8 57 -8
c96 0 146 54 146 149c0 105 -80 131 -178 132c-8 0 -18 -1 -25 -2z" />
    <glyph glyph-name="afii10020" unicode="&#x413;" horiz-adv-x="493" 
d="M215 587v-546l84 -24v-17h-255v17l76 24v544l-76 24v17h428v-136h-21c-22 78 -37 97 -106 97h-130z" />
    <glyph glyph-name="afii10021" unicode="&#x414;" horiz-adv-x="606" 
d="M297 639h22l203 -598l59 -10l-33 -185h-18l-24 154h-406l-26 -154h-18l-31 185l59 10zM136 43h284l-145 444h-1z" />
    <glyph glyph-name="afii10022" unicode="&#x415;" horiz-adv-x="552" 
d="M38 0v17l82 24v544l-83 24v17h436v-136h-22c-27 80 -39 97 -106 97h-130v-240l147 4l23 75h19v-192h-19l-23 74l-147 4v-269h146c79 0 94 1 123 117h22v-160h-468z" />
    <glyph glyph-name="afii10024" unicode="&#x416;" horiz-adv-x="848" 
d="M37 626h190v-17l-59 -24l147 -236l63 -14v250l-63 24v17h217v-17l-63 -24v-250l63 14l147 236l-59 24v17h190v-17l-68 -24l-156 -216l195 -328l54 -24v-17h-217v17l58 20l-154 274l-53 6v-276l60 -24v-17h-212v17l61 24v276l-52 -6l-155 -274l58 -20v-17h-216v17l52 24
l196 328l-156 216l-68 24v17z" />
    <glyph glyph-name="afii10025" unicode="&#x417;" horiz-adv-x="497" 
d="M55 610c37 13 97 29 169 30c132 1 203 -44 203 -141c0 -83 -61 -132 -115 -154v-6c74 -10 145 -53 145 -151c0 -109 -83 -199 -245 -199c-76 0 -132 19 -169 41v132h22c8 -33 23 -68 39 -90c21 -28 56 -48 107 -48c92 0 143 69 143 155c0 111 -81 141 -175 141v26
c79 0 146 37 146 137c0 84 -49 122 -119 122c-49 0 -80 -19 -94 -38s-28 -54 -35 -74h-22v117z" />
    <glyph glyph-name="afii10026" unicode="&#x418;" horiz-adv-x="719" 
d="M41 626h248v-17l-74 -24v-439l290 397v42l-74 24v17h247v-17l-79 -24v-544l79 -24v-17h-247v17l74 24v439l-290 -398v-41l74 -24v-17h-248v17l79 24v544l-79 24v17z" />
    <glyph glyph-name="afii10027" unicode="&#x419;" horiz-adv-x="719" 
d="M41 626h248v-17l-74 -24v-439l290 397v42l-74 24v17h247v-17l-79 -24v-544l79 -24v-17h-247v17l74 24v439l-290 -398v-41l74 -24v-17h-248v17l79 24v544l-79 24v17zM450 815l36 -24c-1 -73 -33 -117 -113 -117c-82 0 -112 44 -112 117l36 24l8 -10l-19 -40
c0 -19 40 -31 87 -31c46 0 88 12 88 31l-20 40z" />
    <glyph glyph-name="afii10028" unicode="&#x41a;" horiz-adv-x="631" 
d="M41 626h238v-17l-64 -24v-250l49 14l189 236l-61 24v17h193v-17l-68 -24l-199 -216l249 -328l53 -24v-17h-218v17l55 20l-207 273l-35 7v-276l62 -24v-17h-236v17l79 24v544l-79 24v17z" />
    <glyph glyph-name="afii10029" unicode="&#x41b;" horiz-adv-x="598" 
d="M294 639h23l216 -598l53 -24v-17h-232v17l79 24l-160 453h-2l-151 -453l73 -24v-17h-179v17l54 24z" />
    <glyph glyph-name="afii10030" unicode="&#x41c;" horiz-adv-x="823" 
d="M33 0v17l68 24l30 539l-83 29v17h170l194 -459h1l197 459h165v-17l-79 -24l19 -544l69 -24v-17h-250v17l87 24l-12 485h-4l-215 -523h-11l-213 516h-4l-5 -478l88 -24v-17h-212z" />
    <glyph glyph-name="afii10031" unicode="&#x41d;" horiz-adv-x="726" 
d="M38 0v17l82 24v544l-82 24v17h258v-17l-81 -24v-236h296v236l-81 24v17h257v-17l-81 -24v-544l81 -25v-16h-257v17l81 24v266h-296v-266l81 -24v-17h-258z" />
    <glyph glyph-name="afii10032" unicode="&#x41e;" horiz-adv-x="674" 
d="M327 -14c-176 0 -285 140 -285 324c0 178 118 330 305 330c173 0 286 -129 286 -314c0 -201 -134 -340 -306 -340zM342 605c-127 0 -195 -125 -195 -290c0 -175 69 -294 188 -294c131 0 192 123 192 292c0 173 -58 292 -185 292z" />
    <glyph glyph-name="afii10033" unicode="&#x41f;" horiz-adv-x="718" 
d="M44 626h630v-17l-76 -24v-544l79 -24v-17h-246v17l72 24v538h-288v-538l73 -24v-17h-247v17l79 24v544l-76 24v17z" />
    <glyph glyph-name="afii10034" unicode="&#x420;" horiz-adv-x="554" 
d="M37 626h267c130 0 215 -46 215 -164c0 -122 -95 -196 -211 -196c-19 0 -67 5 -93 10v-235l92 -24v-17h-270v17l83 24v544l-83 24v17zM215 587v-286c12 -2 29 -3 50 -3c86 0 153 47 153 157c0 81 -41 140 -139 140c-17 0 -43 -2 -64 -8z" />
    <glyph glyph-name="afii10035" unicode="&#x421;" horiz-adv-x="579" 
d="M535 160l-13 -130c-42 -20 -104 -44 -192 -44c-198 0 -287 152 -287 320c0 193 122 334 304 334c70 0 138 -16 170 -32v-120h-22c-20 71 -65 118 -150 117c-124 0 -196 -117 -196 -300c0 -160 72 -284 186 -284c112 0 152 58 178 139h22z" />
    <glyph glyph-name="afii10036" unicode="&#x422;" horiz-adv-x="562" 
d="M20 626h522v-136h-24c-23 85 -30 97 -96 97h-94v-546l93 -24v-17h-281v17l93 24v546h-94c-66 0 -73 -12 -96 -97h-23v136z" />
    <glyph glyph-name="afii10037" unicode="&#x423;" horiz-adv-x="548" 
d="M18 626h212v-17l-60 -24l150 -322h3l120 322l-66 24v17h160v-17l-42 -24l-161 -369c-47 -130 -90 -227 -134 -227c-25 0 -50 10 -65 29v9l25 67h6c13 -9 39 -17 56 -17c21 0 44 47 55 82l-211 426l-48 24v17z" />
    <glyph glyph-name="afii10038" unicode="&#x424;" horiz-adv-x="694" 
d="M235 636h224v-17l-66 -23v-46c148 -6 261 -63 261 -226c0 -159 -116 -232 -261 -245v-49l66 -23v-17h-224v17l67 23v47c-153 8 -262 68 -262 233c0 151 109 225 262 239v47l-67 23v17zM302 521c-100 -10 -161 -71 -161 -206c0 -139 64 -199 161 -209v415zM393 521v-414
c101 11 160 74 160 206c0 138 -63 197 -160 208z" />
    <glyph glyph-name="afii10039" unicode="&#x425;" horiz-adv-x="609" 
d="M29 626h244v-17l-61 -24l114 -197l117 197l-59 24v17h186v-17l-63 -24l-163 -228l191 -316l65 -24v-17h-251v17l76 24l-143 246l-142 -246l70 -24v-17h-194v17l61 24l186 277l-159 267l-75 24v17z" />
    <glyph glyph-name="afii10040" unicode="&#x426;" horiz-adv-x="712" 
d="M41 626h246v-17l-72 -24v-538h283v538l-73 24v17h246v-17l-78 -24v-544l79 -10l-25 -185h-20l-30 154h-556v17l79 24v544l-79 24v17z" />
    <glyph glyph-name="afii10041" unicode="&#x427;" horiz-adv-x="652" 
d="M33 626h240v-17l-67 -24v-142c0 -123 62 -136 124 -136c44 0 89 13 108 25v253l-71 24v17h244v-17l-79 -24v-544l79 -24v-17h-253v17l80 24v254c-31 -13 -89 -32 -144 -32c-143 0 -182 62 -182 177v145l-79 24v17z" />
    <glyph glyph-name="afii10042" unicode="&#x428;" horiz-adv-x="892" 
d="M45 626h227v-17l-59 -24v-538h187v538l-61 24v17h213v-17l-60 -24v-538h186v538l-59 24v17h226v-17l-73 -24v-544l78 -24v-17h-809v17l79 24v544l-75 24v17z" />
    <glyph glyph-name="afii10043" unicode="&#x429;" horiz-adv-x="892" 
d="M45 626h227v-17l-59 -24v-538h187v538l-61 24v17h213v-17l-60 -24v-538h186v538l-59 24v17h226v-17l-73 -24v-544l79 -10l-25 -185h-19l-31 154h-735v17l79 24v544l-75 24v17z" />
    <glyph glyph-name="afii10044" unicode="&#x42a;" horiz-adv-x="624" 
d="M26 626h348v-17l-78 -22v-227c19 2 55 4 82 4c137 0 206 -67 206 -170c0 -112 -77 -194 -248 -194h-214v17l80 24v546h-60c-62 0 -74 -7 -93 -98h-23v137zM296 327v-286c17 -6 34 -8 48 -8c93 0 142 58 142 150c0 108 -72 146 -152 146c-13 0 -31 -1 -38 -2z" />
    <glyph glyph-name="afii10045" unicode="&#x42b;" horiz-adv-x="803" 
d="M41 626h252v-17l-78 -24v-225c11 2 50 4 77 4c143 0 210 -67 210 -170c0 -112 -76 -194 -247 -194h-214v17l79 24v544l-79 24v17zM215 327v-286c17 -6 34 -8 47 -8c92 0 141 58 141 151c0 107 -71 145 -164 145c-8 0 -17 -1 -24 -2zM510 626h252v-17l-79 -24v-544l79 -24
v-17h-252v17l80 24v544l-80 24v17z" />
    <glyph glyph-name="afii10046" unicode="&#x42c;" horiz-adv-x="538" 
d="M41 626h252v-17l-78 -24v-225c11 2 54 4 77 4c143 0 210 -67 210 -171c0 -111 -76 -193 -247 -193h-214v17l79 24v544l-79 24v17zM215 327v-286c17 -6 34 -8 47 -8c93 0 141 58 141 150c0 108 -72 146 -159 146c-11 0 -22 -1 -29 -2z" />
    <glyph glyph-name="afii10047" unicode="&#x42d;" horiz-adv-x="572" 
d="M58 604c29 14 98 36 188 36c178 0 285 -108 285 -307c0 -178 -95 -347 -293 -347c-81 0 -136 19 -185 44l-13 130h22c24 -82 75 -139 170 -139c112 0 189 127 195 288l-252 -16v68l252 -16c-3 166 -76 260 -199 260c-89 1 -126 -39 -148 -113h-22v112z" />
    <glyph glyph-name="afii10048" unicode="&#x42e;" horiz-adv-x="917" 
d="M41 626h252v-17l-78 -24v-236h106c16 171 129 291 290 291c157 0 266 -119 266 -313c0 -210 -128 -341 -292 -341c-159 0 -263 123 -265 320h-105v-265l78 -24v-17h-252v17l79 24v544l-79 24v17zM596 605c-105 0 -174 -122 -174 -290c0 -179 72 -294 174 -294
c108 0 177 120 177 292c0 177 -71 292 -177 292z" />
    <glyph glyph-name="afii10049" unicode="&#x42f;" horiz-adv-x="596" 
d="M556 626v-17l-80 -24v-544l80 -24v-17h-243v17l69 24v244h-86l-67 -144c-59 -119 -90 -143 -168 -143c-33 0 -47 1 -58 2v17c32 2 61 22 135 152l74 139c-55 19 -110 63 -110 144c0 96 65 174 226 174h228zM382 589c-19 5 -38 6 -57 6c-70 0 -125 -43 -125 -138
c0 -92 52 -141 129 -141c23 0 40 2 53 4v269z" />
    <glyph glyph-name="afii10065" unicode="&#x430;" horiz-adv-x="458" 
d="M83 433c41 16 103 33 167 33c110 0 124 -61 124 -143v-272l73 -3v-17l-156 -45l2 78h-2c-27 -47 -77 -78 -133 -78c-75 0 -122 48 -122 121c0 115 116 147 255 163v55c0 67 -17 106 -73 106c-54 0 -92 -28 -112 -99h-23v101zM291 240c-107 -13 -169 -40 -169 -121
c0 -50 30 -77 75 -77c29 0 50 9 69 28c14 16 25 41 25 80v90z" />
    <glyph glyph-name="afii10066" unicode="&#x431;" horiz-adv-x="490" 
d="M414 711l14 -7l-30 -77c-26 -26 -68 -34 -100 -34c-28 0 -81 2 -91 2c-22 0 -33 -8 -45 -25c-19 -25 -36 -97 -48 -190h5c36 58 87 85 142 85c118 0 191 -86 191 -222c0 -155 -78 -257 -217 -257c-119 0 -192 84 -192 269c0 93 15 229 92 331c38 49 93 88 188 88
c32 0 50 -1 57 -1c6 0 34 38 34 38zM133 223c0 -133 37 -204 113 -204c72 0 113 89 113 210c0 143 -40 203 -109 203c-85 0 -117 -91 -117 -209z" />
    <glyph glyph-name="afii10067" unicode="&#x432;" horiz-adv-x="464" 
d="M33 0v16l64 25v370l-64 25v16h206c81 0 159 -20 159 -98c0 -59 -40 -93 -97 -108v-5c60 -7 117 -33 117 -106c0 -82 -76 -135 -190 -135h-195zM179 415v-162c84 0 133 21 133 91c0 61 -48 76 -86 76c-17 0 -37 -3 -47 -5zM179 224v-183c16 -6 33 -8 57 -8
c59 0 96 35 96 99c0 74 -66 93 -134 93c-5 0 -14 0 -19 -1z" />
    <glyph glyph-name="afii10068" unicode="&#x433;" horiz-adv-x="394" 
d="M32 452h340v-123h-22c-17 79 -25 82 -82 82h-89v-370l68 -24v-17h-215v17l65 24v370l-65 24v17z" />
    <glyph glyph-name="afii10069" unicode="&#x434;" horiz-adv-x="460" 
d="M225 466h14l162 -427l48 -11l-19 -167h-19l-31 139h-301l-30 -139h-19l-19 167l46 11zM105 41h208l-108 294h-2z" />
    <glyph glyph-name="afii10070" unicode="&#x435;" horiz-adv-x="452" 
d="M410 120l-28 -100c-31 -19 -77 -34 -140 -34c-127 0 -202 85 -202 233c0 137 77 247 205 247c132 0 163 -124 163 -213h-274c-1 -10 -1 -25 -1 -34c0 -120 54 -199 131 -199c52 0 92 27 123 100h23zM136 288h183c-1 65 -17 146 -83 146c-57 0 -89 -56 -100 -146z" />
    <glyph glyph-name="afii10072" unicode="&#x436;" horiz-adv-x="682" 
d="M254 452h174v-17l-48 -22v-167l53 13l109 157l-46 19v17h150v-17l-52 -24l-116 -141l149 -232l42 -21v-17h-173v17l43 16l-117 191l-42 5v-190l47 -22v-17h-172v17l47 22v190l-43 -5l-116 -191l43 -16v-17h-173v17l41 21l150 232l-117 141l-51 24v17h149v-17l-46 -19
l110 -157l53 -13v167l-48 22v17z" />
    <glyph glyph-name="afii10073" unicode="&#x437;" horiz-adv-x="404" 
d="M55 439c35 11 75 20 129 21c85 1 151 -28 151 -103c0 -58 -48 -97 -94 -110v-5c57 -8 117 -37 117 -107c0 -80 -73 -143 -185 -143c-57 0 -100 15 -127 29v105h22c5 -27 14 -53 26 -69c12 -14 40 -32 78 -32c58 0 99 41 99 102c0 78 -63 98 -127 98v28
c54 0 105 23 105 94c0 65 -47 83 -81 83c-38 0 -58 -14 -68 -27c-11 -16 -18 -40 -25 -62h-20v98z" />
    <glyph glyph-name="afii10074" unicode="&#x438;" horiz-adv-x="552" 
d="M32 452h201v-17l-54 -24v-279l193 244v35l-54 24v17h201v-17l-64 -24v-370l64 -24v-17h-201v17l54 24v281l-193 -244v-37l54 -24v-17h-201v17l65 24v370l-65 24v17z" />
    <glyph glyph-name="afii10075" unicode="&#x439;" horiz-adv-x="552" 
d="M32 452h201v-17l-54 -24v-279l193 244v35l-54 24v17h201v-17l-64 -24v-370l64 -24v-17h-201v17l54 24v281l-193 -244v-37l54 -24v-17h-201v17l65 24v370l-65 24v17zM346 665l35 -28c-1 -65 -21 -113 -101 -113c-82 0 -100 48 -101 113l35 28l9 -9l-19 -41
c0 -19 29 -35 76 -35c46 0 76 16 76 35l-19 41z" />
    <glyph glyph-name="afii10076" unicode="&#x43a;" horiz-adv-x="510" 
d="M37 452h189v-17l-47 -24v-165l45 13l138 155l-48 21v17h159v-17l-52 -24l-149 -141l184 -232l41 -21v-17h-179v17l40 16l-144 191l-35 5v-188l47 -24v-17h-189v17l60 24v370l-60 24v17z" />
    <glyph glyph-name="afii10077" unicode="&#x43b;" horiz-adv-x="437" 
d="M434 0h-190v17l58 22l-108 296h-3l-97 -296l58 -22v-17h-149v17l43 22l168 427h14l162 -427l44 -22v-17z" />
    <glyph glyph-name="afii10078" unicode="&#x43c;" horiz-adv-x="630" 
d="M32 0v17l52 24l22 370l-61 24v17h137l134 -314h2l131 314h141v-17l-60 -24l13 -370l55 -24v-17h-198v17l62 24l-10 336h-3l-152 -377h-10l-153 372h-2l-4 -331l65 -24v-17h-161z" />
    <glyph glyph-name="afii10079" unicode="&#x43d;" horiz-adv-x="552" 
d="M372 41v178h-193v-178l55 -24v-17h-202v17l65 24v370l-65 24v17h202v-17l-55 -24v-155h193v155l-54 24v17h201v-17l-64 -24v-370l64 -24v-17h-201v17z" />
    <glyph glyph-name="afii10080" unicode="&#x43e;" horiz-adv-x="493" 
d="M236 -14c-119 0 -198 82 -198 228c0 136 71 252 222 252c121 0 195 -82 195 -218c0 -152 -79 -262 -219 -262zM131 223c0 -137 37 -205 114 -205s117 88 117 211c0 148 -40 205 -112 205c-86 0 -119 -92 -119 -211z" />
    <glyph glyph-name="afii10081" unicode="&#x43f;" horiz-adv-x="550" 
d="M32 452h485v-17l-64 -24v-370l64 -24v-17h-200v17l53 24v368h-191v-368l55 -24v-17h-202v17l65 24v370l-65 24v17z" />
    <glyph glyph-name="afii10082" unicode="&#x440;" horiz-adv-x="522" 
d="M35 -216v17l67 24v565l-79 3v18l162 55v-109h2c16 40 67 109 143 109c114 0 153 -106 153 -215c0 -150 -79 -264 -203 -264c-40 0 -78 13 -95 30v-192l84 -24v-17h-234zM184 139c0 -95 54 -119 88 -119c71 0 122 80 122 212c0 110 -34 176 -97 176
c-57 0 -97 -55 -106 -114c-6 -37 -7 -109 -7 -155z" />
    <glyph glyph-name="afii10083" unicode="&#x441;" horiz-adv-x="434" 
d="M408 120l-24 -98c-29 -20 -82 -36 -138 -36c-130 0 -208 88 -208 240c0 130 76 240 219 240c61 0 103 -16 124 -27v-100h-26c-20 61 -45 94 -99 94c-82 0 -125 -81 -125 -199c0 -124 50 -212 131 -212c53 0 95 27 125 98h21z" />
    <glyph glyph-name="afii10084" unicode="&#x442;" horiz-adv-x="438" 
d="M23 452h393v-124h-22c-17 80 -23 84 -82 84h-52v-371l72 -24v-17h-227v17l73 24v371h-53c-58 0 -64 -4 -80 -84h-22v124z" />
    <glyph glyph-name="afii10085" unicode="&#x443;" horiz-adv-x="451" 
d="M8 452h204v-17l-69 -22l117 -310l95 310l-61 22v17h157v-17l-44 -22l-148 -410c-52 -153 -96 -219 -135 -219c-25 0 -46 13 -60 29v9l22 55h4c14 -9 37 -18 56 -18c13 0 37 15 75 138l-168 416l-45 22v17z" />
    <glyph glyph-name="afii10086" unicode="&#x444;" horiz-adv-x="592" 
d="M181 633l154 54v-229c129 -13 219 -96 219 -231c0 -134 -90 -220 -219 -233v-153l75 -24v-17h-227v17l72 24v153c-128 13 -218 96 -218 231c0 133 90 220 218 233v155l-74 3v17zM255 430c-71 -16 -129 -86 -129 -204c0 -121 52 -189 129 -205v409zM335 430v-409
c79 16 130 84 130 205c0 118 -57 188 -130 204z" />
    <glyph glyph-name="afii10087" unicode="&#x445;" horiz-adv-x="480" 
d="M15 0v17l46 24l139 180l-125 192l-52 22v17h202v-17l-55 -22l88 -136l97 136l-52 22v17h147v-17l-47 -22l-129 -160l139 -214l62 -22v-17h-217v17l58 22l-99 157l-105 -157l71 -22v-17h-168z" />
    <glyph glyph-name="afii10088" unicode="&#x446;" horiz-adv-x="550" 
d="M32 452h202v-17l-55 -24v-368h191v368l-53 24v17h200v-17l-64 -24v-370l68 -14l-25 -166h-19l-25 139h-420v17l65 24v370l-65 24v17z" />
    <glyph glyph-name="afii10089" unicode="&#x447;" horiz-adv-x="516" 
d="M24 452h193v-17l-47 -24v-77c0 -80 13 -116 78 -116c46 0 89 28 89 61v132l-50 24v17h197v-17l-64 -24v-370l64 -24v-17h-206v17l59 24v188c-24 -26 -74 -56 -128 -56c-98 0 -121 54 -121 138v100l-64 24v17z" />
    <glyph glyph-name="afii10090" unicode="&#x448;" horiz-adv-x="728" 
d="M32 452h196v-17l-51 -24v-368h146v368l-48 24v17h178v-17l-48 -24v-368h146v368l-51 24v17h196v-17l-64 -24v-370l64 -24v-17h-664v17l65 24v370l-65 24v17z" />
    <glyph glyph-name="afii10091" unicode="&#x449;" horiz-adv-x="728" 
d="M32 452h196v-17l-51 -24v-368h146v368l-48 24v17h178v-17l-48 -24v-368h146v368l-51 24v17h196v-17l-64 -24v-370l68 -14l-26 -166h-18l-25 139h-599v17l65 24v370l-65 24v17z" />
    <glyph glyph-name="afii10092" unicode="&#x44a;" horiz-adv-x="523" 
d="M28 452h296v-17l-65 -24v-148c20 1 42 2 70 2c125 -2 162 -59 162 -125c0 -82 -69 -140 -185 -140h-188v17l58 24v371h-44c-58 0 -66 -7 -82 -84h-22v124zM259 227v-186c15 -6 34 -8 57 -8c52 0 90 38 90 102c0 74 -58 96 -104 96c-22 0 -37 -3 -43 -4z" />
    <glyph glyph-name="afii10093" unicode="&#x44b;" horiz-adv-x="654" 
d="M32 452h206v-17l-59 -24v-150c17 1 43 2 67 2c126 -2 164 -58 164 -124c0 -82 -68 -139 -182 -139h-196v17l65 24v370l-65 24v17zM179 226v-185c16 -6 33 -8 57 -8c53 0 88 37 88 101c0 74 -60 95 -102 95c-21 0 -37 -1 -43 -3zM411 452h210v-17l-64 -24v-370l64 -24v-17
h-210v17l65 24v370l-65 24v17z" />
    <glyph glyph-name="afii10094" unicode="&#x44c;" horiz-adv-x="442" 
d="M32 452h206v-17l-59 -24v-150c17 1 43 2 67 2c131 -2 166 -58 166 -124c0 -82 -70 -139 -184 -139h-196v17l65 24v370l-65 24v17zM179 226v-185c16 -6 33 -8 57 -8c53 0 90 37 90 101c0 74 -56 95 -104 95c-21 0 -37 -1 -43 -3z" />
    <glyph glyph-name="afii10095" unicode="&#x44d;" horiz-adv-x="421" 
d="M47 439c19 9 74 27 133 27c142 0 203 -105 203 -221c0 -165 -83 -259 -213 -259c-46 0 -94 15 -124 36l-24 108h21c28 -78 68 -107 118 -107c77 0 128 81 131 199l-175 -11v54l174 -12c-4 106 -48 179 -122 179c-54 0 -79 -32 -97 -90h-25v97z" />
    <glyph glyph-name="afii10096" unicode="&#x44e;" horiz-adv-x="698" 
d="M32 452h206v-17l-59 -24v-155h81c11 112 72 210 210 210c121 0 189 -87 189 -223c0 -155 -74 -257 -213 -257c-118 0 -186 82 -187 234h-80v-179l59 -24v-17h-206v17l65 24v370l-65 24v17zM346 223c0 -133 39 -204 110 -204c70 0 110 89 110 210c0 143 -39 204 -105 204
c-81 0 -115 -92 -115 -210z" />
    <glyph glyph-name="afii10097" unicode="&#x44f;" horiz-adv-x="489" 
d="M457 452v-16l-64 -23v-374l64 -23v-16h-200v16l54 23v164h-64l-67 -126c-32 -63 -66 -79 -115 -79c-19 0 -46 1 -55 2v16c17 3 49 13 84 72l77 134c-38 11 -86 43 -86 104c0 79 56 126 167 126h205zM311 418c-13 4 -34 6 -48 6c-53 0 -94 -31 -94 -96
c0 -72 45 -97 94 -99c23 0 36 1 48 4v185z" />
    <glyph glyph-name="uni0450" unicode="&#x450;" horiz-adv-x="452" 
d="M410 120l-28 -100c-31 -19 -77 -34 -140 -34c-127 0 -202 85 -202 233c0 137 77 247 205 247c132 0 163 -124 163 -213h-274c-1 -10 -1 -25 -1 -34c0 -120 54 -199 131 -199c52 0 92 27 123 100h23zM136 288h183c-1 65 -17 146 -83 146c-57 0 -89 -56 -100 -146zM253 510
l-101 132l63 29l53 -154z" />
    <glyph glyph-name="afii10071" unicode="&#x451;" horiz-adv-x="452" 
d="M410 120l-28 -100c-31 -19 -77 -34 -140 -34c-127 0 -202 85 -202 233c0 137 77 247 205 247c132 0 163 -124 163 -213h-274c-1 -10 -1 -25 -1 -34c0 -120 54 -199 131 -199c52 0 92 27 123 100h23zM136 288h183c-1 65 -17 146 -83 146c-57 0 -89 -56 -100 -146zM141 560
c-25 0 -46 20 -46 46c0 25 21 46 46 46s46 -21 46 -46c0 -26 -21 -46 -46 -46zM318 560c-25 0 -45 20 -45 46c0 25 20 46 45 46c26 0 47 -21 47 -46c0 -26 -21 -46 -47 -46z" />
    <glyph glyph-name="afii10099" unicode="&#x452;" horiz-adv-x="534" 
d="M26 561h72v75l-67 3v17l150 54v-149h127v-36h-127v-161h2c21 38 76 100 148 100c89 0 122 -74 122 -189v-70c0 -154 -27 -346 -224 -387v25c129 45 141 190 141 358v58c0 70 -10 144 -77 144c-48 0 -112 -54 -112 -104v-258l56 -24v-17h-200v17l61 24v484h-72v36z" />
    <glyph glyph-name="afii10100" unicode="&#x453;" horiz-adv-x="394" 
d="M32 452h340v-123h-22c-17 79 -25 82 -82 82h-89v-370l68 -24v-17h-215v17l65 24v370l-65 24v17zM222 508l-15 9l74 154l59 -33z" />
    <glyph glyph-name="afii10101" unicode="&#x454;" horiz-adv-x="421" 
d="M373 439v-97h-24c-20 59 -43 90 -96 90c-76 0 -119 -75 -124 -179l175 12v-54l-175 11c3 -116 55 -199 131 -199c51 0 89 29 118 107h20l-22 -108c-30 -21 -79 -36 -134 -36c-129 0 -205 94 -205 240c0 121 73 240 215 240c59 0 101 -16 121 -27z" />
    <glyph glyph-name="afii10102" unicode="&#x455;" horiz-adv-x="366" 
d="M305 444v-86h-26c-12 65 -47 77 -87 77c-42 0 -73 -28 -73 -72c0 -45 21 -65 101 -95c67 -24 111 -62 111 -135c0 -84 -64 -147 -162 -147c-48 0 -88 11 -122 31v114h26c10 -77 38 -113 102 -113c56 0 85 36 85 80c0 42 -20 73 -91 100c-79 29 -114 67 -114 135
c0 77 55 133 149 133c46 0 76 -11 101 -22z" />
    <glyph glyph-name="afii10103" unicode="&#x456;" horiz-adv-x="273" 
d="M33 0v17l69 24v350l-72 2v18l155 55v-425l70 -24v-17h-222zM91 613c0 28 23 52 51 52s52 -24 52 -52s-24 -51 -52 -51s-51 23 -51 51z" />
    <glyph glyph-name="afii10104" unicode="&#x457;" horiz-adv-x="286" 
d="M33 0v17l69 24v350l-72 2v18l155 55v-425l70 -24v-17h-222zM55 560c-25 0 -46 20 -46 46c0 25 21 46 46 46s46 -21 46 -46c0 -26 -21 -46 -46 -46zM232 560c-25 0 -45 20 -45 46c0 25 20 46 45 46c26 0 47 -21 47 -46c0 -26 -21 -46 -47 -46z" />
    <glyph glyph-name="afii10105" unicode="&#x458;" horiz-adv-x="267" 
d="M188 466v-446c0 -151 -47 -236 -160 -236c-41 0 -76 13 -89 24v92h20c10 -44 33 -87 76 -87c51 0 70 53 70 168v410l-74 2v18zM89 613c0 28 23 52 51 52s51 -24 51 -52s-23 -51 -51 -51s-51 23 -51 51z" />
    <glyph glyph-name="afii10106" unicode="&#x459;" horiz-adv-x="599" 
d="M210 466h15l69 -203c26 6 64 15 117 15c120 0 156 -69 156 -133c0 -84 -56 -145 -182 -145h-153v17l57 22l-100 294h-1l-94 -294l57 -22v-17h-148v17l43 22zM304 233l71 -196c6 -2 20 -6 36 -6c48 0 73 37 73 90c0 80 -45 121 -104 121c-36 0 -63 -5 -76 -9z" />
    <glyph glyph-name="afii10107" unicode="&#x45a;" horiz-adv-x="707" 
d="M33 452h198v-17l-51 -24v-153h179v153l-52 24v17h199v-17l-65 -24v-150c21 1 48 3 81 2c114 -3 153 -58 153 -125c0 -79 -67 -138 -185 -138h-183v17l52 24v178h-179v-178l51 -24v-17h-198v17l64 24v370l-64 24v17zM441 225v-184c16 -6 34 -10 57 -10c55 0 91 38 91 103
c0 73 -51 95 -92 95c-31 0 -50 -3 -56 -4z" />
    <glyph glyph-name="afii10108" unicode="&#x45b;" horiz-adv-x="548" 
d="M31 0v17l69 24v484h-74v36h74v76l-70 2v17l153 54v-149h125v-36h-125v-161h2c20 33 80 102 161 102c78 0 115 -50 115 -140v-285l70 -24v-17h-215v17l62 24v257c0 61 -10 109 -68 109c-22 0 -59 -9 -95 -46c-19 -19 -32 -41 -32 -76v-244l62 -24v-17h-214z" />
    <glyph glyph-name="afii10109" unicode="&#x45c;" horiz-adv-x="510" 
d="M37 452h189v-17l-47 -24v-165l45 13l138 155l-48 21v17h159v-17l-52 -24l-149 -141l184 -232l41 -21v-17h-179v17l40 16l-144 191l-35 5v-188l47 -24v-17h-189v17l60 24v370l-60 24v17zM269 508l-15 9l74 154l59 -33z" />
    <glyph glyph-name="uni045D" unicode="&#x45d;" horiz-adv-x="551" 
d="M32 452h201v-17l-54 -24v-279l193 244v35l-54 24v17h201v-17l-64 -24v-370l64 -24v-17h-201v17l54 24v281l-193 -244v-37l54 -24v-17h-201v17l65 24v370l-65 24v17zM275 510l-101 132l63 29l53 -154z" />
    <glyph glyph-name="afii10110" unicode="&#x45e;" horiz-adv-x="451" 
d="M8 452h204v-17l-69 -22l117 -310l95 310l-61 22v17h157v-17l-44 -22l-148 -410c-52 -153 -96 -219 -135 -219c-25 0 -46 13 -60 29v9l22 55h4c14 -9 37 -18 56 -18c13 0 37 15 75 138l-168 416l-45 22v17zM313 665l35 -28c-1 -65 -21 -113 -101 -113
c-82 0 -100 48 -101 113l35 28l9 -9l-19 -41c0 -19 29 -35 76 -35c46 0 76 16 76 35l-19 41z" />
    <glyph glyph-name="afii10193" unicode="&#x45f;" horiz-adv-x="550" 
d="M32 452h202v-17l-55 -24v-368h191v368l-53 24v17h200v-17l-64 -24v-370l64 -24v-17h-210l-23 -139h-18l-23 139h-211v17l65 24v370l-65 24v17z" />
    <glyph glyph-name="afii10146" unicode="&#x462;" horiz-adv-x="630" 
d="M26 550h185v75l-79 24v18h252v-18l-78 -24v-75h214v-119h-23c-18 75 -34 79 -99 79h-92v-150c11 2 55 4 77 4c143 0 210 -67 210 -171c0 -111 -76 -193 -247 -193h-214v17l79 24v469h-65c-64 0 -78 -5 -97 -79h-23v119zM306 327v-286c16 -6 34 -8 47 -8
c93 0 142 58 142 150c0 108 -73 146 -160 146c-11 0 -22 -1 -29 -2z" />
    <glyph glyph-name="afii10194" unicode="&#x463;" horiz-adv-x="519" 
d="M28 452h144v111l-58 2v18l141 47v-178h174v-124h-21c-17 80 -22 87 -82 87h-71v-154c18 1 42 2 67 2c131 -2 166 -58 166 -124c0 -82 -70 -139 -184 -139h-195v17l63 24v374h-40c-58 0 -64 -7 -82 -87h-22v124zM255 226v-185c15 -6 34 -8 57 -8c53 0 90 37 90 101
c0 74 -56 95 -103 95c-22 0 -37 -1 -44 -3z" />
    <glyph glyph-name="afii10147" unicode="&#x472;" horiz-adv-x="695" 
d="M361 640c183 0 292 -121 292 -313c0 -213 -128 -341 -318 -341c-186 0 -293 128 -293 324c0 189 120 330 319 330zM546 338c-5 164 -75 267 -199 267c-125 0 -193 -109 -200 -267h399zM547 299h-400c5 -172 76 -278 199 -278c130 0 198 111 201 278z" />
    <glyph glyph-name="afii10195" unicode="&#x473;" horiz-adv-x="492" 
d="M260 466c121 0 195 -78 195 -217c0 -156 -80 -263 -220 -263c-119 0 -198 79 -198 228c0 133 71 252 223 252zM361 253c-3 130 -43 180 -114 180c-77 0 -111 -76 -116 -180h230zM362 214h-232c1 -130 39 -195 115 -195c74 0 114 81 117 195z" />
    <glyph glyph-name="afii10148" unicode="&#x474;" horiz-adv-x="589" 
d="M321 146l120 363c35 104 59 126 95 126c17 0 38 -10 50 -22l-10 -81h-7c-14 9 -26 14 -36 14c-19 0 -32 -12 -61 -90l-176 -470h-17l-204 599l-61 24v17h222v-17l-63 -24l147 -439h1z" />
    <glyph glyph-name="afii10196" unicode="&#x475;" horiz-adv-x="446" 
d="M0 452h192v-17l-59 -22l105 -297h2l91 259c21 59 38 83 68 83c18 0 34 -11 42 -19l-8 -73h-6c-11 6 -21 10 -31 10c-17 0 -28 -14 -47 -62l-132 -328h-13l-159 427l-45 22v17z" />
    <glyph glyph-name="afii10050" unicode="&#x490;" horiz-adv-x="482" 
d="M44 626h291c68 0 83 20 105 107h22v-146h-247v-546l84 -24v-17h-255v17l76 24v544l-76 24v17z" />
    <glyph glyph-name="afii10098" unicode="&#x491;" horiz-adv-x="388" 
d="M32 452h229c58 0 65 3 82 81h22v-122h-186v-370l68 -24v-17h-215v17l65 24v370l-65 24v17z" />
    <glyph glyph-name="uni0492" unicode="&#x492;" horiz-adv-x="493" 
d="M215 587v-242h119v-36h-119v-268l84 -24v-17h-255v17l76 24v268h-58v36h58v240l-76 24v17h428v-136h-21c-22 78 -37 97 -106 97h-130z" />
    <glyph glyph-name="uni0493" unicode="&#x493;" horiz-adv-x="394" 
d="M32 452h340v-123h-22c-17 79 -25 82 -82 82h-89v-157h91v-35h-91v-178l68 -24v-17h-215v17l65 24v178h-58v35h58v157l-65 24v17z" />
    <glyph glyph-name="uni0496" unicode="&#x496;" horiz-adv-x="848" 
d="M37 626h190v-17l-59 -24l147 -236l63 -14v250l-63 24v17h217v-17l-63 -24v-250l63 14l147 236l-59 24v17h190v-17l-68 -24l-156 -216l195 -328l54 -24l-27 -171h-18l-31 154h-141v17l58 20l-154 274l-53 6v-276l60 -24v-17h-212v17l61 24v276l-52 -6l-155 -274l58 -20
v-17h-216v17l52 24l196 328l-156 216l-68 24v17z" />
    <glyph glyph-name="uni0497" unicode="&#x497;" horiz-adv-x="683" 
d="M254 452h175v-17l-48 -22v-167l49 13l113 157l-46 19v17h150v-17l-52 -24l-120 -141l153 -232l41 -21l-24 -156h-18l-26 139h-105v17l43 16l-120 191l-38 5v-190l47 -22v-17h-173v17l47 22v190l-38 -5l-121 -191l44 -16v-17h-174v17l41 21l154 232l-121 141l-51 24v17
h149v-17l-46 -19l114 -157l49 -13v167l-48 22v17z" />
    <glyph glyph-name="uni049A" unicode="&#x49a;" horiz-adv-x="631" 
d="M41 626h238v-17l-64 -24v-250l49 14l189 236l-61 24v17h193v-17l-68 -24l-199 -216l249 -328l53 -24l-27 -171h-17l-31 154h-143v17l55 20l-207 273l-35 7v-276l62 -24v-17h-236v17l79 24v544l-79 24v17z" />
    <glyph glyph-name="uni049B" unicode="&#x49b;" horiz-adv-x="510" 
d="M37 452h189v-17l-47 -24v-165l45 13l138 155l-48 21v17h159v-17l-52 -24l-149 -141l184 -232l41 -21l-21 -156h-19l-25 139h-114v17l40 16l-144 191l-35 5v-188l47 -24v-17h-189v17l60 24v370l-60 24v17z" />
    <glyph glyph-name="uni04A2" unicode="&#x4a2;" horiz-adv-x="726" 
d="M38 0v17l82 24v544l-82 24v17h258v-17l-81 -24v-236h296v236l-81 24v17h257v-17l-81 -24v-544l81 -25l-25 -170h-17l-32 154h-183v17l81 24v266h-296v-266l81 -24v-17h-258z" />
    <glyph glyph-name="uni04A3" unicode="&#x4a3;" horiz-adv-x="553" 
d="M179 411v-155h193v155l-54 24v17h201v-17l-64 -24v-370l64 -24l-25 -156h-18l-26 139h-132v17l54 24v178h-193v-178l55 -24v-17h-202v17l65 24v370l-65 24v17h202v-17z" />
    <glyph glyph-name="uni04AE" unicode="&#x4ae;" horiz-adv-x="566" 
d="M13 626h223v-17l-66 -24l148 -267l131 267l-75 24v17h179v-17l-46 -24l-177 -308v-236l82 -24v-17h-258v17l84 24v232l-169 312l-56 24v17z" />
    <glyph glyph-name="uni04AF" unicode="&#x4af;" horiz-adv-x="438" 
d="M4 452h192v-17l-60 -22l107 -301h2l101 301l-58 22v17h149v-17l-43 -22l-133 -340v-248l66 -24v-17h-214v17l65 24v240l-130 348l-44 22v17z" />
    <glyph glyph-name="uni04B0" unicode="&#x4b0;" horiz-adv-x="566" 
d="M13 626h223v-17l-66 -24l148 -267l131 267l-75 24v17h179v-17l-46 -24l-163 -284h83v-37h-97v-223l82 -24v-17h-258v17l84 24v223h-102v37h87l-154 284l-56 24v17z" />
    <glyph glyph-name="uni04B1" unicode="&#x4b1;" horiz-adv-x="438" 
d="M4 452h192v-17l-60 -22l107 -301h2l101 301l-58 22v17h149v-17l-43 -22l-130 -329h100v-37h-103v-222l66 -24v-17h-214v17l65 24v222h-104v37h96l-122 329l-44 22v17z" />
    <glyph glyph-name="uni04B2" unicode="&#x4b2;" horiz-adv-x="609" 
d="M29 626h244v-17l-61 -24l114 -197l117 197l-59 24v17h186v-17l-63 -24l-163 -228l191 -316l65 -24l-25 -171h-19l-31 154h-176v17l76 24l-143 246l-142 -246l70 -24v-17h-194v17l61 24l186 277l-159 267l-75 24v17z" />
    <glyph glyph-name="uni04B3" unicode="&#x4b3;" horiz-adv-x="480" 
d="M15 0v17l46 24l139 180l-125 192l-52 22v17h202v-17l-55 -22l88 -136l97 136l-52 22v17h147v-17l-47 -22l-129 -160l139 -214l62 -22l-25 -156h-18l-26 139h-148v17l58 22l-99 157l-105 -157l71 -22v-17h-168z" />
    <glyph glyph-name="uni04B6" unicode="&#x4b6;" horiz-adv-x="652" 
d="M33 626h241v-17l-68 -24v-142c0 -123 62 -136 124 -136c44 0 89 13 109 25v253l-71 24v17h243v-17l-79 -24v-544l79 -24l-25 -171h-17l-32 154h-178v17l80 24v254c-31 -13 -89 -32 -144 -32c-143 0 -183 62 -183 177v145l-79 24v17z" />
    <glyph glyph-name="uni04B7" unicode="&#x4b7;" horiz-adv-x="516" 
d="M24 452h193v-17l-47 -24v-77c0 -80 13 -116 78 -116c46 0 89 28 89 61v132l-50 24v17h197v-17l-64 -24v-370l64 -24l-25 -156h-20l-24 139h-137v17l59 24v188c-24 -26 -74 -56 -128 -56c-98 0 -121 54 -121 138v100l-64 24v17z" />
    <glyph glyph-name="uni04BA" unicode="&#x4ba;" horiz-adv-x="637" 
d="M612 0h-240v17l67 24v152c0 123 -60 136 -122 136c-46 0 -90 -13 -109 -25v-263l71 -24v-17h-244v17l78 24v544l-78 24v17h252v-17l-79 -24v-244c30 13 88 32 144 32c142 0 182 -62 182 -177v-155l78 -24v-17z" />
    <glyph glyph-name="uni04BB" unicode="&#x4bb;" horiz-adv-x="544" 
d="M31 0v17l69 24v596l-70 2v17l153 54v-346h2c20 33 80 102 161 102c78 0 115 -50 115 -140v-285l70 -24v-17h-215v17l62 24v257c0 61 -10 109 -68 109c-22 0 -59 -9 -95 -46c-19 -19 -32 -41 -32 -76v-244l62 -24v-17h-214z" />
    <glyph glyph-name="uni04C0" unicode="&#x4c0;" horiz-adv-x="335" 
d="M37 0v17l83 24v544l-83 24v17h262v-17l-84 -24v-544l84 -24v-17h-262z" />
    <glyph glyph-name="uni04CF" unicode="&#x4cf;" horiz-adv-x="335" 
d="M37 0v17l83 24v544l-83 24v17h262v-17l-84 -24v-544l84 -24v-17h-262z" />
    <glyph glyph-name="uni04D8" unicode="&#x4d8;" horiz-adv-x="568" 
d="M69 489l25 101c45 28 100 49 182 49c160 0 253 -117 253 -311c0 -192 -95 -342 -252 -342c-198 0 -237 200 -237 262l52 31h332c1 12 1 31 1 53c0 186 -79 272 -177 272c-78 0 -129 -70 -150 -115h-29zM420 238l-281 1c0 -87 26 -218 139 -218c89 0 134 105 142 217z" />
    <glyph glyph-name="afii10846" unicode="&#x4d9;" horiz-adv-x="446" 
d="M53 350l21 80c29 19 71 36 137 36c119 0 195 -80 195 -217c0 -151 -77 -263 -203 -263c-133 0 -164 128 -164 205l44 25h230c1 10 1 24 1 34c0 109 -56 183 -124 183c-61 0 -94 -37 -115 -83h-22zM311 179l-187 1c0 -79 21 -161 90 -161c55 0 91 71 97 160z" />
    <glyph glyph-name="uni04E2" unicode="&#x4e2;" horiz-adv-x="719" 
d="M41 626h248v-17l-74 -24v-439l290 397v42l-74 24v17h247v-17l-79 -24v-544l79 -24v-17h-247v17l74 24v439l-290 -398v-41l74 -24v-17h-248v17l79 24v544l-79 24v17zM245 745v52h228v-52h-228z" />
    <glyph glyph-name="uni04E3" unicode="&#x4e3;" horiz-adv-x="551" 
d="M32 452h201v-17l-54 -24v-279l193 244v35l-54 24v17h201v-17l-64 -24v-370l64 -24v-17h-201v17l54 24v281l-193 -244v-37l54 -24v-17h-201v17l65 24v370l-65 24v17zM162 571v52h228v-52h-228z" />
    <glyph glyph-name="Obarredcyrillic" unicode="&#x4e8;" horiz-adv-x="695" 
d="M361 640c183 0 292 -121 292 -313c0 -213 -128 -341 -318 -341c-186 0 -293 128 -293 324c0 189 120 330 319 330zM546 338c-5 164 -75 267 -199 267c-125 0 -193 -109 -200 -267h399zM547 299h-400c5 -172 76 -278 199 -278c130 0 198 111 201 278z" />
    <glyph glyph-name="obarredcyrillic" unicode="&#x4e9;" horiz-adv-x="492" 
d="M260 466c121 0 195 -78 195 -217c0 -156 -80 -263 -220 -263c-119 0 -198 79 -198 228c0 133 71 252 223 252zM361 253c-3 130 -43 180 -114 180c-77 0 -111 -76 -116 -180h230zM362 214h-232c1 -130 39 -195 115 -195c74 0 114 81 117 195z" />
    <glyph glyph-name="Umacroncyrillic" unicode="&#x4ee;" horiz-adv-x="548" 
d="M18 626h212v-17l-60 -24l150 -322h3l120 322l-66 24v17h160v-17l-42 -24l-161 -369c-47 -130 -90 -227 -134 -227c-25 0 -50 10 -65 29v9l25 67h6c13 -9 39 -17 56 -17c21 0 44 47 55 82l-211 426l-48 24v17zM191 720v56h226v-56h-226z" />
    <glyph glyph-name="umacroncyrillic" unicode="&#x4ef;" horiz-adv-x="451" 
d="M8 452h204v-17l-69 -22l117 -310l95 310l-61 22v17h157v-17l-44 -22l-148 -410c-52 -153 -96 -219 -135 -219c-25 0 -46 13 -60 29v9l22 55h4c14 -9 37 -18 56 -18c13 0 37 15 75 138l-168 416l-45 22v17zM130 571v52h228v-52h-228z" />
    <glyph glyph-name="Wgrave" unicode="&#x1e80;" horiz-adv-x="810" 
d="M12 626h235v-17l-75 -24l91 -413h4l159 453h14l157 -452h4l88 412l-79 24v17h193v-17l-57 -24l-161 -599h-17l-157 467h-1l-172 -467h-16l-146 599l-64 24v17zM437 682l-153 74l62 48l104 -109z" />
    <glyph glyph-name="wgrave" unicode="&#x1e81;" horiz-adv-x="632" 
d="M12 452h195v-17l-63 -22l64 -293h2l128 331h11l121 -324h2l65 286l-63 22v17h158v-17l-46 -22l-131 -427h-15l-120 324l-137 -324h-16l-108 427l-47 22v17zM341 510l-101 132l63 29l53 -154z" />
    <glyph glyph-name="Wacute" unicode="&#x1e82;" horiz-adv-x="810" 
d="M12 626h235v-17l-75 -24l91 -413h4l159 453h14l157 -452h4l88 412l-79 24v17h193v-17l-57 -24l-161 -599h-17l-157 467h-1l-172 -467h-16l-146 599l-64 24v17zM422 683l-15 12l129 109l57 -50z" />
    <glyph glyph-name="wacute" unicode="&#x1e83;" horiz-adv-x="632" 
d="M12 452h195v-17l-63 -22l64 -293h2l128 331h11l121 -324h2l65 286l-63 22v17h158v-17l-46 -22l-131 -427h-15l-120 324l-137 -324h-16l-108 427l-47 22v17zM344 508l-15 9l74 154l59 -33z" />
    <glyph glyph-name="Wdieresis" unicode="&#x1e84;" horiz-adv-x="810" 
d="M12 626h235v-17l-75 -24l91 -413h4l159 453h14l157 -452h4l88 412l-79 24v17h193v-17l-57 -24l-161 -599h-17l-157 467h-1l-172 -467h-16l-146 599l-64 24v17zM332 696c-26 0 -48 22 -48 48c0 27 22 48 48 48s47 -21 47 -48c0 -26 -21 -48 -47 -48zM532 696
c-26 0 -47 22 -47 48c0 27 21 48 47 48c27 0 48 -21 48 -48c0 -26 -21 -48 -48 -48z" />
    <glyph glyph-name="wdieresis" unicode="&#x1e85;" horiz-adv-x="632" 
d="M12 452h195v-17l-63 -22l64 -293h2l128 331h11l121 -324h2l65 286l-63 22v17h158v-17l-46 -22l-131 -427h-15l-120 324l-137 -324h-16l-108 427l-47 22v17zM254 560c-25 0 -46 20 -46 46c0 25 21 46 46 46s46 -21 46 -46c0 -26 -21 -46 -46 -46zM431 560
c-25 0 -45 20 -45 46c0 25 20 46 45 46c26 0 47 -21 47 -46c0 -26 -21 -46 -47 -46z" />
    <glyph glyph-name="Ygrave" unicode="&#x1ef2;" horiz-adv-x="566" 
d="M13 626h223v-17l-66 -24l148 -267l131 267l-75 24v17h179v-17l-46 -24l-177 -308v-236l82 -24v-17h-258v17l84 24v232l-169 312l-56 24v17zM320 682l-153 74l62 48l104 -109z" />
    <glyph glyph-name="ygrave" unicode="&#x1ef3;" horiz-adv-x="475" 
d="M420 413l-154 -422c-45 -121 -83 -207 -152 -207c-24 0 -44 6 -58 17v96h19c7 -33 32 -49 55 -49c34 0 75 56 99 153l-167 412l-50 22v17h209v-17l-69 -22l119 -310l97 310l-62 22v17h165v-17zM264 510l-101 132l63 29l53 -154z" />
    <glyph glyph-name="endash" unicode="&#x2013;" horiz-adv-x="500" 
d="M0 210v58h500v-58h-500z" />
    <glyph glyph-name="emdash" unicode="&#x2014;" horiz-adv-x="1000" 
d="M100 210v57h800v-57h-800z" />
    <glyph glyph-name="afii00208" unicode="&#x2015;" horiz-adv-x="1000" 
d="M200 210v57h600v-57h-600z" />
    <glyph glyph-name="quoteleft" unicode="&#x2018;" horiz-adv-x="178" 
d="M126 657l20 -9c-39 -58 -47 -106 -47 -135c0 -10 33 -47 47 -62l-50 -32c-20 6 -68 39 -68 81c0 46 44 106 98 157z" />
    <glyph glyph-name="commaaccent" unicode="&#xf6c3;" horiz-adv-x="234" 
d="M94 -221l-15 9c30 38 36 59 36 81c0 14 -29 39 -45 50l40 31c26 -3 65 -28 65 -62c0 -42 -49 -86 -81 -109z" />
    <glyph glyph-name="quotesinglbase" unicode="&#x201a;" horiz-adv-x="217" 
d="M72 -140l-20 8c38 58 46 107 46 135c0 10 -32 47 -47 63l51 31c20 -6 68 -39 68 -80c0 -47 -45 -107 -98 -157z" />
    <glyph glyph-name="quotedblleft" unicode="&#x201c;" horiz-adv-x="345" 
d="M126 657l20 -9c-39 -58 -47 -106 -47 -135c0 -10 33 -47 47 -62l-50 -32c-20 6 -68 39 -68 81c0 46 44 106 98 157zM293 657l21 -9c-39 -58 -47 -106 -47 -135c0 -10 32 -47 47 -62l-51 -32c-20 6 -67 39 -67 81c0 46 44 106 97 157z" />
    <glyph glyph-name="quotedblright" unicode="&#x201d;" horiz-adv-x="345" 
d="M52 419l-20 9c38 58 46 106 46 134c0 11 -32 47 -47 63l51 32c20 -6 68 -40 68 -81c0 -46 -45 -107 -98 -157zM219 419l-20 9c39 58 47 106 47 134c0 11 -33 47 -47 63l51 32c19 -6 67 -40 67 -81c0 -46 -44 -107 -98 -157z" />
    <glyph glyph-name="quotedblbase" unicode="&#x201e;" horiz-adv-x="384" 
d="M71 -140l-20 8c39 58 46 107 46 135c0 10 -32 47 -46 63l50 31c20 -6 68 -39 68 -80c0 -47 -44 -107 -98 -157zM239 -140l-20 8c38 58 46 107 46 135c0 10 -32 47 -47 63l51 31c20 -6 68 -39 68 -80c0 -47 -45 -107 -98 -157z" />
    <glyph glyph-name="dagger" unicode="&#x2020;" horiz-adv-x="475" 
d="M269 -66h-63c1 57 7 190 7 244v232c-40 -2 -99 -6 -130 -10v65c31 -3 90 -7 130 -10c0 45 -4 134 -7 171h63c-3 -37 -7 -126 -7 -171c40 3 99 7 130 10v-65c-31 4 -90 8 -130 10v-232c0 -54 6 -187 7 -244z" />
    <glyph glyph-name="daggerdbl" unicode="&#x2021;" horiz-adv-x="475" 
d="M269 -66h-63c3 37 6 126 7 169c-40 -3 -99 -7 -130 -10v64c31 -3 90 -7 130 -9v264c-40 -2 -99 -6 -130 -9v64c31 -3 90 -7 130 -10c0 44 -4 132 -7 169h63c-3 -37 -6 -125 -7 -169c40 3 99 7 130 10v-64c-31 3 -90 7 -130 9v-264c40 2 99 6 130 9v-64
c-31 3 -90 7 -130 10c1 -43 4 -132 7 -169z" />
    <glyph glyph-name="bullet" unicode="&#x2022;" horiz-adv-x="430" 
d="M214 161c-84 0 -153 68 -153 151c0 84 69 153 153 153c83 0 152 -69 152 -153c0 -83 -69 -151 -152 -151z" />
    <glyph glyph-name="onedotenleader" unicode="&#x2024;" horiz-adv-x="250" 
d="M68 45c0 32 25 57 57 57c31 0 56 -25 56 -57c0 -31 -25 -56 -56 -56c-32 0 -57 25 -57 56z" />
    <glyph glyph-name="twodotenleader" unicode="&#x2025;" horiz-adv-x="499" 
d="M68 45c0 32 25 57 57 57c31 0 56 -25 56 -57c0 -31 -25 -56 -56 -56c-32 0 -57 25 -57 56zM318 45c0 32 25 57 56 57c32 0 57 -25 57 -57c0 -31 -25 -56 -57 -56c-31 0 -56 25 -56 56z" />
    <glyph glyph-name="ellipsis" unicode="&#x2026;" horiz-adv-x="908" 
d="M68 45c0 32 25 57 57 57c31 0 56 -25 56 -57c0 -31 -25 -56 -56 -56c-32 0 -57 25 -57 56zM393 45c0 32 25 57 57 57c31 0 56 -25 56 -57c0 -31 -25 -56 -56 -56c-32 0 -57 25 -57 56zM727 45c0 32 25 57 56 57c32 0 57 -25 57 -57c0 -31 -25 -56 -57 -56
c-31 0 -56 25 -56 56z" />
    <glyph glyph-name="perthousand" unicode="&#x2030;" horiz-adv-x="1064" 
d="M536 620h42l-356 -620h-43zM210 620c83 0 126 -61 126 -176c0 -105 -46 -182 -132 -182c-89 0 -130 59 -130 175c0 104 45 183 136 183zM204 595c-44 0 -62 -62 -62 -154c0 -93 19 -154 65 -154c43 0 62 50 62 151c0 108 -21 157 -65 157zM553 349c84 0 127 -61 127 -176
c0 -105 -46 -182 -133 -182c-89 0 -129 59 -129 175c0 104 45 183 135 183zM547 324c-43 0 -61 -61 -61 -154s19 -154 65 -154c42 0 61 50 61 151c0 108 -20 157 -65 157zM864 349c83 0 126 -61 126 -176c0 -105 -46 -182 -132 -182c-89 0 -130 59 -130 175
c0 104 45 183 136 183zM858 324c-43 0 -63 -61 -63 -154s20 -154 66 -154c42 0 61 50 61 151c0 108 -20 157 -64 157z" />
    <glyph glyph-name="guilsinglleft" unicode="&#x2039;" horiz-adv-x="269" 
d="M214 45l-167 181l167 180l17 -9l-109 -171l108 -172z" />
    <glyph glyph-name="guilsinglright" unicode="&#x203a;" horiz-adv-x="269" 
d="M55 45l-16 9l108 172l-109 171l17 9l167 -180z" />
    <glyph glyph-name="interrobang" unicode="&#x203d;" horiz-adv-x="436" 
d="M184 175h-16c-11 56 -27 180 -27 234v25c0 21 4 47 35 47s33 -26 33 -47v-25c0 -23 -2 -57 -6 -92c53 34 103 80 103 162c0 66 -38 116 -104 116c-67 0 -104 -57 -117 -105h-18v100c38 17 101 35 164 35c94 0 157 -52 157 -131c0 -104 -89 -139 -137 -175
c-29 -21 -46 -35 -54 -56c-4 -31 -9 -67 -13 -88zM180 -14c-31 0 -56 25 -56 56s25 57 56 57s57 -26 57 -57s-26 -56 -57 -56z" />
    <glyph glyph-name="fraction" unicode="&#x2044;" horiz-adv-x="98" 
d="M-139 -21l330 654h45l-329 -654h-46z" />
    <glyph glyph-name="colonmonetary" unicode="&#x20a1;" horiz-adv-x="600" 
d="M355 671h34l-17 -66c19 -1 38 -4 55 -7l18 73h34l-19 -81c18 -6 35 -11 46 -18v-127h-21c-7 33 -16 74 -39 93l-130 -513c6 -1 11 -1 18 -1c110 0 144 65 168 153h21l-11 -145c-38 -19 -95 -41 -205 -42l-20 -85h-35l22 87c-19 2 -37 6 -55 10l-24 -97h-34l28 110
c-90 44 -141 144 -141 269c0 194 108 318 290 322zM329 572c-116 -6 -183 -114 -183 -284c0 -85 22 -156 62 -201zM363 571l-129 -513c15 -12 32 -21 51 -26l132 525c-14 9 -33 12 -54 14z" />
    <glyph glyph-name="franc" unicode="&#x20a3;" horiz-adv-x="486" 
d="M48 616h398v-128h-22c-21 74 -36 89 -101 89h-110v-226l138 4l22 70h17v-186h-18l-21 72l-138 4v-136h147v-35h-147v-103l86 -24v-17h-251v17l72 24v103h-72v35h72v396l-72 24v17z" />
    <glyph glyph-name="lira" unicode="&#x20a4;" horiz-adv-x="486" 
d="M28 246v34h89c0 15 -2 40 -3 50h-86v33h85c-1 25 -3 54 -3 77c0 118 65 183 177 183c49 0 86 -13 110 -26v-93h-21c-17 47 -35 88 -101 88c-44 0 -86 -24 -86 -123c0 -28 7 -82 11 -106h121v-33h-119c1 -8 3 -31 4 -50h115v-34h-117c-11 -59 -57 -123 -100 -168l8 -7
c40 24 73 33 109 33c43 0 90 -36 125 -36c38 0 61 19 76 100h21v-128c-38 -40 -77 -54 -116 -54c-60 0 -120 41 -179 41c-48 0 -72 -15 -112 -55l-23 18c37 39 100 117 104 256h-89z" />
    <glyph glyph-name="peseta" unicode="&#x20a7;" horiz-adv-x="500" 
d="M35 616h227c121 0 190 -35 192 -156h49v-30h-51c-5 -99 -73 -157 -176 -157c-18 0 -36 2 -50 5l-5 23c37 0 58 0 87 14c38 16 52 59 54 115h-165v-389l92 -24v-17h-254v17l72 24v389h-72v30h72v115l-72 24v17zM197 579v-119h165c-1 72 -30 127 -104 127
c-30 0 -49 -6 -61 -8z" />
    <glyph glyph-name="Euro" unicode="&#x20ac;" horiz-adv-x="486" 
d="M453 175l-8 -139c-49 -32 -91 -50 -153 -50c-130 0 -190 109 -206 249h-61l8 38h51c0 8 -1 15 -1 23c0 18 1 31 2 49h-60l8 38h57c20 131 90 235 230 235c47 0 83 -12 118 -30v-111h-21c-20 82 -60 111 -100 111c-83 0 -125 -92 -138 -205h182l-8 -38h-177
c-1 -17 -1 -29 -1 -45v-27h166l-9 -38h-155c7 -107 49 -218 131 -218c56 0 99 57 123 158h22z" />
    <glyph glyph-name="uni20B9" unicode="&#x20b9;" horiz-adv-x="486" 
d="M68 572l15 39h365l-14 -39h-112c26 -20 44 -47 50 -86h76l-14 -39h-59c-5 -78 -73 -139 -183 -154l122 -167c59 -79 104 -108 136 -109v-17c-7 -1 -34 -2 -59 -2c-74 0 -110 31 -160 99l-137 186v32c126 3 186 29 188 132h-214l15 39h196c-9 60 -47 86 -134 86h-77z" />
    <glyph glyph-name="uni20BA" unicode="&#x20ba;" horiz-adv-x="486" 
d="M56 373l78 30v166l-80 24v17h246v-17l-78 -24v-133l159 63v-40l-159 -63v-71l159 63v-40l-159 -63v-243c149 0 189 102 200 225h25v-134c-22 -61 -87 -133 -286 -133h-107v17l80 24v211l-78 -29v40l78 29v71l-78 -30v40z" />
    <glyph glyph-name="afii61248" unicode="&#x2105;" horiz-adv-x="759" 
d="M308 386l-18 -77c-22 -13 -56 -25 -98 -25c-95 0 -153 58 -153 162c0 89 55 162 160 162c45 0 71 -11 89 -20v-71h-24c-14 40 -28 63 -65 63c-57 0 -83 -51 -83 -130c0 -83 35 -137 91 -137c37 0 62 25 82 73h19zM236 -14l238 654h40l-238 -654h-40zM558 -10
c-90 0 -146 54 -146 154c0 91 50 170 164 170c91 0 143 -53 143 -147c0 -105 -57 -177 -161 -177zM489 150c0 -92 24 -132 77 -132c51 0 76 54 76 135c0 99 -25 132 -75 132c-57 0 -78 -56 -78 -135z" />
    <glyph glyph-name="afii61289" unicode="&#x2113;" horiz-adv-x="359" 
d="M326 111l17 -16c-34 -54 -101 -107 -137 -107c-44 0 -75 11 -96 35c-20 26 -33 59 -33 137v69l-52 -41l-10 24l62 53v117c0 147 12 203 46 246c21 30 51 47 79 47c55 0 81 -59 81 -125c0 -108 -54 -191 -130 -270v-82c0 -119 26 -151 76 -151c26 0 69 29 97 64zM153 438
v-114c46 60 81 140 81 226c0 51 -12 94 -39 94c-33 0 -42 -56 -42 -206z" />
    <glyph glyph-name="afii61352" unicode="&#x2116;" horiz-adv-x="877" 
d="M28 626h162l260 -459l2 2l-10 416l-71 24v17h184v-17l-61 -24l-13 -598h-24l-309 543l-1 -2l9 -487l74 -24v-17h-197v17l71 24l9 537l-85 31v17zM713 585c76 0 125 -60 125 -166c0 -97 -50 -172 -131 -172c-84 0 -130 56 -130 165c0 97 51 173 136 173zM707 560
c-44 0 -62 -62 -62 -144c0 -83 19 -144 65 -144c42 0 61 56 61 141c0 98 -21 147 -64 147zM583 143v42h252v-42h-252z" />
    <glyph glyph-name="trademark" unicode="&#x2122;" horiz-adv-x="585" 
d="M268 626h61l76 -132c25 46 51 86 76 132h63v-17l-38 -8l9 -149c10 -2 24 -6 35 -8v-17h-95v17l26 8c-2 41 -5 73 -7 115c-23 -44 -52 -90 -74 -132l-75 131l-3 -114c9 -2 17 -6 26 -8v-17h-89v17l32 8c4 49 9 99 14 148c-11 2 -27 6 -37 9v17zM35 626h192v-65h-18
c-6 33 -9 40 -29 40h-29v-149l32 -8v-17h-102v17l33 8v149h-31c-19 0 -23 -7 -29 -40h-19v65z" />
    <glyph glyph-name="estimated" unicode="&#x212e;" horiz-adv-x="696" 
d="M651 303h-483c-3 0 -5 -1 -5 -4v-162c0 -8 3 -15 7 -21c43 -58 101 -97 178 -97c80 0 130 31 177 94h73c-59 -76 -145 -126 -251 -126c-180 0 -303 145 -303 325c0 181 123 327 303 327c181 0 304 -146 304 -327v-9zM532 344v154c0 8 -2 18 -8 23c-45 51 -109 85 -176 85
c-68 0 -130 -33 -177 -87c-5 -6 -8 -16 -8 -25v-150c0 -2 2 -6 5 -6h361c3 0 3 4 3 6z" />
    <glyph glyph-name="onethird" unicode="&#x2153;" horiz-adv-x="692" 
d="M48 278v14l69 20v255l-82 7v15l149 30v-307l68 -20v-14h-204zM160 -21l330 654h45l-329 -654h-46zM440 260v62c25 8 60 17 103 17c62 0 99 -24 99 -66c0 -48 -44 -73 -81 -85v-2c43 -3 95 -22 95 -83c0 -65 -56 -111 -136 -111c-43 0 -75 9 -97 21v63h19
c10 -31 34 -61 73 -61c37 0 69 25 69 75c0 41 -24 71 -69 71c-7 0 -15 -1 -21 -2l-4 18c37 7 80 25 80 82c0 41 -24 58 -48 58c-36 0 -54 -30 -63 -57h-19z" />
    <glyph glyph-name="twothirds" unicode="&#x2154;" horiz-adv-x="692" 
d="M20 278v14c43 49 160 161 160 239c0 40 -22 62 -55 62c-36 0 -60 -34 -71 -70h-16v74c26 9 69 20 108 20c63 0 105 -24 105 -80c0 -81 -96 -125 -161 -201v-3h141l18 48h13v-103h-242zM160 -21l330 654h45l-329 -654h-46zM440 260v62c25 8 60 17 103 17
c62 0 99 -24 99 -66c0 -48 -44 -73 -81 -85v-2c43 -3 95 -22 95 -83c0 -65 -56 -111 -136 -111c-43 0 -75 9 -97 21v63h19c10 -31 34 -61 73 -61c37 0 69 25 69 75c0 41 -24 71 -69 71c-7 0 -15 -1 -21 -2l-4 18c37 7 80 25 80 82c0 41 -24 58 -48 58c-36 0 -54 -30 -63 -57
h-19z" />
    <glyph glyph-name="oneeighth" unicode="&#x215b;" horiz-adv-x="721" 
d="M50 268v15l72 20v266l-86 7v15l156 32v-320l71 -20v-15h-213zM182 -21l275 654h43l-276 -654h-42zM537 -8c-76 0 -126 34 -126 100s47 92 93 98v3c-42 4 -77 27 -77 75c0 54 44 85 118 85c71 0 113 -25 113 -76c0 -49 -39 -78 -79 -84v-3c45 -4 94 -21 94 -86
s-53 -112 -136 -112zM498 271c0 -44 16 -66 44 -66s43 22 43 69c0 36 -13 56 -42 56c-30 0 -45 -24 -45 -59zM485 97c0 -46 20 -81 57 -81c35 0 56 31 56 81c0 52 -16 81 -56 81s-57 -29 -57 -81z" />
    <glyph glyph-name="threeeighths" unicode="&#x215c;" horiz-adv-x="724" 
d="M46 534v68c26 9 63 18 106 18c65 0 104 -24 104 -69c0 -52 -47 -76 -86 -88v-2c45 -3 100 -22 100 -88c0 -67 -57 -114 -140 -114c-45 0 -74 10 -102 21v81h20c13 -37 39 -78 77 -78c37 0 71 26 71 78c0 43 -26 74 -72 74c-7 0 -15 -1 -21 -2l-6 18c39 8 85 26 85 86
c0 42 -25 60 -50 60c-39 0 -58 -37 -66 -63h-20zM186 -21l275 654h43l-275 -654h-43zM539 -8c-76 0 -126 34 -126 100s49 92 94 98v3c-42 4 -78 27 -78 75c0 54 44 85 119 85c70 0 113 -25 113 -76c0 -49 -39 -78 -80 -84v-3c46 -4 94 -21 94 -86s-52 -112 -136 -112z
M501 271c0 -44 15 -66 43 -66c29 0 44 22 44 69c0 36 -14 56 -43 56c-30 0 -44 -24 -44 -59zM488 97c0 -46 20 -81 56 -81c35 0 56 31 56 81c0 52 -16 81 -56 81c-39 0 -56 -29 -56 -81z" />
    <glyph glyph-name="fiveeighths" unicode="&#x215d;" horiz-adv-x="742" 
d="M205 -21l275 654h43l-276 -654h-42zM559 -8c-76 0 -127 34 -127 100s48 92 94 98v3c-42 4 -78 27 -78 75c0 54 45 85 119 85c71 0 112 -25 112 -76c0 -49 -38 -78 -79 -84v-3c46 -4 94 -21 94 -86s-52 -112 -135 -112zM520 271c0 -44 15 -66 43 -66c29 0 44 22 44 69
c0 36 -13 56 -42 56c-30 0 -45 -24 -45 -59zM506 97c0 -46 21 -81 57 -81c35 0 56 31 56 81c0 52 -16 81 -56 81c-39 0 -57 -29 -57 -81zM113 561l-21 -86c20 10 46 20 79 20c76 0 116 -41 116 -105c0 -74 -57 -125 -144 -125c-41 0 -70 10 -92 21v78h18
c15 -36 37 -75 72 -75c40 0 71 29 71 79c0 53 -29 77 -72 77c-29 0 -48 -10 -64 -20l-10 5l25 191h166v-60h-144z" />
    <glyph glyph-name="seveneighths" unicode="&#x215e;" horiz-adv-x="689" 
d="M151 -21l275 654h43l-275 -654h-43zM505 -8c-77 0 -127 34 -127 100s48 92 94 98v3c-42 4 -78 27 -78 75c0 54 45 85 120 85c69 0 112 -25 112 -76c0 -49 -39 -78 -79 -84v-3c45 -4 93 -21 93 -86s-52 -112 -135 -112zM466 271c0 -44 15 -66 43 -66s43 22 43 69
c0 36 -13 56 -42 56c-30 0 -44 -24 -44 -59zM453 97c0 -46 20 -81 56 -81c35 0 56 31 56 81c0 52 -16 81 -56 81s-56 -29 -56 -81zM128 263l-52 10l164 279h-165l-17 -54h-15v122h255v-7z" />
    <glyph glyph-name="arrowleft" unicode="&#x2190;" horiz-adv-x="495" 
d="M40 237l189 185l27 -31l-140 -132h320v-43h-321l142 -134l-28 -30z" />
    <glyph glyph-name="arrowup" unicode="&#x2191;" horiz-adv-x="496" 
d="M63 258l185 210l185 -210l-30 -29l-132 156v-385h-47v383l-130 -154z" />
    <glyph glyph-name="arrowright" unicode="&#x2192;" horiz-adv-x="495" 
d="M263 422l189 -185l-189 -185l-28 30l141 134h-321v43h320l-140 132z" />
    <glyph glyph-name="arrowdown" unicode="&#x2193;" horiz-adv-x="496" 
d="M248 -10l-185 210l31 30l130 -155v383h47v-384l132 156l30 -30z" />
    <glyph glyph-name="partialdiff" unicode="&#x2202;" horiz-adv-x="426" 
d="M253 403c36 0 57 -13 70 -27l5 4c7 36 12 74 12 134c0 54 -27 119 -90 119c-28 0 -65 -12 -103 -33l-8 10l37 71c16 9 32 13 48 14c97 3 179 -120 179 -312c0 -172 -84 -397 -249 -397c-84 0 -125 62 -125 147c0 112 76 270 224 270zM259 375c-95 0 -149 -170 -149 -261
c0 -48 8 -100 57 -100c93 0 158 211 158 303c0 21 -23 58 -66 58z" />
    <glyph glyph-name="product" unicode="&#x220f;" horiz-adv-x="674" 
d="M40 626h594v-17l-83 -24v-621l83 -24v-17h-243v17l67 24v620h-242v-620l68 -24v-17h-244v17l83 24v621l-83 24v17z" />
    <glyph glyph-name="summation" unicode="&#x2211;" horiz-adv-x="486" 
d="M15 -77v17l186 313l-160 356v17h377v-144h-20c-27 85 -40 105 -107 105h-139l121 -271l-163 -312h214c70 0 84 -3 111 121h20v-202h-440z" />
    <glyph glyph-name="minus" unicode="&#x2212;" horiz-adv-x="618" 
d="M74 208v56h470v-56h-470z" />
    <glyph glyph-name="uni2215" unicode="&#x2215;" horiz-adv-x="98" 
d="M-139 -21l330 654h45l-329 -654h-46z" />
    <glyph glyph-name="uni2219" unicode="&#x2219;" horiz-adv-x="258" 
d="M129 190c-34 0 -61 27 -61 60c0 34 27 61 61 61c33 0 60 -27 60 -61c0 -33 -27 -60 -60 -60z" />
    <glyph glyph-name="radical" unicode="&#x221a;" horiz-adv-x="483" 
d="M23 317l111 81l117 -327h2l180 699h51l-252 -866h-7l-143 405l-59 -11v19z" />
    <glyph glyph-name="infinity" unicode="&#x221e;" horiz-adv-x="634" 
d="M39 257c0 87 56 149 132 149c62 0 107 -46 150 -104c38 47 79 105 149 104c71 0 123 -59 123 -145c0 -94 -62 -150 -127 -150c-50 0 -93 29 -150 105c-42 -57 -86 -105 -151 -105c-67 0 -126 60 -126 146zM170 164c49 0 88 52 121 91c-35 49 -70 98 -124 98
c-47 0 -77 -42 -77 -96c0 -53 35 -93 80 -93zM465 353c-52 0 -97 -65 -120 -93c52 -67 81 -96 122 -96c48 0 76 48 76 93c0 60 -33 96 -78 96z" />
    <glyph glyph-name="integral" unicode="&#x222b;" horiz-adv-x="350" 
d="M274 772c25 0 57 -14 57 -43c0 -27 -20 -41 -40 -41c-15 0 -27 44 -50 44c-19 0 -45 -28 -39 -154l16 -353c17 -331 -59 -406 -141 -406c-34 0 -57 20 -57 44c-1 23 23 42 47 42c11 0 25 -46 46 -46c28 0 44 61 39 154l-18 375c-16 317 63 384 140 384z" />
    <glyph glyph-name="approxequal" unicode="&#x2248;" horiz-adv-x="618" 
d="M66 259c30 55 91 107 149 107c56 0 147 -75 202 -75c69 0 95 75 95 75l40 -30c-26 -54 -80 -104 -135 -104c-63 0 -161 75 -206 75c-70 0 -103 -77 -103 -77zM66 103c30 55 91 107 149 107c56 0 147 -75 202 -75c69 0 95 76 95 76l40 -31c-26 -53 -80 -104 -135 -104
c-63 0 -161 76 -206 76c-70 0 -103 -78 -103 -78z" />
    <glyph glyph-name="notequal" unicode="&#x2260;" horiz-adv-x="618" 
d="M74 282v55h277l71 122l47 -26l-55 -96h130v-55h-162l-59 -103h221v-54h-252l-70 -121l-46 26l54 95h-156v54h187l59 103h-246z" />
    <glyph glyph-name="lessequal" unicode="&#x2264;" horiz-adv-x="618" 
d="M101 349l408 189v-63l-332 -152l332 -150v-63l-408 188v51zM74 0v56h470v-56h-470z" />
    <glyph glyph-name="greaterequal" unicode="&#x2265;" horiz-adv-x="618" 
d="M107 538l408 -189v-51l-408 -188v63l333 150l-333 152v63zM72 56h471v-56h-471v56z" />
    <glyph glyph-name="fisheye" unicode="&#x25c9;" horiz-adv-x="379" 
d="M49 231c0 87 62 159 141 159c77 0 139 -72 139 -159s-62 -160 -139 -160c-79 0 -141 73 -141 160zM84 231c0 -65 47 -121 106 -121c58 0 105 56 105 121c0 64 -47 119 -105 119c-59 0 -106 -55 -106 -119zM127 231c0 -40 27 -73 63 -73c35 0 62 33 62 73
c0 38 -27 72 -62 72c-36 0 -63 -34 -63 -72z" />
    <glyph glyph-name="lozenge" unicode="&#x25ca;" horiz-adv-x="549" 
d="M87 316l174 386h27l174 -384l-174 -388h-27zM148 316l126 -289c-1 2 127 291 127 289s-128 287 -127 289z" />
    <glyph glyph-name="checkmark" unicode="&#x2713;" horiz-adv-x="535" 
d="M84 328l30 58l12 2c36 -48 82 -214 91 -290l8 -3l220 521l51 32l8 -5l-311 -671l-18 -4c-4 117 -42 267 -91 360z" />
    <glyph glyph-name="D_Zcaron" horiz-adv-x="1230" 
d="M38 0v17l82 24v544l-83 24v17h259c177 0 323 -63 323 -293c0 -223 -140 -333 -336 -333h-245zM215 589v-548c24 -4 48 -8 71 -8c156 0 229 113 229 295c0 165 -60 267 -221 267c-19 0 -60 -4 -79 -6zM728 626h445v-19l-359 -566h225c86 0 103 16 128 119h21v-160h-498v17
l366 573l-166 -2c-102 -1 -114 -16 -141 -98h-21v136zM850 792l15 6l94 -60l92 60l16 -6l-96 -117h-25z" />
    <glyph glyph-name="D_zcaron" horiz-adv-x="1100" 
d="M38 0v17l82 24v544l-83 24v17h259c177 0 323 -63 323 -293c0 -223 -140 -333 -336 -333h-245zM215 589v-548c24 -4 48 -8 71 -8c156 0 229 113 229 295c0 165 -60 267 -221 267c-19 0 -60 -4 -79 -6zM693 0v17l266 396h-129c-46 0 -65 -8 -87 -87h-20v126h342v-19
l-262 -392l142 -2c60 -1 75 12 99 108h21v-147h-372zM899 512l-87 159l16 5l83 -94l83 94l16 -5l-86 -159h-25z" />
    <glyph glyph-name="L_J" unicode="&#x1c7;" horiz-adv-x="959" 
d="M37 0v17l83 24v544l-83 24v17h261v-17l-83 -24v-542h144c78 0 104 29 122 117h22v-160h-466zM853 585v-388c0 -119 -50 -211 -176 -211c-48 0 -105 13 -132 27v125h22c15 -70 50 -121 105 -121c62 0 86 56 86 158v410l-91 24v17h261v-17z" />
    <glyph glyph-name="L_j" unicode="&#x1c8;" horiz-adv-x="790" 
d="M37 0v17l83 24v544l-83 24v17h261v-17l-83 -24v-542h144c78 0 104 29 122 117h22v-160h-466zM710 466v-446c0 -151 -47 -236 -160 -236c-41 0 -76 13 -89 24v92h20c10 -44 33 -87 76 -87c51 0 70 53 70 168v410l-74 2v18zM611 613c0 28 23 52 51 52s51 -24 51 -52
s-23 -51 -51 -51s-51 23 -51 51z" />
    <glyph glyph-name="N_J" unicode="&#x1ca;" horiz-adv-x="1125" 
d="M30 626h163l348 -469l2 2l-10 426l-86 24v17h205v-17l-62 -24l-16 -598h-24l-395 541l-2 -2l11 -485l87 -24v-17h-216v17l74 24l10 537l-89 31v17zM1013 585v-388c0 -119 -50 -211 -176 -211c-48 0 -105 13 -132 27v125h22c15 -70 50 -121 105 -121c62 0 86 56 86 158
v410l-91 24v17h261v-17z" />
    <glyph glyph-name="N_j" unicode="&#x1cb;" horiz-adv-x="950" 
d="M30 626h163l348 -469l2 2l-10 426l-86 24v17h205v-17l-62 -24l-16 -598h-24l-395 541l-2 -2l11 -485l87 -24v-17h-216v17l74 24l10 537l-89 31v17zM870 466v-446c0 -151 -47 -236 -160 -236c-41 0 -76 13 -89 24v92h20c10 -44 33 -87 76 -87c51 0 70 53 70 168v410l-74 2
v18zM771 613c0 28 23 52 51 52s51 -24 51 -52s-23 -51 -51 -51s-51 23 -51 51z" />
    <glyph glyph-name="R_p" horiz-adv-x="960" 
d="M497 -216v17l73 24v172h-21c-75 0 -121 32 -172 103l-119 158h-46v-217l75 -24v-17h-251v17l83 24v504l-83 24v17h246c149 0 197 -58 197 -148c0 -98 -79 -138 -133 -157l139 -178c33 -46 63 -69 85 -79v321l-66 3v17l148 55v-113h2c15 36 58 112 139 112
c101 0 129 -104 129 -204c0 -144 -82 -229 -182 -229c-38 0 -65 7 -88 34v-195l89 -24v-17h-244zM212 549v-264c106 3 171 38 171 144c0 85 -39 127 -114 127c-17 0 -33 -2 -57 -7zM651 137c0 -89 36 -117 80 -117c60 0 101 54 101 186c0 97 -24 152 -77 152
c-57 0 -88 -54 -99 -124c-3 -25 -5 -63 -5 -97z" />
    <glyph glyph-name="c_h" horiz-adv-x="956" 
d="M439 140l-55 -118c-29 -20 -82 -36 -138 -36c-130 0 -208 88 -208 240c0 130 76 240 219 240c61 0 103 -16 123 -27v-100h-26c-20 59 -44 94 -99 94c-81 0 -124 -81 -124 -199c0 -124 50 -212 131 -212c53 0 99 22 152 118h25zM430 0v17l69 24v596l-70 2v17l153 54v-346
h2c20 33 80 102 161 102c78 0 115 -50 115 -140v-285l70 -24v-17h-215v17l62 24v257c0 61 -10 109 -68 109c-22 0 -59 -9 -95 -46c-19 -19 -32 -41 -32 -76v-244l62 -24v-17h-214z" />
    <glyph glyph-name="c_k" horiz-adv-x="952" 
d="M435 138l-51 -116c-29 -20 -82 -36 -138 -36c-130 0 -208 88 -208 240c0 130 76 240 219 240c61 0 103 -16 123 -27v-100h-26c-20 59 -44 94 -99 94c-81 0 -124 -81 -124 -199c0 -124 50 -212 131 -212c53 0 99 28 148 116h25zM446 656l153 54v-476l164 177l-60 24v17
h191v-17l-73 -24l-132 -127l188 -243l49 -24v-17h-196v17l52 22l-149 192l-34 -31v-159l61 -24v-17h-215v17l72 24v596l-71 2v17z" />
    <glyph glyph-name="c_t" horiz-adv-x="747" 
d="M758 80l-47 -75c-15 -10 -51 -19 -74 -19c-85 0 -118 62 -118 167v237h-70v17l81 36c22 36 41 80 47 122c-6 36 -52 81 -130 81c-96 0 -142 -55 -142 -106c0 -34 16 -66 37 -86c17 -5 29 -11 38 -15v-100h-26c-20 59 -44 94 -99 94c-81 0 -124 -81 -124 -199
c0 -124 50 -212 131 -212c53 0 102 31 146 118h27l-51 -116c-29 -20 -82 -38 -138 -38c-130 0 -208 88 -208 240c0 130 76 240 219 240c14 0 28 -1 40 -3c-15 22 -25 50 -25 79c0 80 57 159 178 159c108 0 151 -69 151 -135v-125h122v-51h-122v-212c0 -73 10 -131 64 -131
c28 0 60 17 82 45z" />
    <glyph glyph-name="d_z" horiz-adv-x="938" 
d="M258 656l159 54v-658l74 -3v-17l-156 -46v88h-1c-25 -47 -76 -88 -140 -88c-97 0 -156 89 -156 223c0 147 80 257 204 257c41 0 74 -12 93 -26v197l-77 2v17zM128 225c0 -108 33 -180 104 -180c37 0 83 17 96 90c6 26 8 88 8 134c0 33 1 87 -7 111c-10 33 -40 53 -78 53
c-79 0 -123 -82 -123 -208zM531 0v17l266 396h-129c-46 0 -65 -8 -87 -87h-20v126h342v-19l-262 -392l142 -2c60 -1 75 12 99 108h21v-147h-372z" />
    <glyph glyph-name="d_zcaron" horiz-adv-x="938" 
d="M258 656l159 54v-658l74 -3v-17l-156 -46v88h-1c-25 -47 -76 -88 -140 -88c-97 0 -156 89 -156 223c0 147 80 257 204 257c41 0 74 -12 93 -26v197l-77 2v17zM128 225c0 -108 33 -180 104 -180c37 0 83 17 96 90c6 26 8 88 8 134c0 33 1 87 -7 111c-10 33 -40 53 -78 53
c-79 0 -123 -82 -123 -208zM531 0v17l266 396h-129c-46 0 -65 -8 -87 -87h-20v126h342v-19l-262 -392l142 -2c60 -1 75 12 99 108h21v-147h-372zM737 512l-87 159l16 5l83 -94l83 94l16 -5l-86 -159h-25z" />
    <glyph glyph-name="f_f_t" horiz-adv-x="880" 
d="M40 407l63 31v15c0 137 68 230 195 230c41 0 80 -7 111 -23l-7 -87c35 88 113 125 195 125c53 0 97 -11 133 -27v-230h120v-52h-120v-211c0 -73 8 -132 61 -132c26 0 57 18 80 45l10 -12l-48 -74c-16 -10 -45 -19 -69 -19c-85 0 -116 62 -116 167v236h-185v-348l89 -24
v-17h-232v17l60 24v348h-195v-348l67 -24v-17h-212v17l63 24v348h-63v18zM185 435h195v17c0 39 6 78 16 108h-17c-15 57 -41 90 -89 90c-63 0 -105 -47 -105 -179v-36zM463 435h189c28 46 51 106 57 140c-12 53 -58 91 -115 91c-72 0 -131 -36 -131 -185v-46z" />
    <glyph glyph-name="f_t" horiz-adv-x="610" 
d="M32 408l71 34v12c0 176 106 244 219 244c53 0 102 -11 138 -26v-231h121v-52h-121v-211c0 -73 8 -132 63 -132c28 0 56 18 80 45l10 -12l-48 -74c-16 -10 -48 -19 -72 -19c-84 0 -116 62 -116 167v236h-191v-348l88 -24v-17h-242v17l71 24v348h-71v19zM186 437h196
c25 44 49 102 57 149c-15 52 -63 80 -120 80s-133 -36 -133 -210v-19z" />
    <glyph glyph-name="l_j" unicode="&#x1c9;" horiz-adv-x="540" 
d="M28 0v17l71 24v596l-77 2v17l160 54v-669l70 -24v-17h-224zM460 466v-446c0 -151 -47 -236 -160 -236c-41 0 -76 13 -89 24v92h20c10 -44 33 -87 76 -87c51 0 70 53 70 168v410l-74 2v18zM361 613c0 28 23 52 51 52s51 -24 51 -52s-23 -51 -51 -51s-51 23 -51 51z" />
    <glyph glyph-name="n_j" unicode="&#x1cc;" horiz-adv-x="816" 
d="M31 411l154 55v-101h2c22 34 80 101 161 101c83 0 114 -55 114 -145v-280l71 -24v-17h-214v17l60 24v274c0 50 -11 92 -68 92c-24 0 -61 -11 -94 -46c-18 -18 -32 -43 -32 -73v-247l60 -24v-17h-212v17l69 24v350l-71 2v18zM735 466v-446c0 -151 -47 -236 -160 -236
c-41 0 -76 13 -89 24v92h20c10 -44 33 -87 76 -87c51 0 70 53 70 168v410l-74 2v18zM636 613c0 28 23 52 51 52s51 -24 51 -52s-23 -51 -51 -51s-51 23 -51 51z" />
    <glyph glyph-name="s_t" unicode="&#xfb06;" horiz-adv-x="704" 
d="M707 80l-47 -75c-15 -10 -50 -19 -74 -19c-85 0 -117 62 -117 167v237h-70v17l80 36c21 35 37 78 43 124c-6 38 -52 79 -131 79c-95 0 -140 -55 -140 -106c0 -33 15 -64 35 -83c12 -4 22 -7 30 -11v-88h-25c-13 65 -52 77 -89 77c-48 0 -78 -28 -78 -71
c0 -48 28 -67 102 -95c69 -26 117 -59 117 -132c0 -90 -66 -151 -168 -151c-47 0 -89 10 -125 28v117h26c12 -77 43 -113 108 -113c55 0 86 33 86 82c0 43 -26 73 -92 97c-83 30 -119 68 -119 136c0 78 55 133 155 133c11 0 21 -1 31 -2c-16 21 -26 49 -26 78
c0 80 55 159 176 159c108 0 155 -70 155 -123l1 -137h121v-51h-121v-212c0 -73 10 -131 63 -131c28 0 60 17 83 45z" />
    <glyph glyph-name="t_t" horiz-adv-x="613" 
d="M616 79l-48 -74c-17 -10 -50 -19 -75 -19c-85 0 -118 62 -118 167v237h-205v-212c0 -73 10 -130 66 -130c28 0 64 12 105 57l11 -16l-67 -81c-17 -13 -55 -22 -79 -22c-85 0 -118 62 -118 167v237h-71v17l80 36l49 148h24v-152h215l48 152h25v-150h122v-51h-122v-212
c0 -73 10 -130 65 -130c28 0 61 16 83 43z" />
    <glyph glyph-name="bar_bar" horiz-adv-x="570" 
d="M138 750h58v-1000h-58v1000zM374 750h58v-1000h-58v1000z" />
    <glyph glyph-name="Gtilde" horiz-adv-x="637" 
d="M550 245v-166c0 -16 3 -23 8 -32c-47 -28 -131 -61 -225 -61c-190 0 -290 148 -290 323c0 186 116 331 317 331c78 0 136 -14 185 -35v-115h-22c-28 84 -80 117 -167 117c-117 0 -208 -104 -208 -290c0 -162 68 -296 198 -296c53 0 92 16 112 34v190l-76 24v17h227v-17z
M242 688l-16 9c18 43 43 86 86 86c39 0 67 -35 97 -35c24 0 38 5 63 41l13 -10c-14 -35 -41 -85 -85 -85c-42 0 -67 34 -96 34c-25 0 -40 -9 -62 -40z" />
    <glyph glyph-name="Mcircumflex" horiz-adv-x="823" 
d="M33 0v17l68 24l30 539l-83 29v17h170l194 -459h1l197 459h165v-17l-79 -24l19 -544l69 -24v-17h-250v17l87 24l-12 485h-4l-215 -523h-11l-213 516h-4l-5 -478l88 -24v-17h-212zM399 796h25l95 -117l-15 -5l-93 49l-93 -49l-16 5z" />
    <glyph glyph-name="Ncircumflex" horiz-adv-x="688" 
d="M30 626h163l348 -469l2 2l-10 426l-86 24v17h205v-17l-62 -24l-16 -598h-24l-395 541l-2 -2l11 -485l87 -24v-17h-216v17l74 24l10 537l-89 31v17zM349 796h25l95 -117l-15 -5l-93 49l-93 -49l-16 5z" />
    <glyph glyph-name="abrevedown" horiz-adv-x="458" 
d="M83 433c41 16 103 33 167 33c110 0 124 -61 124 -143v-272l73 -3v-17l-156 -45l2 78h-2c-27 -47 -77 -78 -133 -78c-75 0 -122 48 -122 121c0 115 116 147 255 163v55c0 67 -17 106 -73 106c-54 0 -92 -28 -112 -99h-23v101zM291 240c-107 -13 -169 -40 -169 -121
c0 -50 30 -77 75 -77c29 0 50 9 69 28c14 16 25 41 25 80v90zM345 516h-23c-6 32 -11 71 -85 71c-73 0 -79 -39 -85 -71h-23c2 57 21 125 108 125s107 -68 108 -125z" />
    <glyph glyph-name="adoublegrave" horiz-adv-x="458" 
d="M83 433c41 16 103 33 167 33c110 0 124 -61 124 -143v-272l73 -3v-17l-156 -45l2 78h-2c-27 -47 -77 -78 -133 -78c-75 0 -122 48 -122 121c0 115 116 147 255 163v55c0 67 -17 106 -73 106c-54 0 -92 -28 -112 -99h-23v101zM291 240c-107 -13 -169 -40 -169 -121
c0 -50 30 -77 75 -77c29 0 50 9 69 28c14 16 25 41 25 80v90zM189 513l-88 138l55 22l47 -153zM293 513l-87 138l55 22l46 -153z" />
    <glyph glyph-name="brevedown" horiz-adv-x="319" 
d="M295 516h-23c-6 32 -11 71 -85 71c-73 0 -79 -39 -85 -71h-23c2 57 21 125 108 125s107 -68 108 -125z" />
    <glyph glyph-name="checkmarkcircle" horiz-adv-x="742" 
d="M86 306c0 174 129 317 286 317c55 0 106 -19 150 -48l31 91l55 41l8 -9l-63 -148c63 -57 104 -146 104 -244c0 -175 -128 -317 -285 -317c-14 0 -34 1 -44 3l-12 -27l-18 -2v36c-123 36 -212 160 -212 307zM349 105l162 444c-32 24 -87 45 -140 45
c-139 0 -256 -127 -256 -288c0 -133 81 -245 183 -277c-7 118 -34 241 -74 321l34 68l12 -3c34 -69 64 -210 70 -306zM542 525l-204 -506c10 -1 23 -1 35 -1c144 0 256 126 256 288c0 87 -40 173 -87 219z" />
    <glyph glyph-name="checkmarkempty" horiz-adv-x="741" 
d="M92 0v579l44 35h513v-566l-34 -48h-523zM601 566h-484v-538h484v538z" />
    <glyph glyph-name="checkmarksquare" horiz-adv-x="652" 
d="M90 0v517l39 31h354l20 46l49 28l7 -6l-35 -68h64v-505l-31 -43h-262l-12 -31l-15 -1c0 10 -1 22 -1 32h-177zM113 505v-480h153c-5 94 -37 228 -65 288l35 52l11 -2c27 -60 52 -190 58 -265l8 -3l155 410h-355zM544 505h-39l-202 -480h241v480z" />
    <glyph glyph-name="diamondblack" horiz-adv-x="363" 
d="M31 230l150 167l150 -167l-150 -166z" />
    <glyph glyph-name="doublegrave" horiz-adv-x="346" 
d="M154 513l-88 138l55 22l47 -153zM258 513l-87 138l55 22l46 -153z" />
    <glyph glyph-name="ebrevedown" horiz-adv-x="452" 
d="M410 120l-28 -100c-31 -19 -77 -34 -140 -34c-127 0 -202 85 -202 233c0 137 77 247 205 247c132 0 163 -124 163 -213h-274c-1 -10 -1 -25 -1 -34c0 -120 54 -199 131 -199c52 0 92 27 123 100h23zM136 288h183c-1 65 -17 146 -83 146c-57 0 -89 -56 -100 -146zM349 516
h-23c-6 32 -11 71 -85 71c-73 0 -79 -39 -85 -71h-23c2 57 21 125 108 125s107 -68 108 -125z" />
    <glyph glyph-name="edoublegrave" horiz-adv-x="452" 
d="M410 120l-28 -100c-31 -19 -77 -34 -140 -34c-127 0 -202 85 -202 233c0 137 77 247 205 247c132 0 163 -124 163 -213h-274c-1 -10 -1 -25 -1 -34c0 -120 54 -199 131 -199c52 0 92 27 123 100h23zM136 288h183c-1 65 -17 146 -83 146c-57 0 -89 -56 -100 -146zM182 513
l-88 138l55 22l47 -153zM286 513l-87 138l55 22l46 -153z" />
    <glyph glyph-name="gtilde" horiz-adv-x="470" 
d="M234 466c32 0 65 -9 86 -18c22 -10 37 -17 40 -17c39 0 76 5 100 11v-53h-90c15 -20 23 -46 23 -73c0 -123 -108 -158 -185 -158l-69 -58c4 -18 20 -35 60 -35c38 0 94 1 127 1c68 0 112 -36 112 -102c0 -104 -95 -180 -230 -180c-144 0 -180 81 -181 147
c29 27 70 53 105 73v4c-16 8 -37 25 -48 42c-7 10 -15 29 -15 53c17 4 65 23 104 60c-41 10 -117 42 -117 143c0 92 68 160 178 160zM139 310c0 -68 26 -121 87 -121c62 0 84 65 84 121c0 62 -14 125 -83 125c-61 0 -88 -56 -88 -125zM166 -1c-42 -22 -65 -55 -65 -86
c0 -60 52 -95 118 -95c87 0 152 47 152 113c0 45 -27 63 -87 63c-55 0 -94 1 -118 5zM150 540l-16 10c14 36 44 82 84 82c32 0 59 -28 94 -28c18 0 32 2 55 38l15 -10c-15 -37 -44 -82 -83 -82c-31 0 -64 28 -96 28c-18 0 -32 -6 -53 -38z" />
    <glyph glyph-name="ibrevedown" horiz-adv-x="273" 
d="M33 0v17l69 24v350l-72 2v18l155 55v-425l70 -24v-17h-222zM254 516h-23c-6 32 -11 71 -85 71c-73 0 -79 -39 -85 -71h-23c2 57 21 125 108 125s107 -68 108 -125z" />
    <glyph glyph-name="idoublegrave" horiz-adv-x="268" 
d="M33 0v17l69 24v350l-72 2v18l155 55v-425l70 -24v-17h-222zM89 513l-88 138l55 22l47 -153zM193 513l-87 138l55 22l46 -153z" />
    <glyph glyph-name="mcircumflex" horiz-adv-x="815" 
d="M30 411l155 55l-1 -100h3c26 39 89 100 161 100c75 0 103 -57 105 -103h4c25 41 82 103 158 103c89 0 113 -62 113 -146v-279l70 -24v-17h-211v17l58 24v279c0 53 -13 87 -62 87c-29 0 -62 -10 -96 -45c-17 -17 -30 -38 -30 -71v-250l57 -24v-17h-198v17l58 24v275
c0 54 -10 91 -62 91c-25 0 -61 -11 -91 -40c-23 -22 -36 -45 -36 -83v-243l58 -24v-17h-209v17l68 24v350l-72 2v18zM420 670h25l86 -159l-15 -5l-84 94l-84 -94l-15 5z" />
    <glyph glyph-name="ncircumflex" horiz-adv-x="549" 
d="M31 411l154 55v-101h2c22 34 80 101 161 101c83 0 114 -55 114 -145v-280l71 -24v-17h-214v17l60 24v274c0 50 -11 92 -68 92c-24 0 -61 -11 -94 -46c-18 -18 -32 -43 -32 -73v-247l60 -24v-17h-212v17l69 24v350l-71 2v18zM285 670h25l86 -159l-15 -5l-84 94l-84 -94
l-15 5z" />
    <glyph glyph-name="obrevedown" horiz-adv-x="497" 
d="M236 -14c-119 0 -198 82 -198 228c0 136 71 252 222 252c121 0 195 -82 195 -218c0 -152 -79 -262 -219 -262zM131 223c0 -137 37 -205 114 -205s117 88 117 211c0 148 -40 205 -112 205c-86 0 -119 -92 -119 -211zM368 516h-23c-6 32 -11 71 -85 71
c-73 0 -79 -39 -85 -71h-23c2 57 21 125 108 125s107 -68 108 -125z" />
    <glyph glyph-name="odoublegrave" horiz-adv-x="497" 
d="M236 -14c-119 0 -198 82 -198 228c0 136 71 252 222 252c121 0 195 -82 195 -218c0 -152 -79 -262 -219 -262zM131 223c0 -137 37 -205 114 -205s117 88 117 211c0 148 -40 205 -112 205c-86 0 -119 -92 -119 -211zM198 513l-88 138l55 22l47 -153zM302 513l-87 138
l55 22l46 -153z" />
    <glyph glyph-name="published" unicode="&#x2117;" horiz-adv-x="735" 
d="M368 -18c-166 0 -289 147 -289 328c0 182 123 327 289 327c164 0 290 -145 290 -327c0 -181 -126 -328 -290 -328zM129 310c0 -154 99 -283 239 -283c139 0 239 129 239 283c0 155 -100 281 -239 281c-140 0 -239 -126 -239 -281zM244 478h151c67 0 120 -21 120 -88
c0 -62 -52 -106 -120 -106c-15 0 -38 2 -47 3v-114l49 -18v-11h-153v11l48 18v278l-48 16v11zM348 453v-147c20 1 52 1 73 14c20 12 36 35 36 70c0 40 -27 67 -72 67c-12 0 -25 -1 -37 -4z" />
    <glyph glyph-name="rbrevedown" horiz-adv-x="377" 
d="M34 0v17l69 24v350l-72 2v18l154 55v-111h2c22 52 60 111 126 111c23 0 41 -8 55 -19l-8 -100h-20c-13 36 -33 54 -60 54c-48 0 -95 -75 -95 -133v-227l86 -24v-17h-237zM341 516h-23c-6 32 -11 71 -85 71c-73 0 -79 -39 -85 -71h-23c2 57 21 125 108 125
s107 -68 108 -125z" />
    <glyph glyph-name="rdoublegrave" horiz-adv-x="377" 
d="M154 513l-88 138l55 22l47 -153zM258 513l-87 138l55 22l46 -153zM34 0v17l69 24v350l-72 2v18l154 55v-111h2c22 52 60 111 126 111c23 0 41 -8 55 -19l-8 -100h-20c-13 36 -33 54 -60 54c-48 0 -95 -75 -95 -133v-227l86 -24v-17h-237z" />
    <glyph glyph-name="rmacron" horiz-adv-x="377" 
d="M34 0v17l69 24v350l-72 2v18l154 55v-111h2c22 52 60 111 126 111c23 0 41 -8 55 -19l-8 -100h-20c-13 36 -33 54 -60 54c-48 0 -95 -75 -95 -133v-227l86 -24v-17h-237zM109 571v52h228v-52h-228z" />
    <glyph glyph-name="squareblack" horiz-adv-x="310" 
d="M49 111v235h211v-235h-211z" />
    <glyph glyph-name="squareshadow" horiz-adv-x="348" 
d="M299 151l-44 -59h-206v226l51 50h199v-217zM80 305v-179h161v179h-161z" />
    <glyph glyph-name="triangleblackleft" horiz-adv-x="427" 
d="M367 413v-340l-327 171z" />
    <glyph glyph-name="triangleblackright" horiz-adv-x="427" 
d="M59 73v340l329 -169z" />
    <glyph glyph-name="trianglewhiteleft" horiz-adv-x="427" 
d="M367 413v-340l-327 171zM332 135v217l-212 -108z" />
    <glyph glyph-name="trianglewhiteright" horiz-adv-x="427" 
d="M55 73v340l328 -169zM90 352v-217l212 109z" />
    <glyph glyph-name="ubrevedown" horiz-adv-x="532" 
d="M358 -14v100h-3c-29 -49 -87 -100 -156 -100c-82 0 -108 54 -108 151v267l-68 10v17l150 35v-308c0 -62 5 -114 69 -114c19 0 52 8 83 42c24 27 33 54 33 98v225l-63 24v17l146 11v-404l74 -1v-17zM374 516h-23c-6 32 -11 71 -85 71c-73 0 -79 -39 -85 -71h-23
c2 57 21 125 108 125s107 -68 108 -125z" />
    <glyph glyph-name="udoublegrave" horiz-adv-x="532" 
d="M358 -14v100h-3c-29 -49 -87 -100 -156 -100c-82 0 -108 54 -108 151v267l-68 10v17l150 35v-308c0 -62 5 -114 69 -114c19 0 52 8 83 42c24 27 33 54 33 98v225l-63 24v17l146 11v-404l74 -1v-17zM213 513l-88 138l55 22l47 -153zM317 513l-87 138l55 22l46 -153z" />
    <glyph glyph-name="uniF8FF" unicode="&#xf8ff;" horiz-adv-x="444" 
d="M0 -4v672h444v-672h-444zM40 631v-598h364v598h-364zM179 261v75c34 20 87 40 87 115c0 54 -29 80 -64 80c-39 0 -69 -26 -82 -82h-20v84c30 13 74 30 123 30c87 0 116 -54 116 -102c0 -78 -70 -98 -102 -125c-23 -20 -30 -50 -38 -75h-20zM193 101c-25 0 -46 20 -46 49
c0 28 21 49 46 49c26 0 48 -21 48 -49c0 -29 -22 -49 -48 -49z" />
    <glyph glyph-name="parenleft.cap" horiz-adv-x="315" 
d="M60 291c0 250 94 386 216 420v-23c-110 -48 -147 -219 -147 -397c0 -180 36 -351 146 -399v-23c-122 34 -215 172 -215 422z" />
    <glyph glyph-name="parenright.cap" horiz-adv-x="315" 
d="M255 291c0 -250 -93 -388 -215 -422v23c110 48 146 219 146 399c0 178 -37 349 -147 397v23c122 -34 216 -170 216 -420z" />
    <glyph glyph-name="hyphen.cap" horiz-adv-x="323" 
d="M42 297v68h240v-68h-240z" />
    </font>
</defs>
</svg>
